<svg xmlns="http://www.w3.org/2000/svg" xmlns:xlink="http://www.w3.org/1999/xlink" xmlns:inkscape="http://www.inkscape.org/namespaces/inkscape" version="1.1" width="511" height="260" viewBox="0 0 511 260">
<defs>
<clipPath id="clip_0">
<path d="M193 29.039H195V252.238H193Z"/>
</clipPath>
<clipPath id="clip_1">
<path d="M154 29.039H155V252.238H154Z"/>
</clipPath>
<clipPath id="clip_2">
<path d="M422.16 51H436.558V53H422.16Z"/>
</clipPath>
<clipPath id="clip_3">
<path d="M422.16 82H436.558V85H422.16Z"/>
</clipPath>
<clipPath id="clip_4">
<path d="M422.16 114H436.558V116H422.16Z"/>
</clipPath>
<clipPath id="clip_5">
<path d="M422.16 145H436.558V148H422.16Z"/>
</clipPath>
<clipPath id="clip_6">
<path d="M422.16 177H436.558V179H422.16Z"/>
</clipPath>
<clipPath id="clip_7">
<path d="M422.16 208H436.558V211H422.16Z"/>
</clipPath>
</defs>
<g>
<g clip-path="url(#clip_0)">
<path stroke-width=".144" stroke-linecap="butt" stroke-miterlimit="3.25" stroke-linejoin="miter" fill="none" stroke="#808080" stroke-opacity=".4" d="M194.066 252.277V29.141"/>
</g>
<g clip-path="url(#clip_1)">
<path stroke-width=".144" stroke-linecap="butt" stroke-miterlimit="3.25" stroke-linejoin="miter" fill="none" stroke="#808080" stroke-opacity=".4" d="M154.598 252.277V29.141"/>
</g>
<path stroke-width="2.166256" stroke-linecap="square" stroke-miterlimit="3.25" stroke-linejoin="miter" fill="none" stroke="#0300fc" d="M39.062 40.297 39.168 40.426 39.273 40.559 39.488 40.816 39.914 41.332 40.762 42.367 42.465 44.438 45.867 48.574 53.242 57.551 60.129 65.93 66.879 74.145 74.203 83.055 81.039 91.371 88.445 100.383 95.719 109.23 102.504 117.484 109.859 126.434 116.727 134.789 123.457 142.98 130.762 151.867 137.578 160.16 144.965 169.148 145.191 169.422 145.418 169.699 146.777 171.352 148.59 173.559 148.703 173.695 148.816 173.836 149.043 174.109 149.496 174.66 150.406 175.758 150.859 176.305 151.312 176.848 152.219 177.91 152.324 178.027 152.43 178.148 152.641 178.379 152.852 178.605 153.062 178.82 153.273 179.023 153.484 179.215 153.59 179.305 153.695 179.391 153.91 179.543 154.016 179.613 154.121 179.676 154.227 179.734 154.332 179.785 154.438 179.832 154.543 179.871 154.648 179.902 154.754 179.926 154.859 179.945 154.965 179.961 155.07 179.965H155.176L155.281 179.961 155.387 179.949 155.492 179.934 155.598 179.914 155.707 179.887 155.812 179.859 156.023 179.789 156.129 179.75 156.234 179.707 156.551 179.566 156.656 179.516 156.867 179.41 157.289 179.184 157.395 179.125 157.5 179.062 157.715 178.941 158.137 178.695 158.98 178.191 159.098 178.125 159.211 178.055 159.441 177.914 159.898 177.637 160.816 177.082 162.648 175.965 166.316 173.734 173.164 169.57 180.586 165.055 187.867 160.625 194.664 156.488 202.031 152.008 208.914 147.824 215.656 143.719 222.973 139.27 229.801 135.117 237.199 130.613 244.465 126.195 251.242 122.07 258.59 117.602 265.449 113.43 272.172 109.34 279.469 104.898 286.277 100.758 293.66 96.27 300.551 92.074 307.305 87.965 314.637 83.508 321.477 79.348 328.887 74.836 336.164 70.41 342.953 66.281 350.312 61.805 357.184 57.621 363.922 53.523 371.23 49.078 378.051 44.93 378.168 44.855 378.289 44.785 378.527 44.641 379 44.352 379.953 43.773 381.855 42.613 381.977 42.543 382.094 42.469 383.762 41.457 383.879 41.383 384 41.312 384.234 41.168 384.711 40.879 384.832 40.805 384.949 40.73 385.188 40.586 385.309 40.516 385.426 40.441 385.543 40.371 385.664 40.297"/>
<path stroke-width="2.166256" stroke-linecap="square" stroke-miterlimit="3.25" stroke-linejoin="miter" fill="none" stroke="#2a00d4" d="M39.062 40.297 39.273 40.617 39.488 40.938 39.914 41.578 40.762 42.859 42.465 45.418 45.867 50.543 53.242 61.645 60.129 72.012 66.879 82.172 74.203 93.18 81.039 103.426 88.445 114.473 95.719 125.207 102.504 135.051 109.859 145.43 116.727 154.691 123.457 163.184 130.762 171.477 130.867 171.59 130.977 171.699 131.188 171.926 131.613 172.367 132.465 173.242 134.168 174.934 134.277 175.035 134.383 175.141 134.594 175.344 135.02 175.75 135.875 176.547 137.578 178.082 137.691 178.184 137.809 178.285 138.039 178.484 138.5 178.879 139.426 179.652 141.27 181.117 141.387 181.203 141.5 181.293 141.734 181.465 142.195 181.809 143.117 182.477 144.965 183.723 145.191 183.871 145.418 184.012 145.871 184.297 146.777 184.84 147.004 184.973 147.684 185.359 148.59 185.848 149.043 186.082 149.496 186.309 150.406 186.742 152.219 187.527 152.324 187.566 152.43 187.609 152.641 187.691 153.062 187.852 153.91 188.156 154.332 188.297 154.754 188.434 155.598 188.688 155.707 188.719 155.812 188.746 156.023 188.805 156.445 188.918 156.656 188.973 157.289 189.125 157.5 189.172 157.715 189.219 158.137 189.309 158.98 189.469 159.098 189.488 159.211 189.508 159.441 189.547 159.898 189.617 160.012 189.633 160.129 189.648 160.355 189.68 160.816 189.738 161.043 189.762 161.273 189.789 161.387 189.801 161.504 189.809 161.734 189.832 161.848 189.84 161.961 189.852 162.191 189.867 162.305 189.879 162.422 189.887 162.648 189.898 162.766 189.906 162.879 189.914 162.992 189.918 163.109 189.926 163.336 189.934 163.453 189.938 163.566 189.945H163.68L163.797 189.949 164.023 189.957H164.141L164.254 189.961H165.172L165.285 189.957H165.402L165.629 189.949 165.746 189.945 165.973 189.938 166.09 189.934 166.316 189.926 166.426 189.918 166.531 189.914 166.746 189.902 166.852 189.895 166.961 189.891 167.172 189.875 167.281 189.867 167.387 189.859 167.602 189.844 168.031 189.805 168.137 189.797 168.242 189.785 168.457 189.766 168.887 189.719 168.992 189.703 169.098 189.691 169.742 189.609 169.848 189.594 169.957 189.578 170.168 189.547 170.598 189.48 171.453 189.336 171.559 189.316 171.668 189.297 171.883 189.258 172.309 189.176 173.164 188.996 173.398 188.941 173.629 188.891 174.094 188.781 175.02 188.547 175.137 188.52 175.25 188.488 175.484 188.426 175.949 188.297 176.875 188.027 176.992 187.992 177.105 187.957 177.34 187.887 177.801 187.742 178.73 187.438 180.586 186.785 181.039 186.613 181.496 186.441 182.406 186.082 184.227 185.328 187.867 183.672 187.977 183.621 188.082 183.57 188.293 183.465 188.719 183.258 189.566 182.836 191.266 181.969 194.664 180.141 202.031 175.812 208.914 171.438 215.656 166.922 222.973 161.844 229.801 156.984 237.199 151.625 244.465 146.297 251.242 141.289 258.59 135.828 265.449 130.707 272.172 125.676 279.469 120.203 286.277 115.094 293.66 109.547 300.551 104.363 307.305 99.281 314.637 93.766 321.477 88.617 328.887 83.039 336.164 77.562 342.953 72.453 350.312 66.91 357.184 61.738 363.922 56.668 371.23 51.164 378.051 46.031 378.168 45.941 378.289 45.852 378.527 45.672 379 45.312 379.953 44.598 381.855 43.164 381.977 43.074 382.094 42.984 382.332 42.805 382.809 42.449 383.762 41.73 383.879 41.641 384 41.551 384.234 41.371 384.711 41.016 384.832 40.926 384.949 40.836 385.188 40.656 385.309 40.566 385.543 40.387 385.664 40.297"/>
<path stroke-width="2.166256" stroke-linecap="square" stroke-miterlimit="3.25" stroke-linejoin="miter" fill="none" stroke="#4900b6" d="M39.062 40.297 39.273 40.727 39.488 41.152 39.914 42.004 40.762 43.711 42.465 47.121 45.867 53.914 53.242 68.48 60.129 81.801 66.879 94.52 74.203 107.84 81.039 119.746 88.445 131.98 95.719 143.223 102.504 152.949 109.859 162.59 116.727 170.676 123.457 177.699 123.57 177.812 123.688 177.922 123.914 178.145 124.371 178.582 125.285 179.449 127.109 181.129 130.762 184.281 130.867 184.371 130.977 184.457 131.188 184.633 131.613 184.977 132.465 185.66 134.168 186.977 137.578 189.43 137.691 189.508 137.809 189.586 138.039 189.742 138.5 190.051 139.426 190.66 141.27 191.816 141.387 191.887 141.5 191.957 141.734 192.098 142.195 192.371 143.117 192.906 144.965 193.926 145.078 193.984 145.191 194.047 145.871 194.398 146.777 194.859 148.59 195.723 148.703 195.777 149.496 196.133 150.406 196.523 152.219 197.262 152.324 197.301 152.43 197.344 152.641 197.422 153.062 197.582 153.91 197.891 155.598 198.461 155.707 198.496 155.812 198.527 156.023 198.598 156.445 198.727 157.289 198.98 158.98 199.441 159.098 199.473 159.211 199.5 159.441 199.559 159.898 199.672 160.816 199.883 160.93 199.91 161.043 199.934 161.273 199.984 161.734 200.082 162.648 200.262 162.766 200.285 162.879 200.305 163.109 200.348 163.566 200.43 164.484 200.582 164.598 200.598 164.711 200.617 164.941 200.652 165.402 200.719 166.316 200.84 166.426 200.852 166.531 200.867 166.746 200.891 167.172 200.941 167.281 200.953 167.387 200.961 167.602 200.984 168.031 201.027 168.137 201.035 168.242 201.047 168.457 201.066 168.887 201.102 169.098 201.117 169.742 201.164 169.848 201.172 169.957 201.176 170.168 201.191 170.277 201.195 170.383 201.203 170.598 201.215 170.703 201.219 170.812 201.223 171.023 201.234 171.133 201.238 171.238 201.242 171.453 201.25 171.559 201.254 171.668 201.258 171.773 201.262 171.883 201.266 171.988 201.27H172.094L172.309 201.277H172.418L172.523 201.281H172.629L172.738 201.285H172.949L173.059 201.289H174.207L174.324 201.285H174.555L174.672 201.281H174.789L174.902 201.277 175.02 201.273H175.137L175.25 201.27 175.484 201.262H175.598L175.715 201.258 175.949 201.246 176.062 201.242 176.18 201.238 176.41 201.23 176.875 201.207 176.992 201.199 177.105 201.195 177.34 201.18 177.801 201.152 178.035 201.137 178.266 201.121 178.73 201.086 178.844 201.074 178.961 201.066 179.195 201.047 179.656 201.004 180.586 200.91 180.699 200.895 181.039 200.859 181.496 200.805 182.406 200.688 182.633 200.656 182.859 200.621 183.316 200.555 184.227 200.414 184.34 200.395 184.453 200.379 184.684 200.34 185.137 200.262 186.047 200.094 187.867 199.73 187.977 199.707 188.293 199.637 188.719 199.543 189.566 199.348 191.266 198.926 191.375 198.898 191.691 198.816 192.117 198.703 192.965 198.469 194.664 197.973 194.781 197.941 194.895 197.906 195.125 197.836 195.586 197.691 196.508 197.398 198.348 196.777 202.031 195.422 202.141 195.383 202.246 195.34 202.465 195.254 202.895 195.086 203.754 194.738 205.473 194.023 208.914 192.496 215.656 189.164 222.973 185.086 229.801 180.898 237.199 175.988 244.465 170.832 251.242 165.762 258.59 160.012 265.449 154.43 272.172 148.789 279.469 142.496 286.277 136.48 293.66 129.824 300.551 123.496 307.305 117.199 314.637 110.277 321.477 103.742 328.887 96.59 336.164 89.508 342.953 82.852 350.312 75.59 357.184 68.777 363.922 62.07 371.23 54.766 378.051 47.938 378.168 47.816 378.289 47.699 378.527 47.461 379 46.98 379.953 46.027 381.855 44.117 381.977 44 382.094 43.879 382.809 43.164 383.762 42.207 384 41.969 384.234 41.73 385.309 40.656 385.426 40.535 385.664 40.297"/>
<path stroke-width="2.166256" stroke-linecap="square" stroke-miterlimit="3.25" stroke-linejoin="miter" fill="none" stroke="#60009f" d="M39.062 40.297 39.168 40.617 39.273 40.934 39.488 41.566 39.914 42.816 40.762 45.277 42.465 50.09 45.867 59.348 53.242 78.047 60.129 94.059 66.879 108.535 74.203 122.965 81.039 135.293 88.445 147.473 95.719 158.277 102.504 167.363 109.859 176.176 116.727 183.465 123.457 189.754 130.762 195.664 130.867 195.742 130.977 195.824 131.188 195.98 131.613 196.293 132.465 196.91 134.168 198.105 137.578 200.352 137.691 200.426 137.809 200.496 138.039 200.641 138.5 200.926 139.426 201.488 141.27 202.57 144.965 204.57 145.078 204.625 145.418 204.801 145.871 205.027 146.777 205.473 148.59 206.32 148.703 206.375 149.043 206.527 149.496 206.727 150.406 207.121 152.219 207.871 152.43 207.957 152.641 208.039 153.062 208.207 153.91 208.527 155.598 209.141 155.707 209.176 155.812 209.215 156.023 209.285 156.445 209.43 157.289 209.711 158.98 210.238 159.098 210.273 159.211 210.309 159.441 210.375 159.898 210.508 160.816 210.766 162.648 211.246 162.766 211.273 162.879 211.301 163.109 211.359 163.566 211.469 164.484 211.68 166.316 212.062 166.426 212.086 166.531 212.105 166.746 212.145 167.172 212.227 168.031 212.383 168.137 212.398 168.242 212.418 168.887 212.523 169.742 212.66 169.848 212.676 169.957 212.691 170.168 212.723 170.598 212.785 171.453 212.898 171.559 212.91 171.668 212.926 171.883 212.953 172.309 213.004 173.164 213.098 173.398 213.121 173.629 213.145 174.094 213.191 174.207 213.203 174.324 213.211 174.555 213.234 175.02 213.273 175.137 213.281 175.25 213.289 175.484 213.309 175.949 213.344 176.062 213.352 176.18 213.359 176.41 213.375 176.875 213.402 176.992 213.41 177.105 213.414 177.34 213.426 177.453 213.434 177.57 213.438 177.801 213.449 177.918 213.453 178.035 213.461 178.266 213.469 178.73 213.488 178.844 213.492 178.961 213.496 179.195 213.5 179.309 213.504 179.426 213.508 179.656 213.512 179.891 213.52H180.004L180.121 213.523H180.238L180.352 213.527H180.586L180.699 213.531H181.039L181.152 213.535H181.723L181.836 213.531H182.293L182.406 213.527H182.633L182.746 213.523H182.859L182.977 213.52H183.09L183.316 213.512H183.43L183.543 213.508 183.773 213.5H183.887L184.453 213.48 184.684 213.473 184.797 213.465 185.137 213.453 185.25 213.445 185.363 213.441 185.594 213.43 186.047 213.406 186.16 213.398 186.277 213.395 186.504 213.379 186.957 213.352 187.867 213.285 187.977 213.277 188.082 213.27 188.293 213.25 188.719 213.215 189.566 213.137 189.676 213.125 189.781 213.117 189.992 213.094 190.418 213.051 191.266 212.957 191.375 212.941 191.691 212.906 192.117 212.852 192.965 212.738 194.664 212.492 194.781 212.473 194.895 212.457 195.125 212.418 195.586 212.344 196.508 212.188 198.348 211.844 198.465 211.82 198.578 211.797 199.27 211.656 200.191 211.461 202.031 211.043 202.141 211.02 202.246 210.992 202.465 210.941 202.895 210.836 203.754 210.621 205.473 210.168 208.914 209.168 209.02 209.137 209.121 209.102 209.754 208.902 210.598 208.633 212.285 208.07 215.656 206.859 215.77 206.816 215.887 206.773 216.113 206.688 216.57 206.512 217.484 206.156 219.316 205.422 222.973 203.855 229.801 200.605 237.199 196.621 244.465 192.262 251.242 187.816 258.59 182.598 265.449 177.371 272.172 171.93 279.469 165.68 286.277 159.539 293.66 152.559 300.551 145.746 307.305 138.801 314.637 130.977 321.477 123.41 328.887 114.93 336.164 106.324 342.953 98.051 350.312 88.812 357.184 79.938 363.922 70.996 371.23 61.016 378.051 51.418 378.168 51.246 378.289 51.074 378.527 50.734 379 50.051 379.953 48.684 381.855 45.922 381.977 45.75 382.094 45.574 382.809 44.531 383.762 43.129 383.879 42.953 384 42.777 384.234 42.426 384.711 41.719 384.832 41.543 384.949 41.367 385.188 41.012 385.309 40.832 385.426 40.656 385.543 40.477 385.664 40.297"/>
<path stroke-width="2.166256" stroke-linecap="square" stroke-miterlimit="3.25" stroke-linejoin="miter" fill="none" stroke="#71008e" d="M39.062 40.297 39.168 40.859 39.273 41.387 39.488 42.402 39.914 44.336 40.762 47.961 42.465 54.641 42.676 55.438 42.891 56.223 43.316 57.781 44.164 60.82 45.867 66.633 45.98 67.016 46.098 67.398 46.328 68.156 46.789 69.66 47.711 72.609 49.555 78.293 53.242 88.938 60.129 106.75 66.879 122.141 74.203 136.953 81.039 149.281 88.445 161.215 95.719 171.648 102.504 180.336 109.859 188.719 116.727 195.641 123.457 201.641 130.762 207.32 137.578 211.887 137.691 211.957 137.809 212.027 138.039 212.172 138.5 212.453 139.426 213.008 141.27 214.078 144.965 216.082 145.418 216.316 145.871 216.547 146.777 216.996 148.59 217.867 152.219 219.477 152.324 219.523 152.43 219.566 152.641 219.656 153.062 219.828 153.91 220.172 155.598 220.828 155.707 220.867 156.445 221.141 157.289 221.445 158.98 222.031 159.098 222.066 159.211 222.105 159.441 222.18 159.898 222.332 160.816 222.621 162.648 223.176 162.766 223.207 162.879 223.238 163.109 223.305 163.566 223.434 164.484 223.684 166.316 224.156 166.426 224.18 166.531 224.207 166.746 224.258 167.172 224.359 168.031 224.559 169.742 224.926 169.848 224.949 169.957 224.969 170.168 225.012 170.598 225.098 171.453 225.262 173.164 225.562 173.398 225.602 173.629 225.637 174.094 225.711 175.02 225.852 175.137 225.867 175.25 225.883 175.484 225.914 175.949 225.98 176.875 226.098 176.992 226.113 177.105 226.129 177.34 226.156 177.801 226.207 178.73 226.309 178.844 226.32 179.195 226.355 179.656 226.398 180.586 226.48 180.699 226.492 180.812 226.5 181.039 226.52 181.496 226.551 181.609 226.559 181.723 226.57 181.949 226.586 182.406 226.613 182.633 226.629 182.859 226.641 183.316 226.668 183.43 226.672 183.543 226.68 183.773 226.691 184.227 226.711 184.453 226.719 184.684 226.73 185.363 226.754 185.594 226.758 185.82 226.766 186.047 226.77 186.16 226.773 186.277 226.777H186.391L186.504 226.781H186.617L186.73 226.785H186.844L186.957 226.789H187.188L187.301 226.793H187.641L187.754 226.797H188.719L188.824 226.793H189.25L189.355 226.789H189.566L189.676 226.785H189.781L189.887 226.781H189.992L190.098 226.777H190.207L190.418 226.773 190.629 226.766 190.844 226.762 191.266 226.75 191.375 226.746 191.691 226.734 192.117 226.719 192.223 226.715 192.328 226.707 192.543 226.699 192.965 226.68 193.07 226.676 193.18 226.668 193.391 226.656 193.816 226.633 194.664 226.582 194.781 226.574 194.895 226.566 195.125 226.547 195.586 226.516 196.508 226.441 196.621 226.43 196.738 226.422 196.969 226.398 197.43 226.355 198.348 226.266 198.465 226.254 198.578 226.242 198.809 226.215 199.27 226.164 200.191 226.055 202.031 225.812 202.141 225.797 202.246 225.781 202.465 225.75 202.895 225.688 203.754 225.555 205.473 225.266 205.578 225.246 205.688 225.227 206.332 225.109 207.191 224.949 208.914 224.605 209.02 224.582 209.121 224.559 209.332 224.516 209.754 224.426 210.598 224.238 212.285 223.844 212.391 223.816 212.496 223.793 212.707 223.742 213.129 223.637 213.969 223.422 215.656 222.973 215.77 222.941 215.887 222.91 216.113 222.848 216.57 222.719 217.484 222.457 219.316 221.91 222.973 220.719 223.078 220.684 223.188 220.645 223.398 220.57 223.828 220.422 224.68 220.121 226.387 219.496 229.801 218.164 237.199 214.922 244.465 211.262 251.242 207.43 258.59 202.82 265.449 198.102 272.172 193.086 279.469 187.207 286.277 181.312 293.66 174.473 300.551 167.66 307.305 160.578 314.637 152.43 321.477 144.383 328.887 135.16 336.164 125.574 342.953 116.125 350.312 105.289 357.184 94.562 363.922 83.398 371.23 70.422 378.051 57.254 378.168 57.016 378.289 56.773 378.527 56.289 379 55.312 379.953 53.332 381.855 49.258 381.977 48.996 382.094 48.734 382.332 48.211 382.809 47.148 383.762 44.98 383.879 44.703 384 44.426 384.234 43.863 384.711 42.723 384.832 42.434 384.949 42.141 385.188 41.547 385.309 41.242 385.426 40.938 385.543 40.625 385.664 40.297"/>
<path stroke-width="2.166256" stroke-linecap="square" stroke-miterlimit="3.25" stroke-linejoin="miter" fill="none" stroke="#7f0080" d="M39.062 40.297 39.168 41.371 39.273 42.266 39.383 43.094 39.488 43.879 39.594 44.633 39.699 45.359 39.914 46.754 40.02 47.426 40.125 48.086 40.34 49.363 40.762 51.797 40.871 52.387 40.977 52.965 41.188 54.105 41.613 56.309 42.465 60.469 42.676 61.469 42.891 62.449 43.316 64.375 44.164 68.07 45.867 74.98 45.98 75.43 46.098 75.875 46.328 76.758 46.789 78.5 47.711 81.891 49.555 88.32 53.242 100.07 53.348 100.391 53.457 100.715 53.672 101.359 54.102 102.633 54.965 105.137 56.684 109.977 60.129 119.066 66.879 135 74.203 150.031 81.039 162.363 88.445 174.191 95.719 184.469 102.504 193.008 109.859 201.246 116.727 208.07 123.457 214.008 130.762 219.676 137.578 224.281 144.965 228.574 145.078 228.637 145.191 228.695 145.418 228.816 145.871 229.055 146.777 229.523 148.59 230.43 152.219 232.125 152.641 232.312 153.062 232.496 153.91 232.859 155.598 233.562 158.98 234.867 159.098 234.91 159.211 234.953 159.441 235.035 159.898 235.199 160.816 235.52 162.648 236.137 162.766 236.172 162.879 236.211 163.109 236.285 163.566 236.43 164.484 236.715 166.316 237.254 166.426 237.285 166.531 237.316 166.746 237.375 167.172 237.492 168.031 237.727 169.742 238.164 169.848 238.191 169.957 238.219 170.168 238.27 170.598 238.371 171.453 238.574 173.164 238.949 173.281 238.973 173.398 239 173.629 239.047 174.094 239.141 175.02 239.324 176.875 239.66 176.992 239.68 177.105 239.699 177.34 239.738 177.801 239.816 178.73 239.961 180.586 240.227 181.039 240.289 181.496 240.344 182.406 240.453 182.52 240.469 182.633 240.48 182.859 240.508 183.316 240.555 184.227 240.648 184.34 240.66 184.453 240.668 184.684 240.691 185.137 240.73 185.363 240.754 185.594 240.77 186.047 240.809 186.16 240.816 186.277 240.824 186.504 240.844 186.957 240.875 187.867 240.934 187.977 240.941 188.082 240.949 188.293 240.961 188.719 240.984 188.93 240.992 189.145 241.004 189.566 241.023 189.676 241.027 189.781 241.031 189.992 241.043 190.098 241.047 190.207 241.051 190.629 241.066 190.844 241.07 191.266 241.082 191.375 241.086 191.48 241.09 191.691 241.094 191.797 241.098H191.902L192.117 241.102 192.223 241.105H192.328L192.434 241.109H192.543L192.648 241.113H192.859L192.965 241.117H193.285L193.391 241.121H194.664L194.781 241.117H195.125L195.242 241.113H195.355L195.473 241.109H195.699L195.816 241.105 196.047 241.102 196.16 241.098H196.277L196.508 241.09H196.621L196.738 241.086 196.969 241.078H197.082L197.199 241.074 197.43 241.066 197.656 241.059 197.887 241.051 198.348 241.031 198.465 241.027 198.578 241.023 199.27 240.988 199.387 240.984 199.5 240.977 199.73 240.965 200.191 240.938 200.305 240.934 200.422 240.926 201.113 240.879 202.031 240.812 202.141 240.805 202.246 240.797 202.465 240.781 202.895 240.742 203.754 240.668 203.859 240.656 203.969 240.648 204.184 240.625 204.613 240.582 205.473 240.492 205.578 240.48 205.688 240.469 205.902 240.445 207.191 240.293 208.914 240.062 209.02 240.047 209.121 240.031 209.332 240 209.754 239.941 210.598 239.812 212.285 239.531 212.391 239.516 212.707 239.457 213.129 239.383 213.969 239.227 215.656 238.898 215.77 238.875 215.887 238.852 216.113 238.805 216.57 238.707 217.484 238.508 219.316 238.09 222.973 237.16 223.078 237.129 223.188 237.102 223.398 237.043 223.828 236.926 224.68 236.684 226.387 236.18 229.801 235.098 229.918 235.059 230.031 235.02 230.262 234.941 230.727 234.785 231.652 234.465 233.5 233.801 237.199 232.383 244.465 229.242 251.242 225.879 258.59 221.762 265.449 217.469 272.172 212.84 279.469 207.336 286.277 201.734 293.66 195.141 300.551 188.48 307.305 181.461 314.637 173.266 321.477 165.039 328.887 155.457 336.164 145.309 342.953 135.113 350.312 123.16 357.184 111.023 363.922 98.016 371.23 82.305 371.336 82.062 371.441 81.816 371.656 81.324 372.082 80.336 372.934 78.332 374.641 74.215 374.746 73.949 374.852 73.688 375.066 73.16 375.492 72.094 376.344 69.93 378.051 65.445 378.168 65.125 378.289 64.805 378.527 64.156 379 62.844 379.953 60.16 380.074 59.816 380.191 59.473 380.43 58.781 380.906 57.375 381.855 54.473 381.977 54.102 382.094 53.727 382.332 52.969 382.809 51.426 382.926 51.031 383.047 50.633 383.285 49.832 383.762 48.18 383.879 47.758 384 47.328 384.234 46.457 384.711 44.637 384.832 44.16 384.949 43.676 385.188 42.664 385.309 42.133 385.426 41.578 385.543 40.988 385.664 40.297"/>
<path stroke-width=".36" stroke-linecap="butt" stroke-miterlimit="3.25" stroke-linejoin="miter" fill="none" stroke="#000000" d="M39.062 40.297V36.297"/>
<path stroke-width=".36" stroke-linecap="butt" stroke-miterlimit="3.25" stroke-linejoin="miter" fill="none" stroke="#000000" d="M212.363 40.297V36.297"/>
<text xml:space="preserve" transform="matrix(1 0 0 1 0 0)" font-size="17.28" font-family="CairoFont-0"><tspan y="58.05819" x="200.43988 209.59828 214.17748">0.5</tspan></text>
<path stroke-width=".36" stroke-linecap="butt" stroke-miterlimit="3.25" stroke-linejoin="miter" fill="none" stroke="#000000" d="M385.664 40.297V36.297"/>
<text xml:space="preserve" transform="matrix(1 0 0 1 0 0)" font-size="17.28" font-family="CairoFont-0"><tspan y="58.05819" x="381.08479">1</tspan></text>
<path stroke-width=".36" stroke-linecap="butt" stroke-miterlimit="3.25" stroke-linejoin="miter" fill="none" stroke="#000000" d="M31.84 40.297H392.883"/>
<path d="M412.785 35.266C412.785 33.926 411.652 32.707 409.492 32.707H404.188C403.859 32.707 403.707 32.707 403.707 33.031 403.707 33.207 403.859 33.207 404.117 33.207 405.164 33.207 405.164 33.344 405.164 33.531 405.164 33.531 405.164 33.668 405.098 33.926L402.781 43.16C402.625 43.762 402.59 43.934 401.391 43.934 401.062 43.934 400.891 43.934 400.891 44.242 400.891 44.43 401.047 44.43 401.148 44.43 401.477 44.43 401.82 44.398 402.145 44.398H404.152C404.477 44.398 404.84 44.43 405.164 44.43 405.301 44.43 405.492 44.43 405.492 44.105 405.492 43.934 405.336 43.934 405.078 43.934 404.047 43.934 404.031 43.812 404.031 43.641 404.031 43.555 404.047 43.438 404.066 43.348L405.164 38.973H408.047C410.418 38.973 412.785 37.223 412.785 35.266ZM411.344 34.906C411.344 35.352 411.121 36.809 410.332 37.602 410.039 37.91 409.215 38.562 407.652 38.562H405.234L406.402 33.875C406.555 33.238 406.625 33.207 407.293 33.207H408.992C410.281 33.207 411.344 33.617 411.344 34.906ZM411.344 34.906" fill-rule="evenodd"/>
<path stroke-width=".36" stroke-linecap="butt" stroke-miterlimit="3.25" stroke-linejoin="miter" fill="none" stroke="#000000" d="M39.062 249.039H43.062"/>
<text xml:space="preserve" transform="matrix(1 0 0 1 0 0)" font-size="18.72" font-family="CairoFont-1"><tspan y="254.68" x="0">-</tspan></text>
<text xml:space="preserve" transform="matrix(1 0 0 1 0 0)" font-size="17.28" font-family="CairoFont-0"><tspan y="254.68" x="13.05625 22.21465 26.79385">0.5</tspan></text>
<path stroke-width=".36" stroke-linecap="butt" stroke-miterlimit="3.25" stroke-linejoin="miter" fill="none" stroke="#000000" d="M39.062 240.691H41.461"/>
<path stroke-width=".36" stroke-linecap="butt" stroke-miterlimit="3.25" stroke-linejoin="miter" fill="none" stroke="#000000" d="M39.062 232.34H41.461"/>
<path stroke-width=".36" stroke-linecap="butt" stroke-miterlimit="3.25" stroke-linejoin="miter" fill="none" stroke="#000000" d="M39.062 223.992H41.461"/>
<path stroke-width=".36" stroke-linecap="butt" stroke-miterlimit="3.25" stroke-linejoin="miter" fill="none" stroke="#000000" d="M39.062 215.641H41.461"/>
<path stroke-width=".36" stroke-linecap="butt" stroke-miterlimit="3.25" stroke-linejoin="miter" fill="none" stroke="#000000" d="M39.062 207.293H43.062"/>
<text xml:space="preserve" transform="matrix(1 0 0 1 0 0)" font-size="18.72" font-family="CairoFont-1"><tspan y="212.93164" x=".70875">-</tspan></text>
<text xml:space="preserve" transform="matrix(1 0 0 1 0 0)" font-size="17.28" font-family="CairoFont-0"><tspan y="212.93164" x="13.765 22.9234 27.502602">0.4</tspan></text>
<path stroke-width=".36" stroke-linecap="butt" stroke-miterlimit="3.25" stroke-linejoin="miter" fill="none" stroke="#000000" d="M39.062 198.941H41.461"/>
<path stroke-width=".36" stroke-linecap="butt" stroke-miterlimit="3.25" stroke-linejoin="miter" fill="none" stroke="#000000" d="M39.062 190.594H41.461"/>
<path stroke-width=".36" stroke-linecap="butt" stroke-miterlimit="3.25" stroke-linejoin="miter" fill="none" stroke="#000000" d="M39.062 182.242H41.461"/>
<path stroke-width=".36" stroke-linecap="butt" stroke-miterlimit="3.25" stroke-linejoin="miter" fill="none" stroke="#000000" d="M39.062 173.895H41.461"/>
<path stroke-width=".36" stroke-linecap="butt" stroke-miterlimit="3.25" stroke-linejoin="miter" fill="none" stroke="#000000" d="M39.062 165.543H43.062"/>
<text xml:space="preserve" transform="matrix(1 0 0 1 0 0)" font-size="18.72" font-family="CairoFont-1"><tspan y="171.18328" x=".45">-</tspan></text>
<text xml:space="preserve" transform="matrix(1 0 0 1 0 0)" font-size="17.28" font-family="CairoFont-0"><tspan y="171.18328" x="13.50625 22.66465 27.24385">0.3</tspan></text>
<path stroke-width=".36" stroke-linecap="butt" stroke-miterlimit="3.25" stroke-linejoin="miter" fill="none" stroke="#000000" d="M39.062 157.195H41.461"/>
<path stroke-width=".36" stroke-linecap="butt" stroke-miterlimit="3.25" stroke-linejoin="miter" fill="none" stroke="#000000" d="M39.062 148.844H41.461"/>
<path stroke-width=".36" stroke-linecap="butt" stroke-miterlimit="3.25" stroke-linejoin="miter" fill="none" stroke="#000000" d="M39.062 140.496H41.461"/>
<path stroke-width=".36" stroke-linecap="butt" stroke-miterlimit="3.25" stroke-linejoin="miter" fill="none" stroke="#000000" d="M39.062 132.145H41.461"/>
<path stroke-width=".36" stroke-linecap="butt" stroke-miterlimit="3.25" stroke-linejoin="miter" fill="none" stroke="#000000" d="M39.062 123.793H43.062"/>
<text xml:space="preserve" transform="matrix(1 0 0 1 0 0)" font-size="18.72" font-family="CairoFont-1"><tspan y="129.43492" x=".20625">-</tspan></text>
<text xml:space="preserve" transform="matrix(1 0 0 1 0 0)" font-size="17.28" font-family="CairoFont-0"><tspan y="129.43492" x="13.2625 22.4209 27.000102">0.2</tspan></text>
<path stroke-width=".36" stroke-linecap="butt" stroke-miterlimit="3.25" stroke-linejoin="miter" fill="none" stroke="#000000" d="M39.062 115.445H41.461"/>
<path stroke-width=".36" stroke-linecap="butt" stroke-miterlimit="3.25" stroke-linejoin="miter" fill="none" stroke="#000000" d="M39.062 107.094H41.461"/>
<path stroke-width=".36" stroke-linecap="butt" stroke-miterlimit="3.25" stroke-linejoin="miter" fill="none" stroke="#000000" d="M39.062 98.746H41.461"/>
<path stroke-width=".36" stroke-linecap="butt" stroke-miterlimit="3.25" stroke-linejoin="miter" fill="none" stroke="#000000" d="M39.062 90.395H41.461"/>
<path stroke-width=".36" stroke-linecap="butt" stroke-miterlimit="3.25" stroke-linejoin="miter" fill="none" stroke="#000000" d="M39.062 82.047H43.062"/>
<text xml:space="preserve" transform="matrix(1 0 0 1 0 0)" font-size="18.72" font-family="CairoFont-1"><tspan y="87.686557" x=".9525">-</tspan></text>
<text xml:space="preserve" transform="matrix(1 0 0 1 0 0)" font-size="17.28" font-family="CairoFont-0"><tspan y="87.686557" x="14.00875 23.16715 27.746352">0.1</tspan></text>
<path stroke-width=".36" stroke-linecap="butt" stroke-miterlimit="3.25" stroke-linejoin="miter" fill="none" stroke="#000000" d="M39.062 73.695H41.461"/>
<path stroke-width=".36" stroke-linecap="butt" stroke-miterlimit="3.25" stroke-linejoin="miter" fill="none" stroke="#000000" d="M39.062 65.348H41.461"/>
<path stroke-width=".36" stroke-linecap="butt" stroke-miterlimit="3.25" stroke-linejoin="miter" fill="none" stroke="#000000" d="M39.062 56.996H41.461"/>
<path stroke-width=".36" stroke-linecap="butt" stroke-miterlimit="3.25" stroke-linejoin="miter" fill="none" stroke="#000000" d="M39.062 48.648H41.461"/>
<path stroke-width=".36" stroke-linecap="butt" stroke-miterlimit="3.25" stroke-linejoin="miter" fill="none" stroke="#000000" d="M39.062 40.297H43.062"/>
<path stroke-width=".36" stroke-linecap="butt" stroke-miterlimit="3.25" stroke-linejoin="miter" fill="none" stroke="#000000" d="M39.062 31.949H41.461"/>
<path stroke-width=".36" stroke-linecap="butt" stroke-miterlimit="3.25" stroke-linejoin="miter" fill="none" stroke="#000000" d="M39.062 252.277V29.141"/>
<path d="M29.031 5.656C29.031 5.465 28.879 5.465 28.809 5.465 28.57 5.465 28.262 5.504 28.02 5.504H27.211C26.148 5.504 25.582 5.465 25.582 5.465 25.48 5.465 25.273 5.465 25.273 5.793 25.273 5.965 25.41 5.965 25.531 5.965 26.559 6 26.629 6.395 26.629 6.703 26.629 6.855 26.629 6.91 26.559 7.148L25.031 13.242C24.434 15.645 22.441 17.051 20.828 17.051 19.594 17.051 18.75 16.23 18.75 14.805 18.75 14.734 18.75 14.219 18.941 13.465L20.621 6.719C20.777 6.137 20.812 5.965 22.027 5.965 22.34 5.965 22.512 5.965 22.512 5.656 22.512 5.465 22.355 5.465 22.25 5.465 21.945 5.465 21.582 5.504 21.258 5.504H19.234C18.906 5.504 18.547 5.465 18.219 5.465 18.098 5.465 17.895 5.465 17.895 5.793 17.895 5.965 18.012 5.965 18.34 5.965 19.371 5.965 19.371 6.102 19.371 6.293 19.371 6.395 19.25 6.891 19.164 7.184L17.668 13.191C17.621 13.379 17.516 13.844 17.516 14.305 17.516 16.195 18.871 17.551 20.742 17.551 22.477 17.551 24.398 16.176 25.273 13.996 25.395 13.703 25.547 13.105 25.652 12.641L26.957 7.492C27.18 6.602 27.316 6.031 28.824 5.965 28.965 5.949 29.031 5.809 29.031 5.656ZM29.031 5.656" fill-rule="evenodd"/>
<path d="M34.27 14.988C34.27 14.988 34.27 14.852 34.098 14.852 34.051 14.852 34.004 14.863 33.973 14.895 33.926 14.93 33.023 16.613 32.449 18.191L32.414 17.938C32.277 16.531 31.695 15.594 31.695 15.594 31.441 15.207 31.02 14.734 30.262 14.734 28.777 14.734 27.93 16.395 27.93 16.797 27.93 16.898 28.02 16.934 28.102 16.934 28.215 16.934 28.25 16.898 28.285 16.809 28.629 15.777 29.758 15.629 30.105 15.629 31.945 15.629 32.082 17.621 32.082 18.582 32.082 19.211 32.051 19.312 31.969 19.574 31.715 20.391 31.371 21.656 31.371 21.992 31.371 21.992 31.387 22.242 31.566 22.242 31.695 22.242 31.797 22.07 31.887 21.785 32.223 20.719 32.324 19.965 32.391 19.449 32.426 19.211 33.066 17.297 34.133 15.297 34.27 15.043 34.27 15.02 34.27 14.988ZM34.27 14.988" fill-rule="evenodd"/>
<path d="M41.074 21.359C41.074 21.309 41.074 21.277 40.785 20.984 39.07 19.25 38.109 16.418 38.109 12.914 38.109 9.586 38.914 6.719 40.906 4.695 41.074 4.539 41.074 4.504 41.074 4.453 41.074 4.352 40.992 4.316 40.922 4.316 40.699 4.316 39.293 5.551 38.449 7.234 37.574 8.969 37.184 10.805 37.184 12.914 37.184 14.441 37.422 16.484 38.312 18.324 39.324 20.383 40.734 21.5 40.922 21.5 40.992 21.5 41.074 21.465 41.074 21.359ZM41.074 21.359" fill-rule="evenodd"/>
<path d="M54.68 8.023C54.68 6.688 53.547 5.465 51.383 5.465H46.078C45.754 5.465 45.602 5.465 45.602 5.793 45.602 5.965 45.754 5.965 46.012 5.965 47.059 5.965 47.059 6.102 47.059 6.293 47.059 6.293 47.059 6.43 46.992 6.688L44.672 15.918C44.52 16.52 44.484 16.691 43.285 16.691 42.957 16.691 42.785 16.691 42.785 17 42.785 17.191 42.938 17.191 43.043 17.191 43.367 17.191 43.715 17.156 44.035 17.156H46.047C46.371 17.156 46.73 17.191 47.059 17.191 47.195 17.191 47.383 17.191 47.383 16.863 47.383 16.691 47.23 16.691 46.973 16.691 45.941 16.691 45.926 16.57 45.926 16.398 45.926 16.316 45.941 16.195 45.961 16.109L47.059 11.73H49.941C52.312 11.73 54.68 9.98 54.68 8.023ZM53.238 7.664C53.238 8.109 53.016 9.57 52.227 10.359 51.934 10.668 51.109 11.32 49.547 11.32H47.129L48.297 6.633C48.449 6 48.52 5.965 49.188 5.965H50.887C52.176 5.965 53.238 6.379 53.238 7.664ZM53.238 7.664" fill-rule="evenodd"/>
<path d="M60.066 12.914C60.066 11.613 59.895 9.484 58.934 7.492 57.922 5.434 56.512 4.316 56.324 4.316 56.254 4.316 56.172 4.352 56.172 4.453 56.172 4.504 56.172 4.539 56.461 4.832 58.176 6.566 59.137 9.398 59.137 12.898 59.137 16.23 58.332 19.094 56.34 21.121 56.172 21.277 56.172 21.309 56.172 21.359 56.172 21.465 56.254 21.5 56.324 21.5 56.547 21.5 57.953 20.262 58.797 18.582 59.672 16.828 60.066 14.977 60.066 12.914ZM60.066 12.914" fill-rule="evenodd"/>
<g clip-path="url(#clip_2)">
<path stroke-width="1.40361" stroke-linecap="square" stroke-miterlimit="3.25" stroke-linejoin="miter" fill="none" stroke="#0300fc" d="M423.047 52.012H436.043"/>
</g>
<path d="M452 47.719C452 47.719 451.98 47.582 451.828 47.582 451.828 47.582 451.707 47.582 451.672 47.648 451.637 47.688 451.035 48.852 450.523 50.02 450.266 50.605 449.922 51.375 449.355 52.887 449.324 52.043 449.285 50.723 448.633 49.176 448.293 48.32 447.707 47.41 446.453 47.41 444.344 47.41 443.195 50.105 443.195 50.551 443.195 50.703 443.312 50.703 443.363 50.703 443.52 50.703 443.52 50.672 443.605 50.449 443.965 49.383 445.066 48.543 446.25 48.543 448.633 48.543 448.977 51.203 448.977 52.902 448.977 53.984 448.859 54.344 448.754 54.688 448.43 55.75 447.863 57.879 447.863 58.359 447.863 58.5 447.914 58.652 448.051 58.652 448.309 58.652 448.465 58.086 448.652 57.398 449.062 55.887 449.168 55.133 449.254 54.445 449.305 54.035 450.285 51.203 451.637 48.508 451.758 48.234 452 47.77 452 47.719ZM452 47.719" fill-rule="evenodd"/>
<path d="M469.402 49.109C469.402 48.785 469.109 48.785 468.852 48.785H458.742C458.5 48.785 458.195 48.785 458.195 49.09 458.195 49.418 458.484 49.418 458.742 49.418H468.852C469.094 49.418 469.402 49.418 469.402 49.109ZM469.402 52.301C469.402 51.977 469.109 51.977 468.852 51.977H458.742C458.5 51.977 458.195 51.977 458.195 52.285 458.195 52.609 458.484 52.609 458.742 52.609H468.852C469.094 52.609 469.402 52.609 469.402 52.301ZM469.402 52.301" fill-rule="evenodd"/>
<path d="M482.957 49.488C482.957 48.062 482.871 46.672 482.25 45.367 481.547 43.941 480.312 43.566 479.469 43.566 478.477 43.566 477.258 44.062 476.621 45.488 476.141 46.57 475.969 47.633 475.969 49.488 475.969 51.152 476.09 52.406 476.707 53.621 477.375 54.926 478.562 55.34 479.453 55.34 480.945 55.34 481.805 54.445 482.305 53.453 482.922 52.164 482.957 50.48 482.957 49.488ZM481.652 49.281C481.652 50.43 481.652 51.734 481.461 52.781 481.137 54.672 480.055 54.996 479.453 54.996 478.902 54.996 477.789 54.688 477.465 52.816 477.273 51.785 477.273 50.48 477.273 49.281 477.273 47.875 477.273 46.602 477.551 45.59 477.84 44.441 478.715 43.906 479.453 43.906 480.105 43.906 481.102 44.305 481.426 45.781 481.652 46.758 481.652 48.113 481.652 49.281ZM481.652 49.281" fill-rule="evenodd"/>
<path d="M486.777 54.156C486.777 53.66 486.363 53.316 485.953 53.316 485.453 53.316 485.109 53.727 485.109 54.137 485.109 54.637 485.523 54.98 485.934 54.98 486.43 54.98 486.777 54.566 486.777 54.156ZM486.777 54.156" fill-rule="evenodd"/>
<path d="M496.059 49.488C496.059 48.062 495.973 46.672 495.355 45.367 494.648 43.941 493.414 43.566 492.574 43.566 491.578 43.566 490.359 44.062 489.727 45.488 489.242 46.57 489.074 47.633 489.074 49.488 489.074 51.152 489.191 52.406 489.809 53.621 490.48 54.926 491.664 55.34 492.555 55.34 494.051 55.34 494.91 54.445 495.406 53.453 496.023 52.164 496.059 50.48 496.059 49.488ZM494.754 49.281C494.754 50.43 494.754 51.734 494.562 52.781 494.238 54.672 493.16 54.996 492.555 54.996 492.008 54.996 490.891 54.688 490.566 52.816 490.379 51.785 490.379 50.48 490.379 49.281 490.379 47.875 490.379 46.602 490.652 45.59 490.941 44.441 491.816 43.906 492.555 43.906 493.207 43.906 494.203 44.305 494.531 45.781 494.754 46.758 494.754 48.113 494.754 49.281ZM494.754 49.281" fill-rule="evenodd"/>
<path d="M503.758 54.98V54.48H503.223C501.715 54.48 501.664 54.273 501.664 53.66V43.977C501.664 43.582 501.664 43.566 501.32 43.566 500.906 44.031 500.051 44.664 498.281 44.664V45.16C498.676 45.16 499.535 45.16 500.48 44.715V53.66C500.48 54.273 500.426 54.48 498.918 54.48H498.383V54.98C498.848 54.945 500.512 54.945 501.078 54.945 501.648 54.945 503.293 54.945 503.758 54.98ZM503.758 54.98" fill-rule="evenodd"/>
<g clip-path="url(#clip_3)">
<path stroke-width="1.40361" stroke-linecap="square" stroke-miterlimit="3.25" stroke-linejoin="miter" fill="none" stroke="#2a00d4" d="M423.047 83.5H436.043"/>
</g>
<path d="M451.996 79.207C451.996 79.207 451.98 79.07 451.824 79.07 451.824 79.07 451.703 79.07 451.672 79.137 451.637 79.172 451.035 80.34 450.523 81.508 450.262 82.09 449.922 82.863 449.355 84.371 449.32 83.531 449.285 82.211 448.633 80.664 448.289 79.809 447.703 78.898 446.453 78.898 444.34 78.898 443.191 81.594 443.191 82.039 443.191 82.191 443.312 82.191 443.363 82.191 443.52 82.191 443.52 82.16 443.602 81.938 443.965 80.871 445.062 80.031 446.246 80.031 448.633 80.031 448.977 82.691 448.977 84.391 448.977 85.473 448.855 85.832 448.754 86.176 448.426 87.238 447.859 89.367 447.859 89.848 447.859 89.984 447.91 90.141 448.051 90.141 448.305 90.141 448.461 89.574 448.648 88.887 449.062 87.375 449.164 86.621 449.25 85.934 449.301 85.523 450.281 82.691 451.637 79.996 451.758 79.723 451.996 79.258 451.996 79.207ZM451.996 79.207" fill-rule="evenodd"/>
<path d="M469.398 80.598C469.398 80.27 469.105 80.27 468.852 80.27H458.738C458.5 80.27 458.191 80.27 458.191 80.578 458.191 80.906 458.484 80.906 458.738 80.906H468.852C469.09 80.906 469.398 80.906 469.398 80.598ZM469.398 83.789C469.398 83.465 469.105 83.465 468.852 83.465H458.738C458.5 83.465 458.191 83.465 458.191 83.773 458.191 84.098 458.484 84.098 458.738 84.098H468.852C469.09 84.098 469.398 84.098 469.398 83.789ZM469.398 83.789" fill-rule="evenodd"/>
<path d="M482.953 80.977C482.953 79.551 482.867 78.16 482.25 76.855 481.543 75.43 480.309 75.055 479.469 75.055 478.473 75.055 477.254 75.551 476.621 76.977 476.137 78.059 475.969 79.121 475.969 80.977 475.969 82.641 476.086 83.895 476.703 85.109 477.375 86.414 478.559 86.828 479.449 86.828 480.945 86.828 481.805 85.934 482.301 84.941 482.918 83.652 482.953 81.969 482.953 80.977ZM481.648 80.77C481.648 81.918 481.648 83.223 481.457 84.27 481.133 86.16 480.055 86.484 479.449 86.484 478.902 86.484 477.785 86.176 477.461 84.305 477.273 83.273 477.273 81.969 477.273 80.77 477.273 79.363 477.273 78.09 477.547 77.078 477.836 75.93 478.711 75.395 479.449 75.395 480.102 75.395 481.098 75.793 481.426 77.27 481.648 78.246 481.648 79.602 481.648 80.77ZM481.648 80.77" fill-rule="evenodd"/>
<path d="M486.773 85.645C486.773 85.148 486.359 84.801 485.949 84.801 485.449 84.801 485.109 85.215 485.109 85.625 485.109 86.125 485.52 86.469 485.93 86.469 486.43 86.469 486.773 86.055 486.773 85.645ZM486.773 85.645" fill-rule="evenodd"/>
<path d="M495.918 83.582H495.539C495.488 83.875 495.352 84.82 495.18 85.094 495.059 85.25 494.082 85.25 493.566 85.25H490.391C490.855 84.855 491.902 83.758 492.348 83.344 494.957 80.941 495.918 80.047 495.918 78.348 495.918 76.375 494.355 75.055 492.367 75.055 490.375 75.055 489.207 76.754 489.207 78.23 489.207 79.105 489.965 79.105 490.012 79.105 490.375 79.105 490.82 78.848 490.82 78.297 490.82 77.816 490.492 77.492 490.012 77.492 489.859 77.492 489.824 77.492 489.773 77.508 490.102 76.34 491.027 75.551 492.141 75.551 493.602 75.551 494.496 76.77 494.496 78.348 494.496 79.809 493.652 81.078 492.676 82.176L489.207 86.055V86.469H495.473ZM495.918 83.582" fill-rule="evenodd"/>
<g clip-path="url(#clip_4)">
<path stroke-width="1.40361" stroke-linecap="square" stroke-miterlimit="3.25" stroke-linejoin="miter" fill="none" stroke="#4900b6" d="M423.047 114.988H436.043"/>
</g>
<path d="M451.996 110.695C451.996 110.695 451.98 110.559 451.824 110.559 451.824 110.559 451.703 110.559 451.672 110.625 451.637 110.66 451.035 111.828 450.523 112.996 450.262 113.578 449.922 114.352 449.355 115.859 449.32 115.02 449.285 113.699 448.633 112.152 448.289 111.297 447.703 110.387 446.453 110.387 444.34 110.387 443.191 113.082 443.191 113.527 443.191 113.68 443.312 113.68 443.363 113.68 443.52 113.68 443.52 113.648 443.602 113.426 443.965 112.359 445.062 111.52 446.246 111.52 448.633 111.52 448.977 114.18 448.977 115.879 448.977 116.961 448.855 117.32 448.754 117.664 448.426 118.727 447.859 120.855 447.859 121.336 447.859 121.473 447.91 121.629 448.051 121.629 448.305 121.629 448.461 121.062 448.648 120.375 449.062 118.863 449.164 118.109 449.25 117.422 449.301 117.012 450.281 114.18 451.637 111.484 451.758 111.211 451.996 110.746 451.996 110.695ZM451.996 110.695" fill-rule="evenodd"/>
<path d="M469.398 112.086C469.398 111.758 469.105 111.758 468.852 111.758H458.738C458.5 111.758 458.191 111.758 458.191 112.066 458.191 112.395 458.484 112.395 458.738 112.395H468.852C469.09 112.395 469.398 112.395 469.398 112.086ZM469.398 115.277C469.398 114.953 469.105 114.953 468.852 114.953H458.738C458.5 114.953 458.191 114.953 458.191 115.262 458.191 115.586 458.484 115.586 458.738 115.586H468.852C469.09 115.586 469.398 115.586 469.398 115.277ZM469.398 115.277" fill-rule="evenodd"/>
<path d="M482.953 112.465C482.953 111.039 482.867 109.648 482.25 108.344 481.543 106.918 480.309 106.543 479.469 106.543 478.473 106.543 477.254 107.039 476.621 108.465 476.137 109.547 475.969 110.609 475.969 112.465 475.969 114.129 476.086 115.383 476.703 116.598 477.375 117.902 478.559 118.316 479.449 118.316 480.945 118.316 481.805 117.422 482.301 116.43 482.918 115.141 482.953 113.457 482.953 112.465ZM481.648 112.258C481.648 113.406 481.648 114.711 481.457 115.758 481.133 117.648 480.055 117.973 479.449 117.973 478.902 117.973 477.785 117.664 477.461 115.793 477.273 114.762 477.273 113.457 477.273 112.258 477.273 110.852 477.273 109.578 477.547 108.566 477.836 107.418 478.711 106.883 479.449 106.883 480.102 106.883 481.098 107.281 481.426 108.758 481.648 109.734 481.648 111.09 481.648 112.258ZM481.648 112.258" fill-rule="evenodd"/>
<path d="M486.773 117.133C486.773 116.637 486.359 116.289 485.949 116.289 485.449 116.289 485.109 116.703 485.109 117.113 485.109 117.609 485.52 117.957 485.93 117.957 486.43 117.957 486.773 117.543 486.773 117.133ZM486.773 117.133" fill-rule="evenodd"/>
<path d="M496.297 115.09V114.594H494.562V106.781C494.562 106.457 494.562 106.367 494.32 106.367 494.184 106.367 494.133 106.367 493.996 106.574L488.828 114.594V115.09H493.344V116.652C493.344 117.285 493.309 117.457 492.055 117.457H491.715V117.957C492.105 117.922 493.465 117.922 493.941 117.922 494.426 117.922 495.797 117.922 496.191 117.957V117.457H495.848C494.613 117.457 494.562 117.285 494.562 116.652V115.09ZM493.43 114.594H489.258L493.43 108.121ZM493.43 114.594" fill-rule="evenodd"/>
<g clip-path="url(#clip_5)">
<path stroke-width="1.40361" stroke-linecap="square" stroke-miterlimit="3.25" stroke-linejoin="miter" fill="none" stroke="#60009f" d="M423.047 146.477H436.043"/>
</g>
<path d="M451.996 142.184C451.996 142.184 451.98 142.047 451.824 142.047 451.824 142.047 451.703 142.047 451.672 142.113 451.637 142.148 451.035 143.316 450.523 144.484 450.262 145.066 449.922 145.84 449.355 147.348 449.32 146.508 449.285 145.188 448.633 143.641 448.289 142.785 447.703 141.875 446.453 141.875 444.34 141.875 443.191 144.566 443.191 145.016 443.191 145.168 443.312 145.168 443.363 145.168 443.52 145.168 443.52 145.137 443.602 144.914 443.965 143.848 445.062 143.008 446.246 143.008 448.633 143.008 448.977 145.668 448.977 147.367 448.977 148.449 448.855 148.809 448.754 149.152 448.426 150.215 447.859 152.344 447.859 152.824 447.859 152.961 447.91 153.117 448.051 153.117 448.305 153.117 448.461 152.551 448.648 151.863 449.062 150.352 449.164 149.598 449.25 148.91 449.301 148.5 450.281 145.668 451.637 142.973 451.758 142.699 451.996 142.234 451.996 142.184ZM451.996 142.184" fill-rule="evenodd"/>
<path d="M469.398 143.574C469.398 143.246 469.105 143.246 468.852 143.246H458.738C458.5 143.246 458.191 143.246 458.191 143.555 458.191 143.883 458.484 143.883 458.738 143.883H468.852C469.09 143.883 469.398 143.883 469.398 143.574ZM469.398 146.766C469.398 146.441 469.105 146.441 468.852 146.441H458.738C458.5 146.441 458.191 146.441 458.191 146.75 458.191 147.074 458.484 147.074 458.738 147.074H468.852C469.09 147.074 469.398 147.074 469.398 146.766ZM469.398 146.766" fill-rule="evenodd"/>
<path d="M482.953 143.953C482.953 142.523 482.867 141.137 482.25 139.832 481.543 138.406 480.309 138.031 479.469 138.031 478.473 138.031 477.254 138.527 476.621 139.953 476.137 141.035 475.969 142.098 475.969 143.953 475.969 145.617 476.086 146.871 476.703 148.086 477.375 149.391 478.559 149.805 479.449 149.805 480.945 149.805 481.805 148.91 482.301 147.914 482.918 146.629 482.953 144.945 482.953 143.953ZM481.648 143.746C481.648 144.895 481.648 146.199 481.457 147.246 481.133 149.137 480.055 149.461 479.449 149.461 478.902 149.461 477.785 149.152 477.461 147.281 477.273 146.25 477.273 144.945 477.273 143.746 477.273 142.34 477.273 141.066 477.547 140.055 477.836 138.906 478.711 138.371 479.449 138.371 480.102 138.371 481.098 138.77 481.426 140.242 481.648 141.223 481.648 142.578 481.648 143.746ZM481.648 143.746" fill-rule="evenodd"/>
<path d="M486.773 148.621C486.773 148.121 486.359 147.777 485.949 147.777 485.449 147.777 485.109 148.191 485.109 148.602 485.109 149.098 485.52 149.445 485.93 149.445 486.43 149.445 486.773 149.031 486.773 148.621ZM486.773 148.621" fill-rule="evenodd"/>
<path d="M496.055 145.941C496.055 143.66 494.457 142.133 492.742 142.133 491.215 142.133 490.648 143.453 490.477 143.934V143.469C490.477 139.129 492.59 138.441 493.516 138.441 494.133 138.441 494.75 138.629 495.078 139.145 494.871 139.145 494.219 139.145 494.219 139.848 494.219 140.227 494.477 140.551 494.922 140.551 495.352 140.551 495.645 140.297 495.645 139.797 495.645 138.906 494.992 138.031 493.496 138.031 491.336 138.031 489.07 140.242 489.07 144.02 489.07 148.738 491.129 149.805 492.59 149.805 494.457 149.805 496.055 148.172 496.055 145.941ZM494.648 145.926C494.648 146.801 494.648 147.57 494.32 148.223 493.895 149.051 493.273 149.34 492.59 149.34 491.508 149.34 490.992 148.379 490.84 148.02 490.684 147.57 490.512 146.734 490.512 145.531 490.512 144.176 491.129 142.477 492.676 142.477 493.617 142.477 494.117 143.109 494.371 143.691 494.648 144.328 494.648 145.188 494.648 145.926ZM494.648 145.926" fill-rule="evenodd"/>
<g clip-path="url(#clip_6)">
<path stroke-width="1.40361" stroke-linecap="square" stroke-miterlimit="3.25" stroke-linejoin="miter" fill="none" stroke="#71008e" d="M423.047 177.961H436.043"/>
</g>
<path d="M451.996 173.672C451.996 173.672 451.98 173.535 451.824 173.535 451.824 173.535 451.703 173.535 451.672 173.602 451.637 173.637 451.035 174.805 450.523 175.969 450.262 176.555 449.922 177.328 449.355 178.836 449.32 177.996 449.285 176.676 448.633 175.129 448.289 174.273 447.703 173.363 446.453 173.363 444.34 173.363 443.191 176.055 443.191 176.504 443.191 176.656 443.312 176.656 443.363 176.656 443.52 176.656 443.52 176.625 443.602 176.398 443.965 175.336 445.062 174.496 446.246 174.496 448.633 174.496 448.977 177.156 448.977 178.855 448.977 179.938 448.855 180.297 448.754 180.641 448.426 181.703 447.859 183.832 447.859 184.312 447.859 184.449 447.91 184.605 448.051 184.605 448.305 184.605 448.461 184.039 448.648 183.352 449.062 181.84 449.164 181.086 449.25 180.398 449.301 179.988 450.281 177.156 451.637 174.461 451.758 174.188 451.996 173.723 451.996 173.672ZM451.996 173.672" fill-rule="evenodd"/>
<path d="M469.398 175.062C469.398 174.734 469.105 174.734 468.852 174.734H458.738C458.5 174.734 458.191 174.734 458.191 175.043 458.191 175.371 458.484 175.371 458.738 175.371H468.852C469.09 175.371 469.398 175.371 469.398 175.062ZM469.398 178.254C469.398 177.93 469.105 177.93 468.852 177.93H458.738C458.5 177.93 458.191 177.93 458.191 178.234 458.191 178.562 458.484 178.562 458.738 178.562H468.852C469.09 178.562 469.398 178.562 469.398 178.254ZM469.398 178.254" fill-rule="evenodd"/>
<path d="M482.953 175.441C482.953 174.012 482.867 172.625 482.25 171.32 481.543 169.895 480.309 169.52 479.469 169.52 478.473 169.52 477.254 170.016 476.621 171.438 476.137 172.523 475.969 173.586 475.969 175.441 475.969 177.105 476.086 178.359 476.703 179.574 477.375 180.879 478.559 181.293 479.449 181.293 480.945 181.293 481.805 180.398 482.301 179.402 482.918 178.117 482.953 176.434 482.953 175.441ZM481.648 175.234C481.648 176.383 481.648 177.688 481.457 178.734 481.133 180.625 480.055 180.949 479.449 180.949 478.902 180.949 477.785 180.641 477.461 178.77 477.273 177.738 477.273 176.434 477.273 175.234 477.273 173.828 477.273 172.555 477.547 171.543 477.836 170.395 478.711 169.859 479.449 169.859 480.102 169.859 481.098 170.258 481.426 171.73 481.648 172.711 481.648 174.066 481.648 175.234ZM481.648 175.234" fill-rule="evenodd"/>
<path d="M486.773 180.109C486.773 179.609 486.359 179.266 485.949 179.266 485.449 179.266 485.109 179.68 485.109 180.09 485.109 180.586 485.52 180.93 485.93 180.93 486.43 180.93 486.773 180.52 486.773 180.109ZM486.773 180.109" fill-rule="evenodd"/>
<path d="M496.055 178.082C496.055 176.332 494.82 175.559 493.48 174.734 494.34 174.273 495.594 173.48 495.594 172.039 495.594 170.547 494.148 169.52 492.57 169.52 490.871 169.52 489.535 170.77 489.535 172.332 489.535 172.914 489.703 173.5 490.188 174.082 490.375 174.305 490.391 174.324 491.594 175.164 489.926 175.938 489.07 177.086 489.07 178.34 489.07 180.16 490.801 181.293 492.551 181.293 494.457 181.293 496.055 179.887 496.055 178.082ZM494.887 172.059C494.887 173.105 494.133 173.945 493.137 174.496L491.148 173.191C490.926 173.035 490.238 172.59 490.238 171.746 490.238 170.633 491.402 169.93 492.551 169.93 493.789 169.93 494.887 170.82 494.887 172.059ZM495.266 178.633C495.266 179.938 493.941 180.828 492.57 180.828 491.113 180.828 489.859 179.766 489.859 178.34 489.859 177 490.84 175.918 491.953 175.402L494.031 176.762C494.477 177.055 495.266 177.582 495.266 178.633ZM495.266 178.633" fill-rule="evenodd"/>
<g clip-path="url(#clip_7)">
<path stroke-width="1.40361" stroke-linecap="square" stroke-miterlimit="3.25" stroke-linejoin="miter" fill="none" stroke="#7f0080" d="M423.047 209.449H436.043"/>
</g>
<path d="M451.996 205.16C451.996 205.16 451.977 205.023 451.82 205.023 451.82 205.023 451.703 205.023 451.668 205.09 451.633 205.125 451.031 206.293 450.52 207.457 450.262 208.043 449.918 208.816 449.352 210.324 449.316 209.484 449.281 208.164 448.629 206.617 448.289 205.762 447.703 204.852 446.449 204.852 444.34 204.852 443.191 207.543 443.191 207.992 443.191 208.145 443.309 208.145 443.359 208.145 443.516 208.145 443.516 208.109 443.602 207.887 443.961 206.824 445.062 205.984 446.246 205.984 448.629 205.984 448.973 208.645 448.973 210.344 448.973 211.426 448.855 211.785 448.75 212.125 448.426 213.191 447.859 215.32 447.859 215.801 447.859 215.938 447.91 216.094 448.047 216.094 448.305 216.094 448.457 215.527 448.648 214.84 449.059 213.328 449.164 212.574 449.25 211.887 449.301 211.473 450.277 208.645 451.633 205.949 451.754 205.676 451.996 205.211 451.996 205.16ZM451.996 205.16" fill-rule="evenodd"/>
<path d="M469.398 206.551C469.398 206.223 469.105 206.223 468.848 206.223H458.738C458.496 206.223 458.188 206.223 458.188 206.531 458.188 206.859 458.48 206.859 458.738 206.859H468.848C469.086 206.859 469.398 206.859 469.398 206.551ZM469.398 209.742C469.398 209.414 469.105 209.414 468.848 209.414H458.738C458.496 209.414 458.188 209.414 458.188 209.723 458.188 210.051 458.48 210.051 458.738 210.051H468.848C469.086 210.051 469.398 210.051 469.398 209.742ZM469.398 209.742" fill-rule="evenodd"/>
<path d="M482.297 212.418V211.922H481.766C480.254 211.922 480.203 211.715 480.203 211.098V201.418C480.203 201.023 480.203 201.008 479.859 201.008 479.445 201.469 478.59 202.105 476.82 202.105V202.602C477.219 202.602 478.074 202.602 479.02 202.156V211.098C479.02 211.715 478.969 211.922 477.457 211.922H476.926V212.418C477.387 212.387 479.055 212.387 479.621 212.387 480.188 212.387 481.832 212.387 482.297 212.418ZM482.297 212.418" fill-rule="evenodd"/>
<path d="M486.77 211.598C486.77 211.098 486.359 210.754 485.945 210.754 485.445 210.754 485.105 211.168 485.105 211.578 485.105 212.074 485.516 212.418 485.93 212.418 486.426 212.418 486.77 212.008 486.77 211.598ZM486.77 211.598" fill-rule="evenodd"/>
</g>
</svg>
