<svg xmlns="http://www.w3.org/2000/svg" xmlns:xlink="http://www.w3.org/1999/xlink" xmlns:inkscape="http://www.inkscape.org/namespaces/inkscape" version="1.1" width="415" height="306" viewBox="0 0 415 306">
<defs>
<clipPath id="clip_0">
<path d="M62.398 17H76.8V19H62.398Z"/>
</clipPath>
<clipPath id="clip_1">
<path d="M217.68 17H232.07799V19H217.68Z"/>
</clipPath>
<clipPath id="clip_2">
<path d="M197 88H198V304.55903H197Z"/>
</clipPath>
<clipPath id="clip_3">
<path d="M38.879 94H392.879V235H38.879Z"/>
</clipPath>
<clipPath id="clip_4">
<path d="M38.879 95H392.879V296H38.879Z"/>
</clipPath>
<clipPath id="clip_5">
<path d="M38 85H40V304.801H38Z"/>
</clipPath>
</defs>
<g>
<g clip-path="url(#clip_0)">
<path stroke-width="1.44" stroke-linecap="square" stroke-miterlimit="3.25" stroke-linejoin="miter" fill="none" stroke="#5e81b5" d="M63.219 18.109H76.18"/>
</g>
<path d="M91.418 17.922C91.418 16.875 91.023 16.102 90.559 15.535 89.926 14.762 89.152 14.574 88.48 14.402L86.594 13.922C85.719 13.699 84.945 12.84 84.945 11.742 84.945 10.543 85.91 9.461 87.246 9.461 90.062 9.461 90.438 12.238 90.543 12.977 90.578 13.184 90.578 13.254 90.746 13.254 90.938 13.254 90.938 13.168 90.938 12.859V9.391C90.938 9.082 90.938 8.996 90.766 8.996 90.715 8.996 90.645 8.996 90.523 9.219L89.957 10.266C89.133 9.203 88 8.996 87.246 8.996 85.34 8.996 83.949 10.523 83.949 12.273 83.949 13.098 84.242 13.852 84.879 14.539 85.477 15.211 86.078 15.363 87.297 15.672 87.898 15.809 88.844 16.051 89.082 16.152 89.891 16.547 90.422 17.477 90.422 18.438 90.422 19.723 89.512 20.941 88.09 20.941 87.312 20.941 86.25 20.754 85.41 20.016 84.414 19.121 84.344 17.887 84.328 17.32 84.312 17.184 84.141 17.184 84.141 17.184 83.949 17.184 83.949 17.27 83.949 17.578V21.047C83.949 21.355 83.949 21.438 84.121 21.438 84.227 21.438 84.242 21.406 84.363 21.199L84.93 20.172C85.547 20.855 86.629 21.438 88.105 21.438 90.027 21.438 91.418 19.809 91.418 17.922ZM91.418 17.922" fill-rule="evenodd"/>
<path d="M96.52 21.078V20.582C95.406 20.582 95.336 20.496 95.336 19.828V13.512L93 13.699V14.195C94.102 14.195 94.254 14.301 94.254 15.141V19.809C94.254 20.582 94.066 20.582 92.949 20.582V21.078C93.43 21.047 94.254 21.047 94.754 21.047 94.941 21.047 95.938 21.047 96.52 21.078ZM95.559 10.711C95.559 10.195 95.145 9.871 94.734 9.871 94.254 9.871 93.895 10.25 93.895 10.711 93.895 11.156 94.27 11.535 94.719 11.535 95.23 11.535 95.559 11.125 95.559 10.711ZM95.559 10.711" fill-rule="evenodd"/>
<path d="M110.746 21.078V20.582C109.887 20.582 109.461 20.582 109.441 20.066V16.91C109.441 15.312 109.441 14.832 109.047 14.281 108.547 13.613 107.742 13.512 107.156 13.512 105.734 13.512 105.016 14.539 104.738 15.211 104.5 13.887 103.57 13.512 102.488 13.512 100.824 13.512 100.172 14.934 100.035 15.277H100.02V13.512L97.684 13.699V14.195C98.852 14.195 98.988 14.316 98.988 15.156V19.809C98.988 20.582 98.801 20.582 97.684 20.582V21.078C98.129 21.047 99.055 21.047 99.539 21.047 100.035 21.047 100.961 21.047 101.41 21.078V20.582C100.309 20.582 100.105 20.582 100.105 19.809V16.617C100.105 14.812 101.289 13.852 102.352 13.852 103.418 13.852 103.656 14.727 103.656 15.777V19.809C103.656 20.582 103.469 20.582 102.352 20.582V21.078C102.801 21.047 103.727 21.047 104.207 21.047 104.703 21.047 105.629 21.047 106.078 21.078V20.582C104.977 20.582 104.773 20.582 104.773 19.809V16.617C104.773 14.812 105.957 13.852 107.02 13.852 108.086 13.852 108.324 14.727 108.324 15.777V19.809C108.324 20.582 108.137 20.582 107.02 20.582V21.078C107.469 21.047 108.395 21.047 108.875 21.047 109.375 21.047 110.301 21.047 110.746 21.078ZM110.746 21.078" fill-rule="evenodd"/>
<path d="M119.82 17.371C119.82 15.191 118.207 13.512 116.336 13.512 114.828 13.512 114.02 14.59 113.969 14.66V13.512L111.582 13.699V14.195C112.785 14.195 112.887 14.316 112.887 15.074V23.137C112.887 23.91 112.699 23.91 111.582 23.91V24.41C112.027 24.375 112.957 24.375 113.438 24.375 113.934 24.375 114.859 24.375 115.305 24.41V23.91C114.207 23.91 114 23.91 114 23.137V20.152C114.312 20.582 115.016 21.25 116.113 21.25 118.086 21.25 119.82 19.586 119.82 17.371ZM118.516 17.371C118.516 19.414 117.348 20.91 116.027 20.91 115.496 20.91 115 20.688 114.652 20.359 114.262 19.965 114 19.621 114 19.141V15.602C114 15.277 114 15.262 114.191 14.988 114.707 14.215 115.547 13.887 116.199 13.887 117.488 13.887 118.516 15.449 118.516 17.371ZM118.516 17.371" fill-rule="evenodd"/>
<path d="M124.719 21.078V20.582C123.621 20.582 123.414 20.582 123.414 19.809V9.168L121.027 9.355V9.855C122.195 9.855 122.332 9.973 122.332 10.816V19.809C122.332 20.582 122.145 20.582 121.027 20.582V21.078C121.508 21.047 122.348 21.047 122.863 21.047 123.379 21.047 124.234 21.047 124.719 21.078ZM124.719 21.078" fill-rule="evenodd"/>
<path d="M132.199 19.035C132.199 18.934 132.113 18.867 132.008 18.867 131.871 18.867 131.84 18.949 131.805 19.035 131.355 20.48 130.207 20.871 129.488 20.871 128.766 20.871 127.031 20.395 127.031 17.422V17.098H131.785C132.164 17.098 132.199 17.098 132.199 16.77 132.199 15.039 131.27 13.422 129.195 13.422 127.238 13.422 125.727 15.191 125.727 17.32 125.727 19.586 127.477 21.25 129.383 21.25 131.426 21.25 132.199 19.398 132.199 19.035ZM131.133 16.77H127.047C127.188 14.074 128.699 13.77 129.176 13.77 131.016 13.77 131.117 16.188 131.133 16.77ZM131.133 16.77" fill-rule="evenodd"/>
<path d="M138.742 18.898C138.742 17.973 138.176 17.422 138.02 17.27 137.402 16.738 136.938 16.633 135.809 16.43 135.293 16.324 134.039 16.086 134.039 15.055 134.039 14.523 134.398 13.734 135.945 13.734 137.812 13.734 137.918 15.328 137.953 15.863 137.969 16 138.09 16 138.141 16 138.328 16 138.328 15.914 138.328 15.602V13.82C138.328 13.512 138.328 13.422 138.156 13.422 138.02 13.422 137.695 13.801 137.574 13.957 137.043 13.527 136.512 13.422 135.961 13.422 133.883 13.422 133.266 14.559 133.266 15.504 133.266 15.688 133.266 16.289 133.918 16.891 134.469 17.371 135.051 17.492 135.84 17.645 136.785 17.836 137.008 17.887 137.438 18.23 137.746 18.488 137.969 18.867 137.969 19.344 137.969 20.086 137.539 20.91 136.031 20.91 134.898 20.91 134.074 20.258 133.695 18.539 133.629 18.23 133.609 18.195 133.609 18.195 133.574 18.129 133.508 18.129 133.457 18.129 133.266 18.129 133.266 18.215 133.266 18.52V20.855C133.266 21.164 133.266 21.25 133.438 21.25 133.523 21.25 133.543 21.234 133.832 20.871 133.918 20.754 133.918 20.719 134.176 20.445 134.828 21.25 135.754 21.25 136.047 21.25 137.852 21.25 138.742 20.258 138.742 18.898ZM138.742 18.898" fill-rule="evenodd"/>
<path d="M144.918 18.949V17.973H144.539V18.918C144.539 20.152 144.043 20.871 143.375 20.871 142.207 20.871 142.207 19.277 142.207 18.984V14.18H144.625V13.684H142.207V10.523H141.828C141.812 12.137 141.195 13.785 139.633 13.836V14.18H141.094V18.949C141.094 20.855 142.359 21.25 143.273 21.25 144.352 21.25 144.918 20.188 144.918 18.949ZM144.918 18.949" fill-rule="evenodd"/>
<path d="M160.652 21.543C161.684 21.543 162.73 20.668 164.754 18.969 165.012 18.316 165.133 17.973 165.133 17.234 165.133 15.621 164 14.504 162.113 14.504L163.641 13.422C164.188 13.031 164.77 12.859 165.406 12.602V12.223C165.168 12.309 164.91 12.379 164.652 12.41 163.57 12.41 163.828 10.18 163.312 9.668 163.02 9.375 162.609 9.305 162.215 9.305 160.91 9.305 159.625 10.215 158.75 11.125 158.285 10.18 157.273 9.219 156.277 9.219 154.68 9.219 153.547 10.281 153.137 10.695 152.652 11.176 152.262 11.691 152.262 12.379 152.262 13.543 153.719 14.645 153.719 15.125 153.719 15.688 153.082 16.254 152.621 16.516L152.875 16.703C153.445 16.43 154.988 15.641 154.988 14.402 154.988 13.598 153.461 12.359 153.461 11.793 153.461 10.766 154.148 10.301 155.125 10.301 156.207 10.301 157.836 11.398 157.836 14.18 157.836 14.988 157.77 16.203 157.719 16.754 157.668 17.234 157.34 18.215 155.195 19.465L153.066 20.719 153.273 21.078C153.992 20.633 154.852 20.258 155.727 20.258 157.082 20.258 158.816 21.543 160.652 21.543ZM159.246 15.074C159.262 14.832 159.281 14.473 159.281 14.23 159.281 13.492 159.211 12.531 159.109 12.102 159.402 11.176 159.984 10.195 161.203 10.195 161.922 10.195 162.336 10.66 162.504 11.809 162.574 12.324 162.746 13.082 163.156 13.27 161.699 14.281 160.93 14.473 159.246 15.074ZM158.645 17.527C158.973 16.891 159.141 16.203 159.211 15.504 159.641 15.312 160.102 15.227 160.566 15.227 162.145 15.227 163.672 16.379 163.672 18.074 163.672 19.176 163.039 20.445 161.754 20.445 160.414 20.445 158.488 19.07 156.637 19.07ZM158.645 17.527" fill-rule="evenodd"/>
<path d="M178.215 10.68 178.145 10.281C177.891 10.543 177.617 10.66 177.375 10.66 176.637 10.66 175.984 9.906 175.641 9.203L174.477 10.301C174.629 10.988 175.434 11.621 176.242 11.895 175.742 12.395 174.973 12.996 174.406 13.375L173.531 13.836C173.359 13.133 173.086 11.934 173.086 11.484 173.086 10.848 173.531 10.336 173.992 9.941L173.824 9.75 171.898 11.039 171.352 10.766C170.32 11.262 169.43 11.848 168.57 12.461 168.09 13.477 167.816 14.488 167.816 15.602 167.816 17.234 168.09 18.883 169.254 20.051 170.148 20.941 171.746 21.508 173.223 21.508 173.77 21.508 174.113 21.406 174.645 21.215L177.289 19.434C178.25 18.488 178.883 17.234 178.883 15.879 178.883 15.105 178.492 14.367 177.922 13.906 177.633 13.664 176.945 13.27 175.965 13.27 175.711 13.27 175.469 13.285 175.195 13.32ZM170.715 17.422C171.539 17.285 172.328 17.031 172.945 16.43 173.496 15.879 173.582 15.039 173.582 14.281 173.875 14.215 174.164 14.18 174.438 14.18 175.828 14.18 177.395 15.227 177.395 16.703 177.395 17.715 177.102 18.918 176.207 19.656 175.434 20.289 174.68 20.41 173.805 20.41 172.551 20.41 171.504 19.773 170.613 18.883 169.547 17.816 169.188 16.289 169.188 14.781 169.188 13.305 169.789 11.5 171.559 11.398 171.52 11.586 171.504 11.758 171.504 11.934 171.504 12.945 172.02 13.938 172.02 15.105 172.02 16.137 171.316 16.941 170.441 17.148ZM170.715 17.422" fill-rule="evenodd"/>
<path d="M185.863 19.52V20.289L186.637 21.543 188.746 19.656 188.625 19.434C188.387 19.586 188.199 19.688 187.836 19.809L187.219 19.035C187.203 18.246 187.203 17.477 187.203 16.688 187.203 15.52 187.289 14.352 187.457 13.199L187.32 13.098 186.172 13.684C185.605 13.559 185.055 13.32 184.578 12.996L181.676 14.812C181.418 15.98 181.332 17.199 181.332 18.402 181.332 18.918 181.332 19.449 181.367 19.965 181.848 20.562 182.344 21.148 182.859 21.699ZM185.863 19.035C184.832 19.742 184.164 20.133 183.906 20.133 183.633 20.133 182.91 19.191 182.758 19.004 182.723 18.539 182.703 18.094 182.703 17.629 182.703 16.582 182.703 15.074 183.41 14.352 184.199 14.59 185.039 14.812 185.844 14.812ZM185.863 19.035" fill-rule="evenodd"/>
<path d="M191.738 14.625V13.871C191.738 13.852 191.172 13.27 190.879 12.977L188.977 14.574 189.184 14.781 189.918 14.367 190.363 14.812C190.418 15.895 190.434 16.961 190.434 18.043 190.434 18.711 190.402 19.398 190.312 20.086L191.156 21.457 192.582 20.258C191.703 19.156 191.738 19.277 191.738 18.469V15.09L192.785 14.367C193.367 14.523 194.16 14.746 194.59 15.125 194.656 15.688 194.672 16.254 194.672 16.824 194.672 18.898 194.59 19.621 194.434 20.289 194.742 20.633 195.137 21.078 195.359 21.523L196.84 20.273C196.082 19.297 195.98 19.07 195.98 18.762V15.02C196.34 14.781 196.699 14.574 197.094 14.367 197.609 14.504 198.742 14.746 198.812 15.211 198.844 15.52 198.863 15.93 198.863 16.379 198.863 18.762 198.777 19.328 198.676 20.051 199.016 20.48 199.516 21.078 199.688 21.406L201.848 19.57 201.645 19.277C201.316 19.551 201.18 19.605 200.836 19.723 200.594 19.48 200.391 19.191 200.203 18.918V16.84C200.203 15.863 200.203 14.883 200.27 13.906 199.652 13.734 198.863 13.305 198.191 12.945 197.488 13.527 196.734 14.059 195.98 14.574V13.906C195.258 13.664 194.57 13.32 193.922 12.926ZM191.738 14.625" fill-rule="evenodd"/>
<path d="M203.402 14.797C203.246 15.809 203.16 16.824 203.16 17.852 203.16 18.438 203.18 19.035 203.246 19.621 203.832 20.34 204.516 20.977 205.203 21.613 206.215 20.992 207.176 20.309 208.102 19.586L208.016 19.312 206.75 19.98C206.66 20.016 206.422 20.016 206.352 20.035 205.668 19.723 204.688 18.918 204.637 18.676 204.586 18.539 204.551 18.383 204.551 18.23 205.543 17.441 207.023 16.066 208.207 14.934 207.449 14.402 206.75 13.785 206.18 13.062ZM204.5 17.77C204.5 16.254 204.531 14.266 204.945 14.266 204.961 14.266 204.98 14.266 204.98 14.281 205.527 14.812 206.18 15.312 206.832 15.727 206.18 16.43 205.289 17.184 204.5 17.77ZM204.5 17.77" fill-rule="evenodd"/>
<g clip-path="url(#clip_1)">
<path stroke-width="1.152" stroke-linecap="square" stroke-miterlimit="3.25" stroke-linejoin="miter" fill="none" stroke="#d9d9d9" d="M218.422 18.109H231.668"/>
</g>
<path d="M249.316 17.938C249.316 16.547 248.062 15.176 246.023 14.949 247.652 14.645 248.84 13.543 248.84 12.258 248.84 10.781 247.344 9.355 245.098 9.355H239.105V9.855H239.449C240.684 9.855 240.734 10.027 240.734 10.66V19.773C240.734 20.41 240.684 20.582 239.449 20.582H239.105V21.078H245.559C247.773 21.078 249.316 19.586 249.316 17.938ZM247.324 12.258C247.324 13.391 246.434 14.812 244.531 14.812H242.043V10.543C242.043 9.973 242.074 9.855 242.832 9.855H244.992C246.711 9.855 247.324 11.332 247.324 12.258ZM247.754 17.922C247.754 19.312 246.711 20.582 245.027 20.582H242.832C242.074 20.582 242.043 20.461 242.043 19.895V15.156H245.25C246.898 15.156 247.754 16.602 247.754 17.922ZM247.754 17.922" fill-rule="evenodd"/>
<path d="M254.574 21.078V20.582C253.477 20.582 253.27 20.582 253.27 19.809V9.168L250.887 9.355V9.855C252.055 9.855 252.191 9.973 252.191 10.816V19.809C252.191 20.582 252 20.582 250.887 20.582V21.078C251.363 21.047 252.207 21.047 252.723 21.047 253.238 21.047 254.094 21.047 254.574 21.078ZM254.574 21.078" fill-rule="evenodd"/>
<path d="M259.062 21.078V20.582C257.949 20.582 257.879 20.496 257.879 19.828V13.512L255.543 13.699V14.195C256.641 14.195 256.797 14.301 256.797 15.141V19.809C256.797 20.582 256.609 20.582 255.492 20.582V21.078C255.973 21.047 256.797 21.047 257.297 21.047 257.484 21.047 258.477 21.047 259.062 21.078ZM258.102 10.711C258.102 10.195 257.688 9.871 257.277 9.871 256.797 9.871 256.434 10.25 256.434 10.711 256.434 11.156 256.812 11.535 257.262 11.535 257.773 11.535 258.102 11.125 258.102 10.711ZM258.102 10.711" fill-rule="evenodd"/>
<path d="M268.621 21.078V20.582C267.762 20.582 267.332 20.582 267.316 20.066V16.91C267.316 15.312 267.316 14.832 266.918 14.281 266.422 13.613 265.617 13.512 265.031 13.512 263.367 13.512 262.715 14.934 262.578 15.277H262.562V13.512L260.227 13.699V14.195C261.395 14.195 261.531 14.316 261.531 15.156V19.809C261.531 20.582 261.344 20.582 260.227 20.582V21.078C260.672 21.047 261.598 21.047 262.082 21.047 262.578 21.047 263.504 21.047 263.953 21.078V20.582C262.852 20.582 262.648 20.582 262.648 19.809V16.617C262.648 14.812 263.832 13.852 264.895 13.852 265.961 13.852 266.199 14.727 266.199 15.777V19.809C266.199 20.582 266.012 20.582 264.895 20.582V21.078C265.344 21.047 266.27 21.047 266.75 21.047 267.246 21.047 268.172 21.047 268.621 21.078ZM268.621 21.078" fill-rule="evenodd"/>
<path d="M277.875 21.078V20.582C276.707 20.582 276.57 20.461 276.57 19.621V9.168L274.188 9.355V9.855C275.355 9.855 275.492 9.973 275.492 10.816V14.609C275.129 14.113 274.391 13.512 273.344 13.512 271.355 13.512 269.637 15.191 269.637 17.391 269.637 19.57 271.27 21.25 273.156 21.25 274.461 21.25 275.215 20.395 275.457 20.066V21.25ZM275.457 19.07C275.457 19.379 275.457 19.434 275.215 19.809 274.805 20.41 274.102 20.91 273.242 20.91 272.797 20.91 270.941 20.734 270.941 17.406 270.941 16.172 271.148 15.484 271.523 14.918 271.871 14.387 272.555 13.852 273.414 13.852 274.477 13.852 275.078 14.625 275.25 14.902 275.457 15.191 275.457 15.227 275.457 15.535ZM275.457 19.07" fill-rule="evenodd"/>
<path d="M296.352 16.926V16.43C295.906 16.461 294.723 16.461 294.207 16.461 293.66 16.461 292.164 16.461 291.703 16.43V16.926H292.234C293.746 16.926 293.797 17.133 293.797 17.75V18.848C293.797 20.805 291.547 20.941 291.102 20.941 289.746 20.941 286.535 20.117 286.535 15.211 286.535 10.25 289.777 9.492 290.98 9.492 292.473 9.492 294.258 10.574 294.707 13.613 294.738 13.801 294.738 13.852 294.945 13.852 295.188 13.852 295.188 13.801 295.188 13.461V9.391C295.188 9.082 295.188 8.996 295.012 8.996 294.91 8.996 294.895 9.031 294.789 9.203L293.949 10.559C293.453 9.941 292.406 8.996 290.773 8.996 287.668 8.996 284.938 11.691 284.938 15.211 284.938 18.762 287.668 21.438 290.789 21.438 292.008 21.438 293.398 21.047 294.035 19.945 294.344 20.496 294.91 21.062 295.051 21.062 295.188 21.062 295.188 20.961 295.188 20.688V17.68C295.188 17.012 295.254 16.926 296.352 16.926ZM296.352 16.926" fill-rule="evenodd"/>
<path d="M306.203 21.078V20.582C305.035 20.582 304.898 20.461 304.898 19.621V13.512L302.477 13.699V14.195C303.645 14.195 303.781 14.316 303.781 15.156V18.23C303.781 19.688 303.008 20.91 301.723 20.91 300.312 20.91 300.227 20.102 300.227 19.191V13.512L297.809 13.699V14.195C299.113 14.195 299.113 14.25 299.113 15.777V18.352C299.113 19.414 299.113 20.035 299.629 20.598 300.039 21.047 300.742 21.25 301.617 21.25 301.91 21.25 302.461 21.25 303.043 20.754 303.539 20.359 303.816 19.707 303.816 19.707V21.25ZM306.203 21.078" fill-rule="evenodd"/>
<path d="M313.605 19.035C313.605 18.934 313.52 18.867 313.414 18.867 313.277 18.867 313.242 18.949 313.211 19.035 312.762 20.48 311.613 20.871 310.891 20.871 310.172 20.871 308.438 20.395 308.438 17.422V17.098H313.191C313.57 17.098 313.605 17.098 313.605 16.77 313.605 15.039 312.676 13.422 310.602 13.422 308.645 13.422 307.133 15.191 307.133 17.32 307.133 19.586 308.883 21.25 310.789 21.25 312.832 21.25 313.605 19.398 313.605 19.035ZM312.539 16.77H308.453C308.59 14.074 310.102 13.77 310.582 13.77 312.422 13.77 312.52 16.188 312.539 16.77ZM312.539 16.77" fill-rule="evenodd"/>
<path d="M320.145 18.898C320.145 17.973 319.582 17.422 319.426 17.27 318.809 16.738 318.344 16.633 317.211 16.43 316.695 16.324 315.445 16.086 315.445 15.055 315.445 14.523 315.805 13.734 317.348 13.734 319.219 13.734 319.324 15.328 319.359 15.863 319.375 16 319.496 16 319.547 16 319.734 16 319.734 15.914 319.734 15.602V13.82C319.734 13.512 319.734 13.422 319.562 13.422 319.426 13.422 319.102 13.801 318.98 13.957 318.449 13.527 317.918 13.422 317.367 13.422 315.289 13.422 314.672 14.559 314.672 15.504 314.672 15.688 314.672 16.289 315.324 16.891 315.875 17.371 316.457 17.492 317.246 17.645 318.191 17.836 318.414 17.887 318.844 18.23 319.152 18.488 319.375 18.867 319.375 19.344 319.375 20.086 318.945 20.91 317.434 20.91 316.305 20.91 315.477 20.258 315.102 18.539 315.031 18.23 315.016 18.195 315.016 18.195 314.98 18.129 314.914 18.129 314.859 18.129 314.672 18.129 314.672 18.215 314.672 18.52V20.855C314.672 21.164 314.672 21.25 314.844 21.25 314.93 21.25 314.945 21.234 315.238 20.871 315.324 20.754 315.324 20.719 315.582 20.445 316.234 21.25 317.16 21.25 317.453 21.25 319.254 21.25 320.145 20.258 320.145 18.898ZM320.145 18.898" fill-rule="evenodd"/>
<path d="M326.77 18.898C326.77 17.973 326.203 17.422 326.051 17.27 325.43 16.738 324.969 16.633 323.836 16.43 323.32 16.324 322.066 16.086 322.066 15.055 322.066 14.523 322.426 13.734 323.973 13.734 325.844 13.734 325.945 15.328 325.98 15.863 325.996 16 326.121 16 326.168 16 326.359 16 326.359 15.914 326.359 15.602V13.82C326.359 13.512 326.359 13.422 326.188 13.422 326.051 13.422 325.723 13.801 325.605 13.957 325.07 13.527 324.539 13.422 323.992 13.422 321.914 13.422 321.297 14.559 321.297 15.504 321.297 15.688 321.297 16.289 321.949 16.891 322.496 17.371 323.078 17.492 323.871 17.645 324.812 17.836 325.039 17.887 325.469 18.23 325.773 18.488 325.996 18.867 325.996 19.344 325.996 20.086 325.566 20.91 324.059 20.91 322.926 20.91 322.102 20.258 321.723 18.539 321.656 18.23 321.637 18.195 321.637 18.195 321.605 18.129 321.535 18.129 321.484 18.129 321.297 18.129 321.297 18.215 321.297 18.52V20.855C321.297 21.164 321.297 21.25 321.465 21.25 321.551 21.25 321.57 21.234 321.863 20.871 321.949 20.754 321.949 20.719 322.203 20.445 322.855 21.25 323.785 21.25 324.078 21.25 325.879 21.25 326.77 20.258 326.77 18.898ZM326.77 18.898" fill-rule="evenodd"/>
<path d="M331.488 21.078V20.582C330.375 20.582 330.305 20.496 330.305 19.828V13.512L327.973 13.699V14.195C329.07 14.195 329.223 14.301 329.223 15.141V19.809C329.223 20.582 329.035 20.582 327.918 20.582V21.078C328.398 21.047 329.223 21.047 329.723 21.047 329.91 21.047 330.906 21.047 331.488 21.078ZM330.527 10.711C330.527 10.195 330.113 9.871 329.703 9.871 329.223 9.871 328.863 10.25 328.863 10.711 328.863 11.156 329.238 11.535 329.688 11.535 330.199 11.535 330.527 11.125 330.527 10.711ZM330.527 10.711" fill-rule="evenodd"/>
<path d="M341.047 21.078V20.582C340.188 20.582 339.762 20.582 339.742 20.066V16.91C339.742 15.312 339.742 14.832 339.348 14.281 338.848 13.613 338.043 13.512 337.457 13.512 335.793 13.512 335.141 14.934 335.004 15.277H334.988V13.512L332.652 13.699V14.195C333.82 14.195 333.957 14.316 333.957 15.156V19.809C333.957 20.582 333.77 20.582 332.652 20.582V21.078C333.098 21.047 334.023 21.047 334.508 21.047 335.004 21.047 335.93 21.047 336.379 21.078V20.582C335.277 20.582 335.074 20.582 335.074 19.809V16.617C335.074 14.812 336.258 13.852 337.32 13.852 338.387 13.852 338.625 14.727 338.625 15.777V19.809C338.625 20.582 338.438 20.582 337.32 20.582V21.078C337.77 21.047 338.695 21.047 339.176 21.047 339.672 21.047 340.598 21.047 341.047 21.078ZM341.047 21.078" fill-rule="evenodd"/>
<path d="M349.617 14.113C349.617 13.801 349.375 13.32 348.773 13.32 347.883 13.32 347.215 13.871 346.973 14.129 346.457 13.734 345.855 13.512 345.203 13.512 343.66 13.512 342.508 14.676 342.508 16 342.508 16.977 343.109 17.613 343.285 17.77 343.078 18.023 342.77 18.52 342.77 19.191 342.77 20.188 343.367 20.617 343.508 20.703 342.715 20.926 341.926 21.543 341.926 22.438 341.926 23.621 343.539 24.598 345.648 24.598 347.691 24.598 349.395 23.688 349.395 22.398 349.395 21.973 349.273 20.961 348.242 20.426 347.367 19.98 346.508 19.98 345.035 19.98 343.984 19.98 343.867 19.98 343.559 19.656 343.383 19.48 343.23 19.156 343.23 18.797 343.23 18.504 343.336 18.215 343.508 17.973 344.312 18.504 345 18.504 345.188 18.504 346.73 18.504 347.883 17.34 347.883 16.016 347.883 15.551 347.746 14.902 347.195 14.352 347.867 13.664 348.672 13.664 348.758 13.664 348.828 13.664 348.914 13.664 348.98 13.699 348.809 13.77 348.723 13.938 348.723 14.129 348.723 14.367 348.895 14.574 349.168 14.574 349.305 14.574 349.617 14.488 349.617 14.113ZM346.699 16C346.699 16.309 346.699 17.012 346.406 17.477 346.078 17.973 345.566 18.145 345.203 18.145 343.695 18.145 343.695 16.41 343.695 16.016 343.695 15.707 343.695 15.004 343.984 14.539 344.312 14.043 344.828 13.871 345.188 13.871 346.699 13.871 346.699 15.602 346.699 16ZM348.551 22.418C348.551 23.43 347.246 24.238 345.668 24.238 344.02 24.238 342.77 23.398 342.77 22.418 342.77 22.281 342.801 21.613 343.453 21.164 343.832 20.926 343.984 20.926 345.188 20.926 346.613 20.926 348.551 20.926 348.551 22.418ZM348.551 22.418" fill-rule="evenodd"/>
<g clip-path="url(#clip_2)">
<path stroke-width=".144" stroke-linecap="butt" stroke-dasharray="2.88,2.88" stroke-miterlimit="3.25" stroke-linejoin="miter" fill="none" stroke="#808080" d="M197.297 304.562V85.891"/>
</g>
<g clip-path="url(#clip_3)">
<path stroke-width="1.44" stroke-linecap="square" stroke-miterlimit="3.25" stroke-linejoin="miter" fill="none" stroke="#5e81b5" d="M39.062 95.828 39.172 96.57 39.281 97.184 39.387 97.754 39.496 98.297 39.605 98.816 39.715 99.316 39.93 100.273 40.039 100.738 40.148 101.191 40.363 102.07 40.797 103.746 40.906 104.148 41.016 104.547 41.234 105.332 41.668 106.848 42.535 109.707 42.645 110.055 42.754 110.395 42.969 111.07 43.402 112.395 44.27 114.938 46.008 119.684 46.242 120.301 46.477 120.906 46.949 122.105 47.891 124.434 49.773 128.855 53.535 136.93 53.648 137.152 53.758 137.371 53.977 137.816 54.414 138.691 55.293 140.41 57.051 143.738 60.566 149.984 67.461 160.93 74.938 171.258 81.914 179.73 89.477 187.855 96.898 194.914 103.824 200.781 111.332 206.441 118.344 211.129 125.215 215.207 132.672 219.102 139.629 222.266 147.172 225.215 147.285 225.258 147.402 225.297 147.633 225.383 148.098 225.543 149.023 225.867 150.875 226.488 154.574 227.656 154.684 227.688 154.789 227.719 155.008 227.781 155.438 227.91 156.301 228.16 158.027 228.645 161.48 229.539 161.598 229.57 161.715 229.598 161.949 229.656 162.414 229.77 163.352 229.988 165.223 230.41 165.457 230.465 165.691 230.516 167.098 230.809 168.969 231.18 169.078 231.203 169.406 231.262 169.844 231.344 170.715 231.504 172.465 231.805 172.684 231.844 172.902 231.879 173.336 231.949 174.211 232.086 175.957 232.348 176.078 232.363 176.195 232.379 176.434 232.414 177.852 232.602 179.746 232.836 179.863 232.848 179.984 232.863 180.219 232.891 180.691 232.941 181.641 233.043 183.531 233.227 183.648 233.234 183.766 233.246 183.996 233.266 185.391 233.383 185.625 233.398 185.855 233.418 186.32 233.449 187.25 233.516 187.484 233.531 187.715 233.543 188.18 233.574 188.297 233.578 188.414 233.586 188.645 233.598 189.109 233.625 189.227 233.633 189.344 233.637 189.574 233.648 190.039 233.672 190.969 233.711 191.078 233.715 191.188 233.723 191.402 233.73 191.836 233.746 192.055 233.754 192.27 233.762 192.703 233.773 192.922 233.781 193.137 233.785 193.355 233.793 193.57 233.797 193.68 233.801H193.789L194.004 233.805 194.438 233.816H194.547L194.656 233.82 194.871 233.824H195.09L195.305 233.828H195.414L195.523 233.832H195.738L195.848 233.836H196.172L196.281 233.84H198.258L198.375 233.836H198.73L198.848 233.832H199.082L199.316 233.828H199.434L199.551 233.824 199.785 233.82H199.906L200.023 233.816 200.258 233.812H200.375L200.492 233.809 200.727 233.805 200.961 233.797 201.199 233.793 201.668 233.781 202.137 233.766 202.609 233.75 203.547 233.719 203.664 233.711 203.781 233.707 204.02 233.699 204.488 233.676 205.43 233.633 205.539 233.625 205.648 233.621 205.867 233.609 206.305 233.582 207.184 233.531 207.402 233.516 207.621 233.504 208.062 233.473 208.941 233.414 209.051 233.402 209.379 233.379 209.816 233.344 210.695 233.273 212.449 233.117 212.559 233.105 212.664 233.098 212.883 233.074 214.172 232.945 216 232.742 216.109 232.727 216.324 232.703 216.754 232.652 217.613 232.543 219.336 232.316 219.57 232.285 219.801 232.254 220.27 232.188 221.203 232.051 223.07 231.762 226.805 231.125 227.023 231.086 227.238 231.047 227.676 230.965 228.547 230.797 230.289 230.453 233.773 229.711 233.891 229.684 234.012 229.656 234.246 229.602 234.719 229.496 235.664 229.277 237.551 228.82 241.328 227.848 248.746 225.691 255.66 223.383 263.164 220.555 270.164 217.609 277.031 214.43 284.48 210.648 291.43 206.801 298.961 202.273 305.996 197.699 312.895 192.875 320.375 187.246 327.359 181.594 334.926 175.008 342.355 168.035 349.285 161.031 356.797 152.816 363.812 144.473 370.688 135.535 378.148 124.73 378.586 124.059 379.02 123.379 379.891 122 381.633 119.168 381.738 118.988 381.848 118.805 382.066 118.441 382.5 117.711 383.371 116.219 385.113 113.137 385.234 112.918 385.598 112.25 386.082 111.348 387.055 109.5 387.176 109.266 387.297 109.027 387.543 108.551 388.027 107.586 389 105.59 389.242 105.074 389.484 104.555 389.969 103.492 390.09 103.219 390.211 102.949 390.457 102.395 390.941 101.258 391.062 100.969 391.184 100.672 391.426 100.07 391.914 98.816 392.035 98.492 392.156 98.156 392.398 97.461 392.52 97.094 392.641 96.715 392.762 96.305 392.883 95.828"/>
</g>
<g clip-path="url(#clip_4)">
<path stroke-width="1.152" stroke-linecap="square" stroke-miterlimit="3.25" stroke-linejoin="miter" fill="none" stroke="#d9d9d9" d="M39.062 95.828 39.172 96.629 39.281 97.309 39.387 97.938 39.496 98.539 39.605 99.121 39.715 99.68 39.93 100.762 40.039 101.285 40.148 101.797 40.363 102.801 40.797 104.719 41.016 105.641 41.234 106.543 41.668 108.301 42.535 111.645 42.645 112.051 42.754 112.453 42.969 113.246 43.402 114.809 44.27 117.832 46.008 123.531 46.242 124.273 46.477 125.012 46.949 126.465 47.891 129.305 49.773 134.742 53.535 144.82 60.566 161.535 67.461 175.961 74.938 189.934 81.914 201.695 89.477 213.258 96.898 223.562 103.824 232.336 111.332 241.023 118.344 248.41 125.215 255.023 132.672 261.535 139.629 267.023 147.172 272.352 154.574 276.988 161.48 280.793 168.969 284.379 169.188 284.473 169.406 284.57 169.844 284.762 170.715 285.133 172.465 285.859 175.957 287.223 176.078 287.27 176.195 287.312 176.434 287.398 176.906 287.574 177.852 287.914 179.746 288.566 179.863 288.609 179.984 288.648 180.219 288.727 180.691 288.883 181.641 289.188 183.531 289.773 183.766 289.844 183.996 289.914 184.461 290.051 185.391 290.316 187.25 290.828 187.484 290.891 187.715 290.949 188.18 291.07 189.109 291.305 190.969 291.75 191.078 291.773 191.188 291.801 191.402 291.848 191.836 291.945 192.703 292.137 194.438 292.492 194.547 292.516 194.656 292.535 194.871 292.578 195.305 292.664 196.172 292.824 197.906 293.125 198.375 293.203 198.848 293.277 199.785 293.422 199.906 293.441 200.023 293.457 200.258 293.492 200.727 293.559 201.668 293.684 202.137 293.746 202.609 293.805 203.547 293.918 205.43 294.113 205.648 294.137 206.305 294.195 207.184 294.27 207.293 294.277 207.402 294.289 207.621 294.305 208.062 294.336 208.941 294.398 209.051 294.406 209.16 294.41 209.379 294.426 209.816 294.449 209.926 294.457 210.035 294.461 210.258 294.473 210.695 294.496 210.805 294.5 210.914 294.508 211.133 294.516 211.574 294.535 212.559 294.57 212.664 294.574 212.883 294.582H212.988L213.098 294.586 213.312 294.594H213.418L213.527 294.598 213.742 294.602 213.848 294.605H213.957L214.172 294.609H214.281L214.387 294.613H214.496L214.602 294.617H214.816L214.926 294.621H215.355L215.461 294.625H216.43L216.539 294.621H216.969L217.078 294.617H217.293L217.398 294.613H217.613L217.723 294.609H217.828L218.043 294.605 218.152 294.602H218.258L218.477 294.594H218.582L218.691 294.59 218.906 294.586 219.336 294.574 219.57 294.566 219.801 294.559 220.27 294.539 220.504 294.531 220.734 294.52 221.203 294.5 221.32 294.492 221.438 294.488 221.668 294.477 222.137 294.449 223.07 294.395 223.305 294.379 223.535 294.363 224.004 294.328 224.938 294.258 225.055 294.246 225.172 294.238 225.402 294.215 225.871 294.176 226.805 294.086 226.914 294.074 227.023 294.066 227.238 294.043 227.676 293.996 228.547 293.898 228.766 293.875 228.98 293.848 229.418 293.797 230.289 293.684 230.398 293.668 230.508 293.656 230.727 293.625 231.16 293.566 232.031 293.441 233.773 293.172 233.891 293.152 234.012 293.133 234.246 293.09 234.719 293.012 235.664 292.844 237.551 292.484 237.668 292.461 237.789 292.438 238.023 292.391 238.496 292.293 239.441 292.094 241.328 291.668 241.445 291.641 241.559 291.613 241.793 291.559 242.254 291.449 243.184 291.219 245.035 290.738 248.746 289.676 248.852 289.641 248.961 289.609 249.176 289.543 249.609 289.41 250.473 289.137 252.203 288.566 255.66 287.344 256.129 287.172 256.598 286.996 257.535 286.633 259.414 285.891 263.164 284.297 270.164 280.949 277.031 277.188 284.48 272.551 291.43 267.684 298.961 261.797 305.996 255.695 312.895 249.121 320.375 241.281 327.359 233.258 334.926 223.723 342.355 213.43 349.285 202.895 356.797 190.312 363.812 177.289 370.688 163.059 378.148 145.484 378.367 144.93 378.586 144.371 379.02 143.25 379.891 140.969 381.633 136.258 381.738 135.957 382.066 135.043 382.5 133.816 383.371 131.32 385.113 126.113 385.355 125.363 385.598 124.605 386.082 123.07 387.055 119.914 387.176 119.512 387.297 119.105 387.543 118.289 388.027 116.625 389 113.172 389.242 112.281 389.484 111.375 389.969 109.52 390.09 109.047 390.211 108.566 390.457 107.598 390.941 105.598 391.062 105.082 391.184 104.562 391.426 103.496 391.547 102.953 391.672 102.398 391.914 101.262 392.035 100.672 392.156 100.074 392.398 98.816 392.52 98.156 392.641 97.461 392.762 96.715 392.883 95.828"/>
</g>
<path stroke-width=".36" stroke-linecap="butt" stroke-miterlimit="3.25" stroke-linejoin="miter" fill="none" stroke="#000000" d="M39.062 95.828V91.828"/>
<path stroke-width=".36" stroke-linecap="butt" stroke-miterlimit="3.25" stroke-linejoin="miter" fill="none" stroke="#000000" d="M215.973 95.828V91.828"/>
<text xml:space="preserve" transform="matrix(1 0 0 1 0 0)" font-size="17.28" font-family="CairoFont-0"><tspan y="113.589778" x="204.05031 213.20871 217.7879">0.5</tspan></text>
<path stroke-width=".36" stroke-linecap="butt" stroke-miterlimit="3.25" stroke-linejoin="miter" fill="none" stroke="#000000" d="M392.883 95.828V91.828"/>
<text xml:space="preserve" transform="matrix(1 0 0 1 0 0)" font-size="17.28" font-family="CairoFont-0"><tspan y="113.589778" x="388.30564">1</tspan></text>
<path stroke-width=".36" stroke-linecap="butt" stroke-miterlimit="3.25" stroke-linejoin="miter" fill="none" stroke="#000000" d="M39.062 95.828H392.883"/>
<path d="M412.785 90.797C412.785 89.457 411.652 88.238 409.492 88.238H404.188C403.859 88.238 403.707 88.238 403.707 88.566 403.707 88.738 403.859 88.738 404.117 88.738 405.164 88.738 405.164 88.875 405.164 89.062 405.164 89.062 405.164 89.203 405.098 89.457L402.781 98.691C402.625 99.293 402.59 99.465 401.391 99.465 401.062 99.465 400.891 99.465 400.891 99.773 400.891 99.961 401.047 99.961 401.148 99.961 401.477 99.961 401.82 99.93 402.145 99.93H404.152C404.477 99.93 404.84 99.961 405.164 99.961 405.301 99.961 405.492 99.961 405.492 99.637 405.492 99.465 405.336 99.465 405.078 99.465 404.047 99.465 404.031 99.344 404.031 99.172 404.031 99.086 404.047 98.969 404.066 98.879L405.164 94.504H408.047C410.418 94.504 412.785 92.754 412.785 90.797ZM411.344 90.438C411.344 90.883 411.121 92.344 410.332 93.133 410.039 93.441 409.215 94.094 407.652 94.094H405.234L406.402 89.406C406.555 88.773 406.625 88.738 407.293 88.738H408.992C410.281 88.738 411.344 89.148 411.344 90.438ZM411.344 90.438" fill-rule="evenodd"/>
<path stroke-width=".36" stroke-linecap="butt" stroke-miterlimit="3.25" stroke-linejoin="miter" fill="none" stroke="#000000" d="M39.062 95.828H43.062"/>
<text xml:space="preserve" transform="matrix(1 0 0 1 0 0)" font-size="17.28" font-family="CairoFont-0"><tspan y="101.46978" x="26.95">0</tspan></text>
<path stroke-width=".36" stroke-linecap="butt" stroke-miterlimit="3.25" stroke-linejoin="miter" fill="none" stroke="#000000" d="M39.062 195.227H43.062"/>
<text xml:space="preserve" transform="matrix(1 0 0 1 0 0)" font-size="18.72" font-family="CairoFont-1"><tspan y="200.86702" x="0">-</tspan></text>
<text xml:space="preserve" transform="matrix(1 0 0 1 0 0)" font-size="17.28" font-family="CairoFont-0"><tspan y="200.86702" x="13.05625 22.21465 26.79385">0.5</tspan></text>
<path stroke-width=".36" stroke-linecap="butt" stroke-miterlimit="3.25" stroke-linejoin="miter" fill="none" stroke="#000000" d="M39.062 294.625H43.062"/>
<text xml:space="preserve" transform="matrix(1 0 0 1 0 0)" font-size="18.72" font-family="CairoFont-1"><tspan y="300.26429" x="14.68875">-</tspan></text>
<text xml:space="preserve" transform="matrix(1 0 0 1 0 0)" font-size="17.28" font-family="CairoFont-0"><tspan y="300.26429" x="27.745">1</tspan></text>
<g clip-path="url(#clip_5)">
<path stroke-width=".36" stroke-linecap="butt" stroke-miterlimit="3.25" stroke-linejoin="miter" fill="none" stroke="#000000" d="M39.062 304.562V85.891"/>
</g>
<path d="M25.445 52.223C25.445 52.152 25.41 52.051 25.375 51.996L19.645 40.395C19.523 40.156 19.488 40.086 19.25 40.086 18.992 40.086 18.957 40.156 18.836 40.395L13.102 51.996C13.07 52.051 13.035 52.152 13.035 52.223 13.035 52.324 13.055 52.344 13.395 52.344H25.086C25.426 52.344 25.445 52.324 25.445 52.223ZM23.402 51.16H14.047L18.715 41.668ZM23.402 51.16" fill-rule="evenodd"/>
<path d="M38.328 47.863C38.328 47.691 38.156 47.691 38.105 47.691 37.812 47.691 37.488 47.727 37.18 47.727H36.254L34.074 47.691C33.918 47.691 33.711 47.691 33.711 48 33.711 48.172 33.852 48.188 33.852 48.188H34.281C35.633 48.188 35.633 48.324 35.633 48.582 35.633 48.582 35.309 50.332 34.98 50.848 34.332 51.809 32.977 52.203 31.961 52.203 30.641 52.203 28.496 51.52 28.496 48.547 28.496 47.398 28.906 44.773 30.57 42.832 31.652 41.598 33.25 40.754 34.758 40.754 36.785 40.754 37.504 42.492 37.504 44.07 37.504 44.344 37.438 44.723 37.438 44.961 37.438 45.117 37.609 45.117 37.66 45.117 37.852 45.117 37.867 45.102 37.934 44.789L39.016 40.414C39.016 40.258 38.863 40.258 38.863 40.258 38.863 40.258 38.758 40.258 38.621 40.43L37.438 41.855C37.352 41.719 37.008 41.117 36.34 40.723 35.602 40.258 34.863 40.258 34.605 40.258 30.934 40.258 27.07 44 27.07 48.051 27.07 50.883 29.027 52.703 31.602 52.703 32.836 52.703 34.398 52.289 35.258 51.207 35.445 51.859 35.824 52.324 35.945 52.324 36.031 52.324 36.062 52.273 36.062 52.273 36.082 52.238 36.219 51.637 36.305 51.328L36.578 50.23 36.906 48.91C37.074 48.258 37.109 48.203 38.055 48.188 38.125 48.188 38.328 48.188 38.328 47.863ZM38.328 47.863" fill-rule="evenodd"/>
<path d="M45.18 56.512C45.18 56.461 45.18 56.426 44.891 56.137 43.172 54.398 42.211 51.57 42.211 48.066 42.211 44.738 43.016 41.871 45.008 39.848 45.18 39.691 45.18 39.656 45.18 39.605 45.18 39.504 45.094 39.469 45.027 39.469 44.805 39.469 43.395 40.703 42.555 42.387 41.68 44.121 41.285 45.957 41.285 48.066 41.285 49.594 41.523 51.637 42.418 53.477 43.43 55.535 44.836 56.648 45.027 56.648 45.094 56.648 45.18 56.617 45.18 56.512ZM45.18 56.512" fill-rule="evenodd"/>
<path d="M58.785 43.176C58.785 41.84 57.648 40.617 55.488 40.617H50.184C49.855 40.617 49.703 40.617 49.703 40.945 49.703 41.117 49.855 41.117 50.117 41.117 51.16 41.117 51.16 41.254 51.16 41.445 51.16 41.445 51.16 41.582 51.094 41.84L48.777 51.07C48.621 51.672 48.586 51.844 47.387 51.844 47.059 51.844 46.891 51.844 46.891 52.152 46.891 52.344 47.043 52.344 47.145 52.344 47.473 52.344 47.816 52.309 48.141 52.309H50.148C50.477 52.309 50.836 52.344 51.16 52.344 51.297 52.344 51.488 52.344 51.488 52.016 51.488 51.844 51.336 51.844 51.074 51.844 50.047 51.844 50.031 51.723 50.031 51.551 50.031 51.465 50.047 51.348 50.062 51.258L51.16 46.883H54.047C56.414 46.883 58.785 45.133 58.785 43.176ZM57.34 42.816C57.34 43.262 57.117 44.723 56.328 45.512 56.035 45.82 55.215 46.473 53.648 46.473H51.23L52.398 41.785C52.551 41.152 52.621 41.117 53.289 41.117H54.988C56.277 41.117 57.34 41.531 57.34 42.816ZM57.34 42.816" fill-rule="evenodd"/>
<path d="M64.168 48.066C64.168 46.766 63.996 44.637 63.035 42.645 62.023 40.586 60.613 39.469 60.426 39.469 60.359 39.469 60.273 39.504 60.273 39.605 60.273 39.656 60.273 39.691 60.562 39.984 62.281 41.719 63.238 44.547 63.238 48.051 63.238 51.383 62.434 54.246 60.445 56.273 60.273 56.426 60.273 56.461 60.273 56.512 60.273 56.617 60.359 56.648 60.426 56.648 60.648 56.648 62.059 55.414 62.898 53.73 63.773 51.98 64.168 50.129 64.168 48.066ZM64.168 48.066" fill-rule="evenodd"/>
<path stroke-width=".688232" stroke-linecap="square" stroke-miterlimit="10" stroke-linejoin="miter" fill="none" stroke="#000000" d="M12.234 59.723H65.891"/>
<path d="M21.688 75.812V75.312C20.586 75.312 20.383 75.312 20.383 74.539V63.898L17.996 64.086V64.586C19.164 64.586 19.301 64.707 19.301 65.547V74.539C19.301 75.312 19.113 75.312 17.996 75.312V75.812C18.477 75.777 19.316 75.777 19.832 75.777 20.348 75.777 21.203 75.777 21.688 75.812ZM21.688 75.812" fill-rule="evenodd"/>
<path d="M29.914 72.137C29.914 69.922 28.23 68.156 26.242 68.156 24.184 68.156 22.551 69.977 22.551 72.137 22.551 74.336 24.27 75.98 26.223 75.98 28.25 75.98 29.914 74.301 29.914 72.137ZM28.609 71.984C28.609 72.586 28.609 73.648 28.164 74.453 27.684 75.277 26.895 75.605 26.242 75.605 25.605 75.605 24.836 75.328 24.336 74.488 23.871 73.715 23.855 72.703 23.855 71.984 23.855 71.332 23.855 70.285 24.387 69.512 24.867 68.773 25.621 68.5 26.223 68.5 26.895 68.5 27.613 68.809 28.078 69.477 28.609 70.266 28.609 71.348 28.609 71.984ZM28.609 71.984" fill-rule="evenodd"/>
<path d="M38.684 68.844C38.684 68.531 38.445 68.055 37.844 68.055 36.949 68.055 36.281 68.602 36.043 68.859 35.527 68.465 34.926 68.242 34.273 68.242 32.73 68.242 31.578 69.406 31.578 70.73 31.578 71.711 32.18 72.344 32.352 72.5 32.145 72.754 31.836 73.254 31.836 73.922 31.836 74.918 32.438 75.348 32.574 75.434 31.785 75.656 30.996 76.273 30.996 77.168 30.996 78.352 32.609 79.328 34.719 79.328 36.762 79.328 38.461 78.422 38.461 77.133 38.461 76.703 38.34 75.691 37.309 75.16 36.434 74.715 35.578 74.715 34.102 74.715 33.055 74.715 32.934 74.715 32.625 74.387 32.453 74.215 32.301 73.891 32.301 73.527 32.301 73.238 32.402 72.945 32.574 72.703 33.379 73.238 34.066 73.238 34.258 73.238 35.801 73.238 36.949 72.07 36.949 70.746 36.949 70.285 36.812 69.633 36.266 69.082 36.934 68.395 37.738 68.395 37.824 68.395 37.895 68.395 37.98 68.395 38.051 68.43 37.879 68.5 37.793 68.672 37.793 68.859 37.793 69.102 37.961 69.309 38.238 69.309 38.375 69.309 38.684 69.219 38.684 68.844ZM35.766 70.73C35.766 71.039 35.766 71.742 35.473 72.207 35.148 72.703 34.633 72.875 34.273 72.875 32.762 72.875 32.762 71.145 32.762 70.746 32.762 70.438 32.762 69.734 33.055 69.27 33.379 68.773 33.895 68.602 34.258 68.602 35.766 68.602 35.766 70.336 35.766 70.73ZM37.621 77.148C37.621 78.16 36.316 78.969 34.734 78.969 33.09 78.969 31.836 78.129 31.836 77.148 31.836 77.012 31.871 76.344 32.523 75.895 32.902 75.656 33.055 75.656 34.258 75.656 35.68 75.656 37.621 75.656 37.621 77.148ZM37.621 77.148" fill-rule="evenodd"/>
<path d="M44.746 79.98C44.746 79.93 44.746 79.895 44.457 79.605 42.742 77.871 41.781 75.039 41.781 71.535 41.781 68.207 42.586 65.34 44.578 63.316 44.746 63.16 44.746 63.125 44.746 63.074 44.746 62.973 44.66 62.938 44.594 62.938 44.371 62.938 42.965 64.172 42.121 65.855 41.246 67.59 40.852 69.426 40.852 71.535 40.852 73.062 41.09 75.105 41.984 76.945 42.996 79.004 44.406 80.117 44.594 80.117 44.66 80.117 44.746 80.086 44.746 79.98ZM44.746 79.98" fill-rule="evenodd"/>
<path d="M53.348 72.926H52.969C52.918 73.219 52.777 74.164 52.609 74.438 52.488 74.59 51.508 74.59 50.996 74.59H47.82C48.281 74.199 49.332 73.102 49.777 72.688 52.387 70.285 53.348 69.391 53.348 67.691 53.348 65.719 51.785 64.398 49.793 64.398 47.801 64.398 46.637 66.098 46.637 67.574 46.637 68.449 47.391 68.449 47.441 68.449 47.801 68.449 48.25 68.191 48.25 67.641 48.25 67.16 47.922 66.836 47.441 66.836 47.289 66.836 47.25 66.836 47.203 66.852 47.527 65.684 48.453 64.895 49.57 64.895 51.027 64.895 51.922 66.113 51.922 67.691 51.922 69.152 51.082 70.422 50.102 71.52L46.637 75.398V75.812H52.898ZM53.348 72.926" fill-rule="evenodd"/>
<path d="M58.984 71.535C58.984 70.234 58.812 68.105 57.852 66.113 56.84 64.055 55.43 62.938 55.242 62.938 55.176 62.938 55.09 62.973 55.09 63.074 55.09 63.125 55.09 63.16 55.379 63.453 57.098 65.188 58.059 68.02 58.059 71.52 58.059 74.852 57.25 77.715 55.262 79.742 55.09 79.895 55.09 79.93 55.09 79.98 55.09 80.086 55.176 80.117 55.242 80.117 55.465 80.117 56.875 78.883 57.715 77.199 58.59 75.449 58.984 73.598 58.984 71.535ZM58.984 71.535" fill-rule="evenodd"/>
</g>
</svg>
