<svg xmlns="http://www.w3.org/2000/svg" xmlns:xlink="http://www.w3.org/1999/xlink" xmlns:inkscape="http://www.inkscape.org/namespaces/inkscape" version="1.1" width="502" height="408" viewBox="0 0 502 408">
<defs>
<clipPath id="clip_0">
<path d="M422.16 141H436.558V143H422.16Z"/>
</clipPath>
<clipPath id="clip_1">
<path d="M422.16 172H436.558V175H422.16Z"/>
</clipPath>
<clipPath id="clip_2">
<path d="M422.16 204H436.558V206H422.16Z"/>
</clipPath>
<clipPath id="clip_3">
<path d="M422.16 235H436.558V238H422.16Z"/>
</clipPath>
<clipPath id="clip_4">
<path d="M422.16 267H436.558V269H422.16Z"/>
</clipPath>
</defs>
<g>
<path stroke-width="2.620558" stroke-linecap="square" stroke-miterlimit="3.25" stroke-linejoin="miter" fill="none" stroke="#2b00d4" d="M26.008 384.922H42.047L42.492 384.918H59.598L59.715 384.914H63.332L64.215 384.91H66.875L67.762 384.906H68.645L69.531 384.902H70.492L71.453 384.898H71.934L72.41 384.895H73.371L73.492 384.891H74.332L75.293 384.887H75.531L75.773 384.883H76.254L77.211 384.879 77.332 384.875H77.684L78.156 384.871 79.098 384.867H79.332L79.57 384.863H80.039L80.984 384.855H81.219L81.453 384.852 81.926 384.848 82.867 384.84 84.754 384.824H84.863L84.973 384.82H85.191L85.633 384.816 86.512 384.805H86.73L86.953 384.801 87.391 384.797 88.27 384.785 88.379 384.781H88.488L88.711 384.777 89.148 384.773 90.027 384.758 91.789 384.73 91.906 384.727H92.027L92.266 384.723 92.742 384.711 93.695 384.695 93.812 384.691 93.934 384.688 94.172 384.684 94.648 384.672 95.602 384.652 95.719 384.648 95.84 384.645 96.078 384.641 96.555 384.629 99.414 384.547 99.527 384.543 99.637 384.539 101.195 384.484 101.305 384.48 101.418 384.477 101.641 384.469 102.086 384.449 102.977 384.414 103.195 384.406 103.418 384.395 104.754 384.336 106.535 384.246 106.645 384.238 106.754 384.234 106.973 384.223 107.406 384.195 108.281 384.145 108.391 384.137 108.5 384.133 108.715 384.117 109.152 384.09 110.023 384.031 110.898 383.969 111.77 383.902 113.516 383.762 113.633 383.75 113.754 383.738 113.988 383.719 114.461 383.676 115.41 383.582 115.645 383.559 115.883 383.535 116.355 383.488 117.301 383.383 117.422 383.371 117.539 383.355 117.777 383.332 119.195 383.156 121.09 382.902 121.309 382.871 121.531 382.84 121.973 382.773 122.855 382.633 124.621 382.336 124.734 382.312 125.062 382.254 125.508 382.172 126.391 382 128.156 381.625 128.277 381.598 128.395 381.57 128.637 381.516 129.113 381.406 130.07 381.172 131.984 380.664 132.105 380.629 132.227 380.598 132.465 380.527 132.945 380.387 133.902 380.094 135.816 379.453 135.934 379.414 136.285 379.285 136.758 379.113 137.695 378.754 139.578 377.973 139.812 377.871 140.047 377.766 140.516 377.551 141.457 377.105 143.336 376.141 143.445 376.082 143.555 376.02 143.773 375.898 144.215 375.652 145.09 375.145 146.844 374.047 146.953 373.973 147.062 373.902 147.719 373.457 148.598 372.84 150.352 371.516 150.469 371.422 150.59 371.324 150.824 371.133 151.301 370.742 152.254 369.934 154.152 368.184 154.273 368.07 154.391 367.953 154.629 367.723 155.105 367.246 156.055 366.262 157.957 364.141 158.066 364.012 158.18 363.879 158.402 363.617 158.844 363.082 159.73 361.977 161.508 359.617 161.617 359.461 161.73 359.309 161.949 358.996 162.395 358.359 163.281 357.051 165.059 354.266 165.176 354.066 165.539 353.469 166.02 352.656 166.98 350.98 168.902 347.406 169.023 347.176 169.145 346.938 169.383 346.465 169.867 345.508 170.828 343.527 172.75 339.324 172.867 339.059 172.988 338.789 173.223 338.242 173.695 337.141 174.641 334.875 176.527 330.09 180.305 319.484 180.414 319.156 180.523 318.824 180.746 318.156 181.184 316.809 182.066 314.059 183.828 308.32 187.352 295.941 187.469 295.5 187.59 295.059 187.828 294.172 188.305 292.383 189.262 288.738 191.172 281.215 194.992 265.285 202.125 233.176 209.117 200.496 216.703 166.379 216.812 165.906 216.926 165.434 217.145 164.488 217.59 162.613 218.473 158.898 220.242 151.656 223.781 137.969 223.902 137.527 224.023 137.082 224.262 136.203 224.742 134.457 225.699 131.031 227.617 124.445 227.859 123.648 228.098 122.855 228.578 121.289 229.539 118.223 231.457 112.363 231.574 112.016 231.926 110.984 232.398 109.621 233.34 106.969 235.223 101.918 235.34 101.613 235.457 101.312 235.691 100.707 236.164 99.52 237.105 97.207 238.988 92.828 239.098 92.582 239.207 92.34 239.426 91.852 239.867 90.895 240.746 89.031 242.5 85.5 242.613 85.289 242.941 84.656 243.379 83.832 244.258 82.223 246.016 79.191 246.133 78.996 246.254 78.801 246.492 78.41 246.969 77.645 247.918 76.164 249.824 73.395 249.945 73.23 250.062 73.066 250.301 72.738 250.777 72.098 251.73 70.859 253.633 68.551 253.746 68.422 253.855 68.297 254.078 68.043 254.523 67.547 255.414 66.582 257.191 64.781 257.301 64.676 257.414 64.57 257.637 64.359 258.078 63.941 258.969 63.141 260.746 61.641 260.855 61.555 260.965 61.465 261.184 61.293 261.617 60.957 262.488 60.301 264.234 59.082 264.344 59.008 264.449 58.938 264.668 58.793 265.105 58.512 265.977 57.969 267.719 56.961 267.836 56.895 267.957 56.832 268.191 56.703 268.664 56.453 269.609 55.973 271.504 55.082 271.621 55.027 271.738 54.977 271.977 54.871 272.449 54.668 273.395 54.281 275.285 53.562 275.395 53.523 275.508 53.484 275.727 53.406 276.168 53.254 277.051 52.961 278.816 52.418 279.035 52.355 279.258 52.293 279.699 52.168 280.578 51.93 282.344 51.492 282.465 51.465 282.582 51.438 282.824 51.383 283.301 51.273 284.258 51.066 284.379 51.043 284.496 51.016 284.734 50.969 285.215 50.871 286.172 50.688 286.289 50.668 286.41 50.645 286.648 50.602 287.129 50.516 288.082 50.352 289.996 50.055 290.109 50.039 290.219 50.023 290.445 49.992 290.891 49.93 291.785 49.809 293.57 49.586 293.68 49.574 293.793 49.562 294.016 49.535 294.465 49.488 295.355 49.391 297.145 49.219 297.254 49.207 297.363 49.199 298.02 49.141 298.895 49.066 299.004 49.059 299.113 49.047 299.332 49.031 299.77 48.996 300.645 48.93 301.082 48.898 301.52 48.871 302.398 48.812 304.148 48.707 304.266 48.699 304.387 48.691 304.625 48.68 305.098 48.652 306.047 48.605 306.168 48.598 306.285 48.594 307 48.559 307.949 48.516 308.184 48.508 308.422 48.496 308.898 48.477 309.848 48.441 311.746 48.375 311.859 48.371 311.969 48.367 312.191 48.359 312.633 48.348 313.52 48.32 313.633 48.316 313.742 48.312 313.965 48.309 314.406 48.297 315.293 48.273 315.406 48.27 315.516 48.266 315.738 48.262 316.18 48.25 317.066 48.23 318.84 48.195 318.961 48.191H319.078L319.32 48.188 319.801 48.18 320.762 48.16H320.883L321 48.156 321.242 48.152 321.723 48.148 322.684 48.133H322.801L322.922 48.129 323.164 48.125 323.645 48.121 324.605 48.109 326.527 48.09 326.645 48.086H326.762L326.996 48.082 327.469 48.078 328.41 48.07H328.648L328.883 48.066 329.355 48.062 330.297 48.059 330.418 48.055H330.77L331.242 48.051 332.184 48.043H332.656L333.129 48.039 334.07 48.035H334.289L334.512 48.031H334.949L335.832 48.027H336.051L336.27 48.023H336.711L337.59 48.02H338.031L338.469 48.016H339.461L339.57 48.012H340.23L341.109 48.008H342.062L343.02 48.004H345.047L345.164 48H347.789L348.742 47.996H353.305L353.418 47.992H385.398"/>
<path stroke-width="2.620558" stroke-linecap="square" stroke-miterlimit="3.25" stroke-linejoin="miter" fill="none" stroke="#5500aa" d="M26.008 384.922H26.117L26.227 384.918H27.219L27.328 384.914H27.551L27.77 384.91H27.992L28.211 384.906H28.43L28.652 384.902 28.762 384.898H28.871L29.094 384.895 29.535 384.887H29.645L29.754 384.883 29.973 384.879 30.414 384.867H30.527L30.855 384.855 31.297 384.844 31.406 384.84H31.516L31.738 384.832 33.062 384.785 33.18 384.781 33.301 384.777 33.539 384.766 34.016 384.746 34.973 384.699 35.094 384.695 35.211 384.688 35.449 384.676 35.93 384.648 36.883 384.594 37.125 384.578 37.84 384.531 38.797 384.461 40.707 384.309 40.82 384.297 40.93 384.289 41.156 384.27 41.602 384.227 42.492 384.145 44.277 383.957 44.391 383.945 44.504 383.93 44.727 383.906 45.172 383.855 46.062 383.746 47.848 383.516 48.285 383.453 48.723 383.395 49.598 383.266 51.352 382.992 51.461 382.973 51.57 382.957 51.789 382.918 52.227 382.848 53.102 382.695 54.852 382.375 55.086 382.328 55.801 382.188 56.75 381.996 58.648 381.59 58.766 381.566 58.883 381.539 59.598 381.375 60.547 381.152 62.445 380.684 62.664 380.629 63.332 380.453 64.215 380.219 65.988 379.723 69.531 378.641 69.773 378.562 70.012 378.484 70.492 378.328 71.453 378.004 73.371 377.332 77.211 375.867 77.332 375.82 77.684 375.68 78.156 375.484 79.098 375.094 80.984 374.277 84.754 372.527 91.789 368.816 99.414 364.094 106.535 358.984 113.516 353.293 121.09 346.312 128.156 339.027 135.816 330.273 143.336 320.82 150.352 311.246 157.957 300.074 165.059 288.953 172.75 276.23 180.305 263.145 187.352 250.508 194.992 236.469 202.125 223.16 209.117 210.055 216.703 195.906 223.781 182.895 231.457 169.141 238.988 156.113 246.016 144.492 253.633 132.551 260.746 122.102 267.719 112.551 275.285 103 282.344 94.867 289.996 86.91 297.145 80.27 304.148 74.48 311.746 68.98 318.84 64.543 318.961 64.473 319.078 64.402 319.32 64.266 319.801 63.988 320.762 63.449 322.684 62.402 326.527 60.445 326.762 60.328 326.996 60.215 327.469 59.988 328.41 59.547 330.297 58.688 334.07 57.09 334.289 57.004 334.512 56.914 334.949 56.742 335.832 56.398 337.59 55.742 341.109 54.52 341.23 54.48 341.348 54.441 342.062 54.207 343.02 53.906 344.926 53.332 345.047 53.297 345.164 53.262 345.402 53.191 345.879 53.055 346.832 52.789 348.742 52.281 348.852 52.254 348.965 52.227 349.188 52.168 349.633 52.055 350.523 51.836 352.305 51.422 352.414 51.395 352.527 51.371 352.75 51.32 353.195 51.223 354.086 51.031 355.867 50.668 356.086 50.629 356.742 50.5 357.613 50.34 359.359 50.035 359.578 49.996 360.234 49.891 361.105 49.754 362.852 49.492 362.973 49.477 363.09 49.461 363.324 49.426 363.801 49.363 364.746 49.238 364.867 49.223 364.984 49.207 365.219 49.18 365.695 49.121 366.641 49.008 366.762 48.996 366.879 48.984 367.117 48.957 368.535 48.805 370.43 48.625 370.543 48.617 370.652 48.605 370.871 48.586 371.316 48.551 372.199 48.48 372.309 48.473 372.422 48.465 372.641 48.445 373.082 48.414 373.969 48.355 374.188 48.34 374.41 48.324 374.852 48.297 375.734 48.25 375.844 48.242 375.957 48.234 376.176 48.223 376.617 48.203 377.504 48.16 377.625 48.156 377.75 48.148 377.996 48.141 378.488 48.121 378.613 48.117 378.734 48.109 378.984 48.102 379.477 48.086 379.602 48.082 379.723 48.078 379.969 48.07 380.465 48.055H380.586L380.711 48.051 380.957 48.043 381.449 48.031H381.574L381.695 48.027 381.941 48.023 382.066 48.02H382.191L382.438 48.016 382.559 48.012H382.684L382.93 48.008 383.055 48.004H383.176L383.422 48H383.672L383.793 47.996H384.285L384.41 47.992H385.398"/>
<path stroke-width="2.620558" stroke-linecap="square" stroke-miterlimit="3.25" stroke-linejoin="miter" fill="none" stroke="#800080" d="M26.008 384.922 26.117 384.816 26.227 384.715 26.445 384.508 27.77 383.266 29.535 381.613 33.062 378.305 40.707 371.137 47.848 364.441 54.852 357.879 62.445 350.758 69.531 344.113 77.211 336.914 84.754 329.844 91.789 323.25 99.414 316.102 106.535 309.426 113.516 302.879 121.09 295.781 128.156 289.156 135.816 281.973 143.336 274.922 150.352 268.348 157.957 261.215 165.059 254.559 172.75 247.348 180.305 240.266 187.352 233.66 194.992 226.496 202.125 219.809 209.117 213.254 216.703 206.141 223.781 199.504 231.457 192.312 238.988 185.25 246.016 178.664 253.633 171.52 260.746 164.852 267.719 158.312 275.285 151.223 282.344 144.602 289.996 137.43 297.145 130.73 304.148 124.16 311.746 117.039 318.84 110.387 326.527 103.184 334.07 96.109 341.109 89.512 348.742 82.355 355.867 75.676 362.852 69.125 370.43 62.023 377.504 55.391 377.625 55.277 377.75 55.16 378.488 54.469 379.477 53.543 381.449 51.691 381.574 51.574 381.695 51.461 381.941 51.23 382.438 50.766 383.422 49.84 383.547 49.727 383.672 49.609 384.41 48.918 384.535 48.801 384.656 48.684 384.902 48.453 385.027 48.34 385.148 48.223 385.273 48.105 385.398 47.992"/>
<path stroke-width="2.620558" stroke-linecap="square" stroke-miterlimit="3.25" stroke-linejoin="miter" fill="none" stroke="#aa0055" d="M26.008 384.871 26.117 379.121 26.227 376.773 26.336 374.996 26.445 373.512 26.559 372.215 26.668 371.047 26.777 369.984 26.887 369 27 368.078 27.109 367.215 27.328 365.617 27.438 364.871 27.551 364.156 27.77 362.812 27.879 362.176 27.992 361.559 28.211 360.379 28.652 358.207 28.762 357.695 28.871 357.199 29.094 356.23 29.535 354.414 29.645 353.98 29.754 353.555 29.973 352.723 30.414 351.137 31.297 348.223 31.406 347.879 31.516 347.539 31.738 346.871 32.18 345.582 33.062 343.156 33.18 342.84 33.301 342.527 33.539 341.914 34.016 340.723 34.973 338.457 36.883 334.332 37.363 333.371 37.84 332.434 38.797 330.625 40.707 327.246 40.82 327.059 40.93 326.871 41.156 326.496 41.602 325.762 42.492 324.328 44.277 321.594 47.848 316.594 48.285 316.016 48.723 315.445 49.598 314.324 51.352 312.156 54.852 308.086 62.445 300.203 69.531 293.707 77.211 287.352 84.754 281.637 91.789 276.676 99.414 271.621 106.535 267.148 113.516 262.961 121.09 258.602 128.156 254.676 135.816 250.555 143.336 246.625 150.352 243.047 157.957 239.246 165.059 235.758 172.75 232.035 180.305 228.422 187.352 225.082 194.992 221.48 202.125 218.133 209.117 214.855 216.703 211.293 223.781 207.957 231.457 204.32 238.988 200.715 246.016 197.316 253.633 193.574 260.746 190.02 267.719 186.465 275.285 182.516 282.344 178.727 289.996 174.488 297.145 170.387 304.148 166.203 311.746 161.445 318.84 156.766 326.527 151.363 334.07 145.652 341.109 139.863 348.742 132.918 355.867 125.586 356.305 125.102 356.742 124.613 357.613 123.625 359.359 121.586 362.852 117.242 362.973 117.086 363.09 116.934 363.324 116.621 363.801 115.992 364.746 114.707 366.641 112.027 366.762 111.852 366.879 111.68 367.117 111.328 367.59 110.621 368.535 109.172 370.43 106.109 370.543 105.926 370.871 105.363 371.316 104.602 372.199 103.031 373.969 99.688 374.078 99.469 374.188 99.246 374.41 98.805 374.852 97.898 375.734 96.012 377.504 91.902 377.625 91.598 377.75 91.289 377.996 90.66 378.488 89.363 379.477 86.602 379.602 86.234 379.723 85.867 379.969 85.113 380.465 83.547 381.449 80.113 381.574 79.648 381.695 79.176 381.941 78.203 382.438 76.133 382.559 75.586 382.684 75.023 382.93 73.852 383.422 71.297 383.547 70.602 383.672 69.883 383.918 68.348 384.039 67.531 384.164 66.668 384.41 64.789 384.535 63.754 384.656 62.633 384.781 61.406 384.902 60.035 385.027 58.473 385.148 56.598 385.273 54.121 385.398 48.039"/>
<path stroke-width="2.620558" stroke-linecap="square" stroke-miterlimit="3.25" stroke-linejoin="miter" fill="none" stroke="#d4002b" d="M26.008 375.434 26.117 329.156 26.227 322.402 26.336 318.164 26.445 315.027 26.559 312.52 26.668 310.422 26.777 308.613 26.887 307.023 27 305.598 27.109 304.309 27.219 303.133 27.328 302.043 27.438 301.035 27.551 300.094 27.77 298.383 27.879 297.594 27.992 296.848 28.211 295.465 28.32 294.816 28.43 294.199 28.652 293.031 28.762 292.48 28.871 291.949 29.094 290.941 29.535 289.102 29.645 288.676 29.754 288.262 29.973 287.461 30.414 285.977 30.527 285.629 30.637 285.285 30.855 284.625 31.297 283.375 31.406 283.078 31.516 282.785 31.738 282.219 32.18 281.141 33.062 279.176 33.18 278.926 33.301 278.68 33.539 278.203 34.016 277.281 34.973 275.586 35.094 275.383 35.211 275.184 35.449 274.797 35.93 274.043 36.883 272.629 37.125 272.293 37.363 271.961 37.84 271.32 38.797 270.105 40.707 267.906 40.82 267.785 40.93 267.664 41.156 267.426 41.602 266.965 42.492 266.066 44.277 264.402 44.391 264.301 44.504 264.203 44.727 264.008 45.172 263.621 46.062 262.871 47.848 261.461 47.957 261.375 48.285 261.129 48.723 260.805 49.598 260.168 51.352 258.961 54.852 256.746 55.086 256.605 55.801 256.184 56.75 255.641 58.648 254.59 62.445 252.641 69.531 249.414 77.211 246.371 84.754 243.719 91.789 241.469 99.414 239.227 106.535 237.273 113.516 235.473 121.09 233.617 128.156 231.969 135.816 230.258 143.336 228.633 150.352 227.168 157.957 225.617 165.059 224.203 172.75 222.703 180.305 221.25 187.352 219.906 194.992 218.465 202.125 217.125 209.117 215.816 216.703 214.391 223.781 213.055 231.457 211.594 238.988 210.145 246.016 208.77 253.633 207.254 260.746 205.805 267.719 204.352 275.285 202.723 282.344 201.145 289.996 199.367 297.145 197.625 304.148 195.828 311.746 193.754 318.84 191.68 326.527 189.234 334.07 186.582 341.109 183.816 348.742 180.379 348.852 180.324 348.965 180.27 349.188 180.16 349.633 179.938 350.523 179.488 352.305 178.562 355.867 176.57 356.086 176.445 356.305 176.312 356.742 176.055 357.613 175.52 359.359 174.41 359.469 174.34 359.578 174.266 360.234 173.832 361.105 173.234 362.852 171.98 362.973 171.891 363.09 171.805 363.324 171.625 363.801 171.262 364.746 170.52 366.641 168.938 366.762 168.832 366.879 168.727 367.117 168.52 367.59 168.09 368.535 167.203 370.43 165.289 370.543 165.172 370.652 165.055 370.871 164.812 371.316 164.32 372.199 163.297 372.309 163.164 372.422 163.031 372.641 162.762 373.082 162.211 373.969 161.051 374.188 160.746 374.41 160.438 374.852 159.805 375.734 158.465 375.844 158.289 375.957 158.109 376.176 157.75 376.617 157.008 377.504 155.41 377.625 155.176 377.75 154.934 377.996 154.445 378.488 153.426 378.613 153.16 378.734 152.887 378.984 152.332 379.477 151.164 379.602 150.859 379.723 150.547 379.969 149.902 380.465 148.535 380.586 148.172 380.711 147.801 380.957 147.035 381.449 145.375 381.574 144.93 381.695 144.473 381.941 143.52 382.066 143.016 382.191 142.496 382.438 141.402 382.559 140.824 382.684 140.223 382.93 138.941 383.055 138.258 383.176 137.543 383.422 135.992 383.547 135.152 383.672 134.258 383.793 133.305 383.918 132.285 384.039 131.188 384.164 129.992 384.285 128.688 384.41 127.25 384.535 125.637 384.656 123.805 384.781 121.68 384.902 119.141 385.027 115.961 385.148 111.664 385.273 104.809 385.398 57.477"/>
<path stroke-width=".36" stroke-linecap="butt" stroke-miterlimit="3.25" stroke-linejoin="miter" fill="none" stroke="#000000" d="M26.008 384.922V380.922"/>
<path stroke-width=".36" stroke-linecap="butt" stroke-miterlimit="3.25" stroke-linejoin="miter" fill="none" stroke="#000000" d="M205.703 384.922V380.922"/>
<text xml:space="preserve" transform="matrix(1 0 0 1 0 0)" font-size="17.28" font-family="CairoFont-0"><tspan y="402.68" x="193.77854 202.93694 207.51613">0.5</tspan></text>
<path stroke-width=".36" stroke-linecap="butt" stroke-miterlimit="3.25" stroke-linejoin="miter" fill="none" stroke="#000000" d="M385.398 384.922V380.922"/>
<text xml:space="preserve" transform="matrix(1 0 0 1 0 0)" font-size="17.28" font-family="CairoFont-0"><tspan y="402.68" x="380.81834">1</tspan></text>
<path stroke-width=".36" stroke-linecap="butt" stroke-miterlimit="3.25" stroke-linejoin="miter" fill="none" stroke="#000000" d="M18.52 384.922H392.883"/>
<path d="M412.785 379.887C412.785 378.547 411.652 377.328 409.492 377.328H404.188C403.859 377.328 403.707 377.328 403.707 377.656 403.707 377.828 403.859 377.828 404.117 377.828 405.164 377.828 405.164 377.965 405.164 378.152 405.164 378.152 405.164 378.293 405.098 378.547L402.781 387.781C402.625 388.383 402.59 388.555 401.391 388.555 401.062 388.555 400.891 388.555 400.891 388.863 400.891 389.051 401.047 389.051 401.148 389.051 401.477 389.051 401.82 389.02 402.145 389.02H404.152C404.477 389.02 404.84 389.051 405.164 389.051 405.301 389.051 405.492 389.051 405.492 388.727 405.492 388.555 405.336 388.555 405.078 388.555 404.047 388.555 404.031 388.434 404.031 388.262 404.031 388.176 404.047 388.059 404.066 387.969L405.164 383.594H408.047C410.418 383.594 412.785 381.844 412.785 379.887ZM411.344 379.527C411.344 379.973 411.121 381.434 410.332 382.223 410.039 382.531 409.215 383.184 407.652 383.184H405.234L406.402 378.496C406.555 377.863 406.625 377.828 407.293 377.828H408.992C410.281 377.828 411.344 378.238 411.344 379.527ZM411.344 379.527" fill-rule="evenodd"/>
<path stroke-width=".36" stroke-linecap="butt" stroke-miterlimit="3.25" stroke-linejoin="miter" fill="none" stroke="#000000" d="M26.008 384.922H30.008"/>
<path stroke-width=".36" stroke-linecap="butt" stroke-miterlimit="3.25" stroke-linejoin="miter" fill="none" stroke="#000000" d="M26.008 216.457H30.008"/>
<text xml:space="preserve" transform="matrix(1 0 0 1 0 0)" font-size="17.28" font-family="CairoFont-0"><tspan y="222.09555" x="0 9.158401 13.7376">0.5</tspan></text>
<path stroke-width=".36" stroke-linecap="butt" stroke-miterlimit="3.25" stroke-linejoin="miter" fill="none" stroke="#000000" d="M26.008 47.992H30.008"/>
<text xml:space="preserve" transform="matrix(1 0 0 1 0 0)" font-size="17.28" font-family="CairoFont-0"><tspan y="53.631109" x="14.68875">1</tspan></text>
<path stroke-width=".36" stroke-linecap="butt" stroke-miterlimit="3.25" stroke-linejoin="miter" fill="none" stroke="#000000" d="M26.008 403.637V29.273"/>
<path d="M27.977 12.445C27.977 10.867 27.082 9.754 25.797 9.754 24.699 9.754 23.773 10.816 23.582 11.055 23.445 10.199 22.773 9.754 22.09 9.754 21.59 9.754 21.195 9.992 20.871 10.645 20.562 11.262 20.32 12.309 20.32 12.379 20.32 12.445 20.391 12.531 20.508 12.531 20.648 12.531 20.664 12.516 20.766 12.121 21.023 11.105 21.352 10.094 22.039 10.094 22.434 10.094 22.57 10.371 22.57 10.883 22.57 11.297 22.52 11.469 22.449 11.777L20.508 19.5C20.391 20.016 20.32 20.152 19.617 20.152 19.41 20.152 19.238 20.152 19.238 20.48 19.238 20.48 19.258 20.652 19.445 20.652 19.668 20.652 19.91 20.617 20.133 20.617H20.871L22.469 20.652C22.57 20.652 22.773 20.652 22.773 20.344 22.773 20.152 22.656 20.152 22.363 20.152 21.574 20.152 21.523 20.031 21.523 19.895 21.523 19.691 22.293 16.738 22.398 16.344 22.586 16.824 23.051 17.492 23.941 17.492 25.883 17.492 27.977 14.969 27.977 12.445ZM25.949 15.398C25.523 16.328 24.73 17.152 23.941 17.152 22.773 17.152 22.586 15.676 22.586 15.605 22.586 15.555 22.621 15.414 22.637 15.332L23.48 11.969C23.598 11.484 24.078 10.988 24.355 10.746 24.543 10.578 25.109 10.094 25.762 10.094 26.516 10.094 26.859 10.852 26.859 11.742 26.859 12.566 26.379 14.508 25.949 15.398ZM25.949 15.398" fill-rule="evenodd"/>
<path d="M31.402 4.488C31.402 4.145 31.082 3.871 30.738 3.871 30.281 3.871 30.164 4.246 30.133 4.387L28.68 9.352C28.668 9.371 28.621 9.547 28.621 9.547 28.621 9.695 28.977 9.797 29.055 9.797 29.125 9.797 29.172 9.75 29.227 9.625L31.32 4.797C31.344 4.738 31.402 4.613 31.402 4.488ZM31.402 4.488" fill-rule="evenodd"/>
<g clip-path="url(#clip_0)">
<path stroke-width="1.611368" stroke-linecap="square" stroke-miterlimit="3.25" stroke-linejoin="miter" fill="none" stroke="#2b00d4" d="M423.148 142.012H435.938"/>
</g>
<path d="M451.996 137.719C451.996 137.719 451.98 137.582 451.824 137.582 451.824 137.582 451.703 137.582 451.672 137.648 451.637 137.688 451.035 138.852 450.523 140.02 450.262 140.605 449.922 141.375 449.355 142.887 449.32 142.043 449.285 140.723 448.633 139.176 448.289 138.32 447.703 137.41 446.453 137.41 444.34 137.41 443.191 140.105 443.191 140.551 443.191 140.703 443.312 140.703 443.363 140.703 443.52 140.703 443.52 140.672 443.602 140.449 443.965 139.383 445.062 138.543 446.246 138.543 448.633 138.543 448.977 141.203 448.977 142.902 448.977 143.984 448.855 144.344 448.754 144.688 448.426 145.75 447.859 147.879 447.859 148.359 447.859 148.5 447.91 148.652 448.051 148.652 448.305 148.652 448.461 148.086 448.648 147.398 449.062 145.887 449.164 145.133 449.25 144.445 449.301 144.035 450.281 141.203 451.637 138.508 451.758 138.234 451.996 137.77 451.996 137.719ZM451.996 137.719" fill-rule="evenodd"/>
<path d="M469.398 139.109C469.398 138.785 469.105 138.785 468.852 138.785H458.738C458.5 138.785 458.191 138.785 458.191 139.09 458.191 139.418 458.484 139.418 458.738 139.418H468.852C469.09 139.418 469.398 139.418 469.398 139.109ZM469.398 142.301C469.398 141.977 469.105 141.977 468.852 141.977H458.738C458.5 141.977 458.191 141.977 458.191 142.285 458.191 142.609 458.484 142.609 458.738 142.609H468.852C469.09 142.609 469.398 142.609 469.398 142.301ZM469.398 142.301" fill-rule="evenodd"/>
<path d="M482.953 139.488C482.953 138.062 482.867 136.672 482.25 135.367 481.543 133.941 480.309 133.566 479.469 133.566 478.473 133.566 477.254 134.062 476.621 135.488 476.137 136.57 475.969 137.633 475.969 139.488 475.969 141.152 476.086 142.406 476.703 143.621 477.375 144.926 478.559 145.34 479.449 145.34 480.945 145.34 481.805 144.445 482.301 143.453 482.918 142.164 482.953 140.48 482.953 139.488ZM481.648 139.281C481.648 140.43 481.648 141.734 481.457 142.781 481.133 144.672 480.055 144.996 479.449 144.996 478.902 144.996 477.785 144.688 477.461 142.816 477.273 141.785 477.273 140.48 477.273 139.281 477.273 137.875 477.273 136.602 477.547 135.59 477.836 134.441 478.711 133.906 479.449 133.906 480.102 133.906 481.098 134.305 481.426 135.781 481.648 136.758 481.648 138.113 481.648 139.281ZM481.648 139.281" fill-rule="evenodd"/>
<path d="M486.773 144.156C486.773 143.66 486.359 143.316 485.949 143.316 485.449 143.316 485.109 143.727 485.109 144.137 485.109 144.637 485.52 144.98 485.93 144.98 486.43 144.98 486.773 144.566 486.773 144.156ZM486.773 144.156" fill-rule="evenodd"/>
<path d="M495.918 142.094H495.539C495.488 142.387 495.352 143.332 495.18 143.605 495.059 143.762 494.082 143.762 493.566 143.762H490.391C490.855 143.367 491.902 142.27 492.348 141.855 494.957 139.453 495.918 138.562 495.918 136.859 495.918 134.887 494.355 133.566 492.367 133.566 490.375 133.566 489.207 135.266 489.207 136.742 489.207 137.617 489.965 137.617 490.012 137.617 490.375 137.617 490.82 137.359 490.82 136.809 490.82 136.328 490.492 136.004 490.012 136.004 489.859 136.004 489.824 136.004 489.773 136.02 490.102 134.852 491.027 134.062 492.141 134.062 493.602 134.062 494.496 135.281 494.496 136.859 494.496 138.32 493.652 139.59 492.676 140.688L489.207 144.566V144.98H495.473ZM495.918 142.094" fill-rule="evenodd"/>
<g clip-path="url(#clip_1)">
<path stroke-width="1.611368" stroke-linecap="square" stroke-miterlimit="3.25" stroke-linejoin="miter" fill="none" stroke="#5500aa" d="M423.148 173.5H435.938"/>
</g>
<path d="M451.996 169.207C451.996 169.207 451.98 169.07 451.824 169.07 451.824 169.07 451.703 169.07 451.672 169.137 451.637 169.172 451.035 170.34 450.523 171.508 450.262 172.09 449.922 172.863 449.355 174.371 449.32 173.531 449.285 172.211 448.633 170.664 448.289 169.809 447.703 168.898 446.453 168.898 444.34 168.898 443.191 171.594 443.191 172.039 443.191 172.191 443.312 172.191 443.363 172.191 443.52 172.191 443.52 172.16 443.602 171.938 443.965 170.871 445.062 170.031 446.246 170.031 448.633 170.031 448.977 172.691 448.977 174.391 448.977 175.473 448.855 175.832 448.754 176.176 448.426 177.238 447.859 179.367 447.859 179.848 447.859 179.984 447.91 180.141 448.051 180.141 448.305 180.141 448.461 179.574 448.648 178.887 449.062 177.375 449.164 176.621 449.25 175.934 449.301 175.523 450.281 172.691 451.637 169.996 451.758 169.723 451.996 169.258 451.996 169.207ZM451.996 169.207" fill-rule="evenodd"/>
<path d="M469.398 170.598C469.398 170.27 469.105 170.27 468.852 170.27H458.738C458.5 170.27 458.191 170.27 458.191 170.578 458.191 170.906 458.484 170.906 458.738 170.906H468.852C469.09 170.906 469.398 170.906 469.398 170.598ZM469.398 173.789C469.398 173.465 469.105 173.465 468.852 173.465H458.738C458.5 173.465 458.191 173.465 458.191 173.773 458.191 174.098 458.484 174.098 458.738 174.098H468.852C469.09 174.098 469.398 174.098 469.398 173.789ZM469.398 173.789" fill-rule="evenodd"/>
<path d="M482.953 170.977C482.953 169.551 482.867 168.16 482.25 166.855 481.543 165.43 480.309 165.055 479.469 165.055 478.473 165.055 477.254 165.551 476.621 166.977 476.137 168.059 475.969 169.121 475.969 170.977 475.969 172.641 476.086 173.895 476.703 175.109 477.375 176.414 478.559 176.828 479.449 176.828 480.945 176.828 481.805 175.934 482.301 174.941 482.918 173.652 482.953 171.969 482.953 170.977ZM481.648 170.77C481.648 171.918 481.648 173.223 481.457 174.27 481.133 176.16 480.055 176.484 479.449 176.484 478.902 176.484 477.785 176.176 477.461 174.305 477.273 173.273 477.273 171.969 477.273 170.77 477.273 169.363 477.273 168.09 477.547 167.078 477.836 165.93 478.711 165.395 479.449 165.395 480.102 165.395 481.098 165.793 481.426 167.27 481.648 168.246 481.648 169.602 481.648 170.77ZM481.648 170.77" fill-rule="evenodd"/>
<path d="M486.773 175.645C486.773 175.148 486.359 174.801 485.949 174.801 485.449 174.801 485.109 175.215 485.109 175.625 485.109 176.125 485.52 176.469 485.93 176.469 486.43 176.469 486.773 176.055 486.773 175.645ZM486.773 175.645" fill-rule="evenodd"/>
<path d="M495.918 173.02C495.918 170.977 494.543 169.273 492.742 169.273 491.766 169.273 491.008 169.703 490.562 170.188V166.633C491.301 166.871 491.902 166.891 492.09 166.891 494.031 166.891 495.266 165.465 495.266 165.227 495.266 165.156 495.23 165.07 495.129 165.07 495.129 165.07 495.059 165.07 494.906 165.141 493.941 165.551 493.121 165.602 492.676 165.602 491.539 165.602 490.734 165.258 490.41 165.121 490.289 165.07 490.238 165.07 490.238 165.07 490.102 165.07 490.102 165.172 490.102 165.449V170.547C490.102 170.855 490.102 170.957 490.305 170.957 490.391 170.957 490.41 170.941 490.578 170.734 491.062 170.031 491.867 169.617 492.727 169.617 493.637 169.617 494.082 170.461 494.219 170.754 494.512 171.422 494.527 172.262 494.527 172.914 494.527 173.566 494.527 174.547 494.047 175.316 493.668 175.934 493 176.363 492.246 176.363 491.113 176.363 489.996 175.594 489.688 174.34 489.773 174.371 489.875 174.391 489.965 174.391 490.254 174.391 490.719 174.219 490.719 173.637 490.719 173.156 490.391 172.883 489.965 172.883 489.652 172.883 489.207 173.035 489.207 173.703 489.207 175.164 490.375 176.828 492.277 176.828 494.219 176.828 495.918 175.195 495.918 173.02ZM495.918 173.02" fill-rule="evenodd"/>
<g clip-path="url(#clip_2)">
<path stroke-width="1.611368" stroke-linecap="square" stroke-miterlimit="3.25" stroke-linejoin="miter" fill="none" stroke="#800080" d="M423.148 204.988H435.938"/>
</g>
<path d="M451.996 200.695C451.996 200.695 451.977 200.559 451.82 200.559 451.82 200.559 451.703 200.559 451.668 200.625 451.633 200.66 451.031 201.828 450.52 202.996 450.262 203.578 449.918 204.352 449.352 205.859 449.316 205.02 449.281 203.699 448.629 202.152 448.289 201.297 447.703 200.387 446.449 200.387 444.34 200.387 443.191 203.082 443.191 203.527 443.191 203.68 443.309 203.68 443.359 203.68 443.516 203.68 443.516 203.648 443.602 203.426 443.961 202.359 445.062 201.52 446.246 201.52 448.629 201.52 448.973 204.18 448.973 205.879 448.973 206.961 448.855 207.32 448.75 207.664 448.426 208.727 447.859 210.855 447.859 211.336 447.859 211.473 447.91 211.629 448.047 211.629 448.305 211.629 448.457 211.062 448.648 210.375 449.059 208.863 449.164 208.109 449.25 207.422 449.301 207.012 450.277 204.18 451.633 201.484 451.754 201.211 451.996 200.746 451.996 200.695ZM451.996 200.695" fill-rule="evenodd"/>
<path d="M469.398 202.086C469.398 201.758 469.105 201.758 468.848 201.758H458.738C458.496 201.758 458.188 201.758 458.188 202.066 458.188 202.395 458.48 202.395 458.738 202.395H468.848C469.086 202.395 469.398 202.395 469.398 202.086ZM469.398 205.277C469.398 204.953 469.105 204.953 468.848 204.953H458.738C458.496 204.953 458.188 204.953 458.188 205.262 458.188 205.586 458.48 205.586 458.738 205.586H468.848C469.086 205.586 469.398 205.586 469.398 205.277ZM469.398 205.277" fill-rule="evenodd"/>
<path d="M482.297 207.957V207.457H481.766C480.254 207.457 480.203 207.25 480.203 206.633V196.953C480.203 196.559 480.203 196.543 479.859 196.543 479.445 197.004 478.59 197.641 476.82 197.641V198.137C477.219 198.137 478.074 198.137 479.02 197.691V206.633C479.02 207.25 478.969 207.457 477.457 207.457H476.926V207.957C477.387 207.922 479.055 207.922 479.621 207.922 480.188 207.922 481.832 207.922 482.297 207.957ZM482.297 207.957" fill-rule="evenodd"/>
<path d="M486.77 207.133C486.77 206.633 486.359 206.289 485.945 206.289 485.445 206.289 485.105 206.703 485.105 207.113 485.105 207.609 485.516 207.957 485.93 207.957 486.426 207.957 486.77 207.543 486.77 207.133ZM486.77 207.133" fill-rule="evenodd"/>
<g clip-path="url(#clip_3)">
<path stroke-width="1.611368" stroke-linecap="square" stroke-miterlimit="3.25" stroke-linejoin="miter" fill="none" stroke="#aa0055" d="M423.148 236.477H435.938"/>
</g>
<path d="M451.996 232.184C451.996 232.184 451.977 232.047 451.82 232.047 451.82 232.047 451.703 232.047 451.668 232.113 451.633 232.148 451.031 233.316 450.52 234.484 450.262 235.066 449.918 235.84 449.352 237.348 449.316 236.508 449.281 235.188 448.629 233.641 448.289 232.785 447.703 231.875 446.449 231.875 444.34 231.875 443.191 234.566 443.191 235.016 443.191 235.168 443.309 235.168 443.359 235.168 443.516 235.168 443.516 235.137 443.602 234.914 443.961 233.848 445.062 233.008 446.246 233.008 448.629 233.008 448.973 235.668 448.973 237.367 448.973 238.449 448.855 238.809 448.75 239.152 448.426 240.215 447.859 242.344 447.859 242.824 447.859 242.961 447.91 243.117 448.047 243.117 448.305 243.117 448.457 242.551 448.648 241.863 449.059 240.352 449.164 239.598 449.25 238.91 449.301 238.5 450.277 235.668 451.633 232.973 451.754 232.699 451.996 232.234 451.996 232.184ZM451.996 232.184" fill-rule="evenodd"/>
<path d="M469.398 233.574C469.398 233.246 469.105 233.246 468.848 233.246H458.738C458.496 233.246 458.188 233.246 458.188 233.555 458.188 233.883 458.48 233.883 458.738 233.883H468.848C469.086 233.883 469.398 233.883 469.398 233.574ZM469.398 236.766C469.398 236.441 469.105 236.441 468.848 236.441H458.738C458.496 236.441 458.188 236.441 458.188 236.75 458.188 237.074 458.48 237.074 458.738 237.074H468.848C469.086 237.074 469.398 237.074 469.398 236.766ZM469.398 236.766" fill-rule="evenodd"/>
<path d="M482.812 236.559H482.434C482.383 236.852 482.246 237.797 482.074 238.07 481.953 238.223 480.973 238.223 480.461 238.223H477.285C477.75 237.832 478.797 236.73 479.242 236.32 481.852 233.914 482.812 233.023 482.812 231.324 482.812 229.352 481.25 228.031 479.262 228.031 477.27 228.031 476.102 229.73 476.102 231.203 476.102 232.078 476.855 232.078 476.906 232.078 477.27 232.078 477.715 231.824 477.715 231.273 477.715 230.793 477.387 230.469 476.906 230.469 476.754 230.469 476.719 230.469 476.668 230.484 476.996 229.316 477.922 228.527 479.035 228.527 480.496 228.527 481.387 229.746 481.387 231.324 481.387 232.785 480.547 234.055 479.566 235.152L476.102 239.031V239.441H482.363ZM482.812 236.559" fill-rule="evenodd"/>
<path d="M486.77 238.621C486.77 238.121 486.359 237.777 485.945 237.777 485.445 237.777 485.105 238.191 485.105 238.602 485.105 239.098 485.516 239.441 485.93 239.441 486.426 239.441 486.77 239.031 486.77 238.621ZM486.77 238.621" fill-rule="evenodd"/>
<g clip-path="url(#clip_4)">
<path stroke-width="1.611368" stroke-linecap="square" stroke-miterlimit="3.25" stroke-linejoin="miter" fill="none" stroke="#d4002b" d="M423.148 267.961H435.938"/>
</g>
<path d="M451.996 263.672C451.996 263.672 451.977 263.535 451.82 263.535 451.82 263.535 451.703 263.535 451.668 263.602 451.633 263.637 451.031 264.805 450.52 265.969 450.262 266.555 449.918 267.328 449.352 268.836 449.316 267.996 449.281 266.676 448.629 265.129 448.289 264.273 447.703 263.363 446.449 263.363 444.34 263.363 443.191 266.055 443.191 266.504 443.191 266.656 443.309 266.656 443.359 266.656 443.516 266.656 443.516 266.625 443.602 266.398 443.961 265.336 445.062 264.496 446.246 264.496 448.629 264.496 448.973 267.156 448.973 268.855 448.973 269.938 448.855 270.297 448.75 270.641 448.426 271.703 447.859 273.832 447.859 274.312 447.859 274.449 447.91 274.605 448.047 274.605 448.305 274.605 448.457 274.039 448.648 273.352 449.059 271.84 449.164 271.086 449.25 270.398 449.301 269.988 450.277 267.156 451.633 264.461 451.754 264.188 451.996 263.723 451.996 263.672ZM451.996 263.672" fill-rule="evenodd"/>
<path d="M469.398 265.062C469.398 264.734 469.105 264.734 468.848 264.734H458.738C458.496 264.734 458.188 264.734 458.188 265.043 458.188 265.371 458.48 265.371 458.738 265.371H468.848C469.086 265.371 469.398 265.371 469.398 265.062ZM469.398 268.254C469.398 267.93 469.105 267.93 468.848 267.93H458.738C458.496 267.93 458.188 267.93 458.188 268.234 458.188 268.562 458.48 268.562 458.738 268.562H468.848C469.086 268.562 469.398 268.562 469.398 268.254ZM469.398 268.254" fill-rule="evenodd"/>
<path d="M482.812 267.484C482.812 265.441 481.438 263.738 479.637 263.738 478.66 263.738 477.902 264.168 477.457 264.648V261.098C478.195 261.336 478.797 261.355 478.984 261.355 480.926 261.355 482.16 259.93 482.16 259.688 482.16 259.621 482.125 259.535 482.023 259.535 482.023 259.535 481.953 259.535 481.801 259.605 480.836 260.016 480.016 260.066 479.566 260.066 478.434 260.066 477.629 259.723 477.305 259.586 477.18 259.535 477.133 259.535 477.133 259.535 476.996 259.535 476.996 259.637 476.996 259.914V265.012C476.996 265.316 476.996 265.422 477.199 265.422 477.285 265.422 477.305 265.402 477.473 265.199 477.957 264.496 478.762 264.082 479.621 264.082 480.527 264.082 480.973 264.926 481.113 265.219 481.402 265.887 481.422 266.727 481.422 267.379 481.422 268.031 481.422 269.012 480.941 269.781 480.562 270.398 479.895 270.828 479.137 270.828 478.008 270.828 476.891 270.055 476.582 268.805 476.668 268.836 476.77 268.855 476.855 268.855 477.148 268.855 477.609 268.684 477.609 268.098 477.609 267.621 477.285 267.344 476.855 267.344 476.547 267.344 476.102 267.5 476.102 268.168 476.102 269.625 477.27 271.293 479.172 271.293 481.113 271.293 482.812 269.66 482.812 267.484ZM482.812 267.484" fill-rule="evenodd"/>
<path d="M486.77 270.109C486.77 269.609 486.359 269.266 485.945 269.266 485.445 269.266 485.105 269.68 485.105 270.09 485.105 270.586 485.516 270.93 485.93 270.93 486.426 270.93 486.77 270.52 486.77 270.109ZM486.77 270.109" fill-rule="evenodd"/>
</g>
</svg>
