<?xml version="1.0" encoding="UTF-8"?>
<svg xmlns="http://www.w3.org/2000/svg" xmlns:xlink="http://www.w3.org/1999/xlink" width="360pt" height="361pt" viewBox="0 0 360 361" version="1.1">
<g id="surface6">
<path style="fill-rule:nonzero;fill:rgb(90.586853%,62.744141%,29.803467%);fill-opacity:1;stroke-width:1;stroke-linecap:square;stroke-linejoin:miter;stroke:rgb(90.586853%,62.744141%,29.803467%);stroke-opacity:1;stroke-miterlimit:3.239307;" d="M 47.355469 47.976562 L 47.355469 149.960938 L 149.339844 149.960938 L 149.339844 47.976562 Z M 47.355469 47.976562 "/>
<path style="fill:none;stroke-width:2;stroke-linecap:square;stroke-linejoin:miter;stroke:rgb(50%,50%,50%);stroke-opacity:1;stroke-miterlimit:3.25;" d="M 47.355469 47.976562 L 47.355469 149.960938 L 149.339844 149.960938 L 149.339844 47.976562 Z M 47.355469 47.976562 "/>
<path style="fill-rule:nonzero;fill:rgb(90.586853%,62.744141%,29.803467%);fill-opacity:1;stroke-width:2;stroke-linecap:square;stroke-linejoin:miter;stroke:rgb(90.586853%,62.744141%,29.803467%);stroke-opacity:1;stroke-miterlimit:3.25;" d="M 47.355469 149.960938 L 47.355469 251.945312 L 149.339844 251.945312 L 149.339844 149.960938 Z M 47.355469 149.960938 "/>
<path style="fill:none;stroke-width:2;stroke-linecap:square;stroke-linejoin:miter;stroke:rgb(50%,50%,50%);stroke-opacity:1;stroke-miterlimit:3.25;" d="M 47.355469 149.960938 L 47.355469 251.945312 L 149.339844 251.945312 L 149.339844 149.960938 Z M 47.355469 149.960938 "/>
<path style="fill-rule:nonzero;fill:rgb(90.586853%,62.744141%,29.803467%);fill-opacity:1;stroke-width:2;stroke-linecap:square;stroke-linejoin:miter;stroke:rgb(90.586853%,62.744141%,29.803467%);stroke-opacity:1;stroke-miterlimit:3.25;" d="M 149.339844 47.976562 L 149.339844 149.960938 L 251.324219 149.960938 L 251.324219 47.976562 Z M 149.339844 47.976562 "/>
<path style="fill:none;stroke-width:2;stroke-linecap:square;stroke-linejoin:miter;stroke:rgb(50%,50%,50%);stroke-opacity:1;stroke-miterlimit:3.25;" d="M 149.339844 47.976562 L 149.339844 149.960938 L 251.324219 149.960938 L 251.324219 47.976562 Z M 149.339844 47.976562 "/>
<path style="fill-rule:nonzero;fill:rgb(14.509583%,32.940674%,54.116821%);fill-opacity:1;stroke-width:2;stroke-linecap:square;stroke-linejoin:miter;stroke:rgb(14.509583%,32.940674%,54.116821%);stroke-opacity:1;stroke-miterlimit:3.25;" d="M 149.339844 149.960938 L 149.339844 251.945312 L 251.324219 251.945312 L 251.324219 149.960938 Z M 149.339844 149.960938 "/>
<path style="fill:none;stroke-width:2;stroke-linecap:square;stroke-linejoin:miter;stroke:rgb(50%,50%,50%);stroke-opacity:1;stroke-miterlimit:3.25;" d="M 149.339844 149.960938 L 149.339844 251.945312 L 251.324219 251.945312 L 251.324219 149.960938 Z M 149.339844 149.960938 "/>
<path style="fill-rule:nonzero;fill:rgb(14.509583%,32.940674%,54.116821%);fill-opacity:1;stroke-width:2;stroke-linecap:square;stroke-linejoin:miter;stroke:rgb(14.509583%,32.940674%,54.116821%);stroke-opacity:1;stroke-miterlimit:3.25;" d="M 251.324219 47.976562 L 251.324219 149.960938 L 353.308594 149.960938 L 353.308594 47.976562 Z M 251.324219 47.976562 "/>
<path style="fill:none;stroke-width:2;stroke-linecap:square;stroke-linejoin:miter;stroke:rgb(50%,50%,50%);stroke-opacity:1;stroke-miterlimit:3.25;" d="M 251.324219 47.976562 L 251.324219 149.960938 L 353.308594 149.960938 L 353.308594 47.976562 Z M 251.324219 47.976562 "/>
<path style="fill-rule:nonzero;fill:rgb(90.586853%,62.744141%,29.803467%);fill-opacity:1;stroke-width:2;stroke-linecap:square;stroke-linejoin:miter;stroke:rgb(90.586853%,62.744141%,29.803467%);stroke-opacity:1;stroke-miterlimit:3.25;" d="M 251.324219 149.960938 L 251.324219 251.945312 L 353.308594 251.945312 L 353.308594 149.960938 Z M 251.324219 149.960938 "/>
<path style="fill:none;stroke-width:2;stroke-linecap:square;stroke-linejoin:miter;stroke:rgb(50%,50%,50%);stroke-opacity:1;stroke-miterlimit:3.25;" d="M 251.324219 149.960938 L 251.324219 251.945312 L 353.308594 251.945312 L 353.308594 149.960938 Z M 251.324219 149.960938 "/>
<path style="fill-rule:nonzero;fill:rgb(14.509583%,32.940674%,54.116821%);fill-opacity:1;stroke-width:2;stroke-linecap:square;stroke-linejoin:miter;stroke:rgb(14.509583%,32.940674%,54.116821%);stroke-opacity:1;stroke-miterlimit:3.25;" d="M 47.355469 251.945312 L 47.355469 302.9375 L 149.339844 302.9375 L 149.339844 251.945312 Z M 47.355469 251.945312 "/>
<path style="fill:none;stroke-width:2;stroke-linecap:square;stroke-linejoin:miter;stroke:rgb(50%,50%,50%);stroke-opacity:1;stroke-miterlimit:3.25;" d="M 47.355469 251.945312 L 47.355469 302.9375 L 149.339844 302.9375 L 149.339844 251.945312 Z M 47.355469 251.945312 "/>
<path style="fill-rule:nonzero;fill:rgb(14.509583%,32.940674%,54.116821%);fill-opacity:1;stroke-width:2;stroke-linecap:square;stroke-linejoin:miter;stroke:rgb(14.509583%,32.940674%,54.116821%);stroke-opacity:1;stroke-miterlimit:3.25;" d="M 47.355469 302.9375 L 47.355469 353.929688 L 149.339844 353.929688 L 149.339844 302.9375 Z M 47.355469 302.9375 "/>
<path style="fill:none;stroke-width:2;stroke-linecap:square;stroke-linejoin:miter;stroke:rgb(50%,50%,50%);stroke-opacity:1;stroke-miterlimit:3.25;" d="M 47.355469 302.9375 L 47.355469 353.929688 L 149.339844 353.929688 L 149.339844 302.9375 Z M 47.355469 302.9375 "/>
<path style="fill-rule:nonzero;fill:rgb(90.586853%,62.744141%,29.803467%);fill-opacity:1;stroke-width:2;stroke-linecap:square;stroke-linejoin:miter;stroke:rgb(90.586853%,62.744141%,29.803467%);stroke-opacity:1;stroke-miterlimit:3.25;" d="M 149.339844 251.945312 L 149.339844 302.9375 L 251.324219 302.9375 L 251.324219 251.945312 Z M 149.339844 251.945312 "/>
<path style="fill:none;stroke-width:2;stroke-linecap:square;stroke-linejoin:miter;stroke:rgb(50%,50%,50%);stroke-opacity:1;stroke-miterlimit:3.25;" d="M 149.339844 251.945312 L 149.339844 302.9375 L 251.324219 302.9375 L 251.324219 251.945312 Z M 149.339844 251.945312 "/>
<path style="fill-rule:nonzero;fill:rgb(90.586853%,62.744141%,29.803467%);fill-opacity:1;stroke-width:2;stroke-linecap:square;stroke-linejoin:miter;stroke:rgb(90.586853%,62.744141%,29.803467%);stroke-opacity:1;stroke-miterlimit:3.25;" d="M 149.339844 302.9375 L 149.339844 353.929688 L 251.324219 353.929688 L 251.324219 302.9375 Z M 149.339844 302.9375 "/>
<path style="fill:none;stroke-width:2;stroke-linecap:square;stroke-linejoin:miter;stroke:rgb(50%,50%,50%);stroke-opacity:1;stroke-miterlimit:3.25;" d="M 149.339844 302.9375 L 149.339844 353.929688 L 251.324219 353.929688 L 251.324219 302.9375 Z M 149.339844 302.9375 "/>
<path style="fill-rule:nonzero;fill:rgb(90.586853%,62.744141%,29.803467%);fill-opacity:1;stroke-width:2;stroke-linecap:square;stroke-linejoin:miter;stroke:rgb(90.586853%,62.744141%,29.803467%);stroke-opacity:1;stroke-miterlimit:3.25;" d="M 251.324219 251.945312 L 251.324219 302.9375 L 353.308594 302.9375 L 353.308594 251.945312 Z M 251.324219 251.945312 "/>
<path style="fill:none;stroke-width:2;stroke-linecap:square;stroke-linejoin:miter;stroke:rgb(50%,50%,50%);stroke-opacity:1;stroke-miterlimit:3.25;" d="M 251.324219 251.945312 L 251.324219 302.9375 L 353.308594 302.9375 L 353.308594 251.945312 Z M 251.324219 251.945312 "/>
<path style="fill-rule:nonzero;fill:rgb(90.586853%,62.744141%,29.803467%);fill-opacity:1;stroke-width:2;stroke-linecap:square;stroke-linejoin:miter;stroke:rgb(90.586853%,62.744141%,29.803467%);stroke-opacity:1;stroke-miterlimit:3.25;" d="M 251.324219 302.9375 L 251.324219 353.929688 L 353.308594 353.929688 L 353.308594 302.9375 Z M 251.324219 302.9375 "/>
<path style="fill:none;stroke-width:2;stroke-linecap:square;stroke-linejoin:miter;stroke:rgb(50%,50%,50%);stroke-opacity:1;stroke-miterlimit:3.25;" d="M 251.324219 302.9375 L 251.324219 353.929688 L 353.308594 353.929688 L 353.308594 302.9375 Z M 251.324219 302.9375 "/>
<path style="fill:none;stroke-width:1;stroke-linecap:square;stroke-linejoin:miter;stroke:rgb(0%,0%,0%);stroke-opacity:1;stroke-miterlimit:3.25;" d="M 98.347656 40.328125 L 98.347656 47.976562 "/>
<path style=" stroke:none;fill-rule:evenodd;fill:rgb(0%,0%,0%);fill-opacity:1;" d="M 98.847656 40.328125 C 98.847656 40.195312 98.792969 40.066406 98.699219 39.972656 C 98.605469 39.878906 98.480469 39.828125 98.347656 39.828125 C 98.214844 39.828125 98.085938 39.878906 97.992188 39.972656 C 97.898438 40.066406 97.847656 40.195312 97.847656 40.328125 C 97.847656 40.457031 97.898438 40.585938 97.992188 40.679688 C 98.085938 40.773438 98.214844 40.828125 98.347656 40.828125 C 98.480469 40.828125 98.605469 40.773438 98.699219 40.679688 C 98.792969 40.585938 98.847656 40.457031 98.847656 40.328125 Z M 98.847656 40.328125 "/>
<path style="fill:none;stroke-width:1;stroke-linecap:square;stroke-linejoin:miter;stroke:rgb(0%,0%,0%);stroke-opacity:1;stroke-miterlimit:3.25;" d="M 200.332031 40.328125 L 200.332031 47.976562 "/>
<path style="fill:none;stroke-width:1;stroke-linecap:square;stroke-linejoin:miter;stroke:rgb(0%,0%,0%);stroke-opacity:1;stroke-miterlimit:3.25;" d="M 302.316406 40.328125 L 302.316406 47.976562 "/>
<path style="fill:none;stroke-width:1;stroke-linecap:square;stroke-linejoin:miter;stroke:rgb(0%,0%,0%);stroke-opacity:1;stroke-miterlimit:3.25;" d="M 200.332031 40.328125 L 302.316406 40.328125 "/>
<path style="fill:none;stroke-width:1;stroke-linecap:square;stroke-linejoin:miter;stroke:rgb(0%,0%,0%);stroke-opacity:1;stroke-miterlimit:3.25;" d="M 98.347656 32.675781 L 98.347656 40.328125 "/>
<path style="fill:none;stroke-width:1;stroke-linecap:square;stroke-linejoin:miter;stroke:rgb(0%,0%,0%);stroke-opacity:1;stroke-miterlimit:3.25;" d="M 251.324219 32.675781 L 251.324219 40.328125 "/>
<path style="fill:none;stroke-width:1;stroke-linecap:square;stroke-linejoin:miter;stroke:rgb(0%,0%,0%);stroke-opacity:1;stroke-miterlimit:3.25;" d="M 98.347656 32.675781 L 251.324219 32.675781 "/>
<path style="fill:none;stroke-width:1;stroke-linecap:square;stroke-linejoin:miter;stroke:rgb(0%,0%,0%);stroke-opacity:1;stroke-miterlimit:3.25;" d="M 47.355469 98.96875 L 39.707031 98.96875 "/>
<path style="fill:none;stroke-width:1;stroke-linecap:square;stroke-linejoin:miter;stroke:rgb(0%,0%,0%);stroke-opacity:1;stroke-miterlimit:3.25;" d="M 47.355469 200.953125 L 39.707031 200.953125 "/>
<path style="fill:none;stroke-width:1;stroke-linecap:square;stroke-linejoin:miter;stroke:rgb(0%,0%,0%);stroke-opacity:1;stroke-miterlimit:3.25;" d="M 39.707031 98.96875 L 39.707031 200.953125 "/>
<path style="fill:none;stroke-width:1;stroke-linecap:square;stroke-linejoin:miter;stroke:rgb(0%,0%,0%);stroke-opacity:1;stroke-miterlimit:3.25;" d="M 47.355469 277.441406 L 39.707031 277.441406 "/>
<path style="fill:none;stroke-width:1;stroke-linecap:square;stroke-linejoin:miter;stroke:rgb(0%,0%,0%);stroke-opacity:1;stroke-miterlimit:3.25;" d="M 47.355469 328.433594 L 39.707031 328.433594 "/>
<path style="fill:none;stroke-width:1;stroke-linecap:square;stroke-linejoin:miter;stroke:rgb(0%,0%,0%);stroke-opacity:1;stroke-miterlimit:3.25;" d="M 39.707031 277.441406 L 39.707031 328.433594 "/>
<path style="fill:none;stroke-width:1;stroke-linecap:square;stroke-linejoin:miter;stroke:rgb(0%,0%,0%);stroke-opacity:1;stroke-miterlimit:3.25;" d="M 39.707031 149.960938 L 32.054688 149.960938 "/>
<path style="fill:none;stroke-width:1;stroke-linecap:square;stroke-linejoin:miter;stroke:rgb(0%,0%,0%);stroke-opacity:1;stroke-miterlimit:3.25;" d="M 39.707031 302.9375 L 32.054688 302.9375 "/>
<path style="fill:none;stroke-width:1;stroke-linecap:square;stroke-linejoin:miter;stroke:rgb(0%,0%,0%);stroke-opacity:1;stroke-miterlimit:3.25;" d="M 32.054688 149.960938 L 32.054688 302.9375 "/>
<path style=" stroke:none;fill-rule:evenodd;fill:rgb(0%,0%,0%);fill-opacity:1;" d="M 106.40625 21.625 C 106.40625 21.390625 106.191406 21.390625 105.835938 21.390625 C 104.523438 21.390625 104.5 21.171875 104.429688 20.457031 L 102.976562 5.585938 C 102.925781 5.109375 102.832031 5.0625 102.570312 5.0625 C 102.332031 5.0625 102.1875 5.109375 101.972656 5.46875 L 93.628906 19.433594 C 92.796875 20.839844 91.988281 21.316406 90.839844 21.390625 C 90.578125 21.410156 90.386719 21.410156 90.386719 21.84375 C 90.386719 21.984375 90.507812 22.078125 90.675781 22.078125 L 92.605469 22.03125 C 93.296875 22.03125 94.058594 22.078125 94.726562 22.078125 C 94.871094 22.078125 95.15625 22.078125 95.15625 21.625 C 95.15625 21.410156 94.964844 21.390625 94.820312 21.390625 C 94.273438 21.339844 93.820312 21.148438 93.820312 20.578125 C 93.820312 20.246094 93.964844 19.984375 94.273438 19.457031 L 96.085938 16.457031 L 102.164062 16.457031 C 102.1875 16.667969 102.1875 16.859375 102.210938 17.074219 C 102.28125 17.691406 102.570312 20.171875 102.570312 20.625 C 102.570312 21.339844 101.355469 21.390625 100.972656 21.390625 C 100.710938 21.390625 100.449219 21.390625 100.449219 21.816406 C 100.449219 22.078125 100.664062 22.078125 100.804688 22.078125 C 101.210938 22.078125 101.6875 22.03125 102.089844 22.03125 L 103.449219 22.03125 L 105.976562 22.078125 C 106.144531 22.078125 106.40625 22.078125 106.40625 21.625 Z M 102.089844 15.761719 L 96.488281 15.761719 L 101.28125 7.753906 Z M 102.089844 15.761719 "/>
<path style=" stroke:none;fill-rule:evenodd;fill:rgb(0%,0%,0%);fill-opacity:1;" d="M 257.589844 8.992188 C 257.589844 10.921875 255.660156 13.375 252.515625 13.375 L 249.078125 13.375 L 250.558594 7.417969 C 250.773438 6.535156 250.867188 6.488281 251.796875 6.488281 L 254.898438 6.488281 C 257.589844 6.488281 257.589844 8.777344 257.589844 8.992188 Z M 258.234375 16.902344 C 258.234375 14.953125 256.519531 13.757812 254.589844 13.566406 C 257.183594 13.09375 259.542969 11.28125 259.542969 9.085938 C 259.542969 7.226562 257.902344 5.796875 255.207031 5.796875 L 247.554688 5.796875 C 247.101562 5.796875 246.886719 5.796875 246.886719 6.25 C 246.886719 6.488281 247.101562 6.488281 247.457031 6.488281 C 248.914062 6.488281 248.914062 6.679688 248.914062 6.941406 C 248.914062 6.941406 248.914062 7.132812 248.816406 7.488281 L 245.597656 20.3125 C 245.386719 21.148438 245.335938 21.386719 243.667969 21.386719 C 243.214844 21.386719 242.976562 21.386719 242.976562 21.816406 C 242.976562 22.078125 243.121094 22.078125 243.597656 22.078125 L 251.773438 22.078125 C 255.421875 22.078125 258.234375 19.3125 258.234375 16.902344 Z M 256.230469 16.667969 C 256.230469 18.957031 254.15625 21.386719 251.203125 21.386719 L 247.984375 21.386719 C 247.648438 21.386719 247.601562 21.386719 247.457031 21.363281 C 247.199219 21.339844 247.175781 21.292969 247.175781 21.101562 C 247.175781 20.933594 247.222656 20.792969 247.269531 20.574219 L 248.9375 13.855469 L 253.421875 13.855469 C 256.230469 13.855469 256.230469 16.476562 256.230469 16.667969 Z M 256.230469 16.667969 "/>
<path style=" stroke:none;fill-rule:evenodd;fill:rgb(0%,0%,0%);fill-opacity:1;" d="M 18.085938 135.164062 L 13.554688 130.335938 L 9.023438 135.164062 L 9.410156 135.578125 L 13.554688 132.359375 L 17.699219 135.578125 Z M 18.085938 135.164062 "/>
<path style=" stroke:none;fill-rule:evenodd;fill:rgb(0%,0%,0%);fill-opacity:1;" d="M 19.132812 151.125 C 19.132812 148.113281 16.867188 145.964844 13.558594 145.753906 L 15.320312 138.542969 C 15.320312 138.273438 15.109375 138.273438 15.019531 138.273438 C 14.753906 138.273438 14.722656 138.335938 14.601562 138.839844 L 12.992188 145.25 C 12.90625 145.636719 12.84375 145.695312 12.84375 145.695312 C 12.816406 145.753906 12.546875 145.785156 12.546875 145.785156 C 7.65625 146.203125 3.902344 150.230469 3.902344 153.953125 C 3.902344 157.171875 6.375 159.140625 9.472656 159.320312 L 8.789062 162.121094 C 8.371094 163.699219 8.132812 164.683594 8.132812 164.800781 C 8.132812 164.800781 8.132812 165.039062 8.429688 165.039062 C 8.519531 165.039062 8.640625 165.039062 8.699219 164.921875 C 8.757812 164.863281 8.9375 164.144531 9.054688 163.757812 L 10.164062 159.320312 C 15.257812 159.050781 19.132812 154.878906 19.132812 151.125 Z M 17.316406 150.496094 C 17.316406 153.863281 14.960938 158.335938 10.3125 158.691406 L 13.382812 146.351562 C 15.347656 146.46875 17.316406 147.574219 17.316406 150.496094 Z M 12.726562 146.382812 L 9.625 158.722656 C 8.164062 158.632812 5.71875 157.859375 5.71875 154.582031 C 5.71875 150.824219 8.429688 146.648438 12.726562 146.382812 Z M 12.726562 146.382812 "/>
<path style=" stroke:none;fill-rule:evenodd;fill:rgb(0%,0%,0%);fill-opacity:1;" d="M 18.085938 283.726562 L 17.699219 283.3125 L 13.554688 286.53125 L 9.410156 283.3125 L 9.023438 283.726562 L 13.554688 288.554688 Z M 18.085938 283.726562 "/>
<path style=" stroke:none;fill-rule:evenodd;fill:rgb(0%,0%,0%);fill-opacity:1;" d="M 19.132812 304.101562 C 19.132812 301.089844 16.867188 298.941406 13.558594 298.730469 L 15.320312 291.519531 C 15.320312 291.25 15.109375 291.25 15.019531 291.25 C 14.753906 291.25 14.722656 291.3125 14.601562 291.816406 L 12.992188 298.226562 C 12.90625 298.613281 12.84375 298.671875 12.84375 298.671875 C 12.816406 298.730469 12.546875 298.761719 12.546875 298.761719 C 7.65625 299.179688 3.902344 303.207031 3.902344 306.929688 C 3.902344 310.148438 6.375 312.117188 9.472656 312.296875 L 8.789062 315.097656 C 8.371094 316.675781 8.132812 317.660156 8.132812 317.777344 C 8.132812 317.777344 8.132812 318.015625 8.429688 318.015625 C 8.519531 318.015625 8.640625 318.015625 8.699219 317.898438 C 8.757812 317.839844 8.9375 317.121094 9.054688 316.734375 L 10.164062 312.296875 C 15.257812 312.027344 19.132812 307.855469 19.132812 304.101562 Z M 17.316406 303.472656 C 17.316406 306.839844 14.960938 311.3125 10.3125 311.667969 L 13.382812 299.328125 C 15.347656 299.445312 17.316406 300.550781 17.316406 303.472656 Z M 12.726562 299.359375 L 9.625 311.699219 C 8.164062 311.609375 5.71875 310.835938 5.71875 307.558594 C 5.71875 303.800781 8.429688 299.625 12.726562 299.359375 Z M 12.726562 299.359375 "/>
</g>
</svg>
