<svg xmlns="http://www.w3.org/2000/svg" xmlns:xlink="http://www.w3.org/1999/xlink" xmlns:inkscape="http://www.inkscape.org/namespaces/inkscape" version="1.1" width="502" height="241" viewBox="0 0 502 241">
<defs>
<clipPath id="clip_0">
<path d="M59.762 58.32H402.961V104H59.762Z"/>
</clipPath>
<clipPath id="clip_1">
<path d="M59.762 58.32H402.961V129H59.762Z"/>
</clipPath>
<clipPath id="clip_2">
<path d="M60 58.32H402.961V229.922H60Z"/>
</clipPath>
<clipPath id="clip_3">
<path d="M115 58.32H402.961V229.922H115Z"/>
</clipPath>
<clipPath id="clip_4">
<path d="M218 58.32H402.961V229.922H218Z"/>
</clipPath>
<clipPath id="clip_5">
<path d="M392 40H414.719V53H392Z"/>
</clipPath>
<clipPath id="clip_6">
<path d="M422.16 57H436.558V60H422.16Z"/>
</clipPath>
<clipPath id="clip_7">
<path d="M422.16 89H436.558V91H422.16Z"/>
</clipPath>
<clipPath id="clip_8">
<path d="M422.16 120H436.558V123H422.16Z"/>
</clipPath>
<clipPath id="clip_9">
<path d="M422.16 152H436.558V154H422.16Z"/>
</clipPath>
<clipPath id="clip_10">
<path d="M422.16 183H436.558V186H422.16Z"/>
</clipPath>
</defs>
<g>
<g clip-path="url(#clip_0)">
<path stroke-width="2.400858" stroke-linecap="square" stroke-miterlimit="3.25" stroke-linejoin="miter" fill="none" stroke="#2b00d4" d="M59.895 101.422 60 101.355 60.211 101.262 60.527 101.145 60.949 101.004 61.16 100.938 61.578 100.812 61.684 100.781 61.789 100.754 62.422 100.578 63.262 100.363 63.473 100.309 64.105 100.156 64.945 99.957 66.629 99.574 66.855 99.527 67.086 99.477 67.539 99.379 68.453 99.184 70.277 98.812 73.926 98.098 80.742 96.859 87.422 95.723 94.672 94.551 101.434 93.504 108.766 92.402 115.961 91.355 122.672 90.402 129.953 89.391 136.746 88.465 143.41 87.574 150.637 86.625 157.383 85.75 164.691 84.816 171.867 83.914 178.562 83.082 185.82 82.188 192.598 81.367 199.938 80.484 207.148 79.625 213.871 78.832 221.164 77.98 227.973 77.191 234.645 76.426 241.883 75.602 248.641 74.836 255.965 74.016 263.152 73.211 269.859 72.473 277.129 71.672 283.918 70.93 290.57 70.207 297.793 69.43 304.527 68.707 311.832 67.926 318.652 67.203 325.336 66.496 332.59 65.734 339.359 65.031 346.691 64.266 353.895 63.523 360.609 62.832 367.895 62.086 374.695 61.391 381.359 60.715 388.594 59.984 395.344 59.305 395.812 59.258 396.285 59.211 397.227 59.117 399.109 58.926 399.578 58.879 400.051 58.832 400.992 58.738 401.227 58.715 401.465 58.691 402.168 58.621 402.406 58.598 402.875 58.551"/>
</g>
<g clip-path="url(#clip_1)">
<path stroke-width="2.400858" stroke-linecap="square" stroke-miterlimit="3.25" stroke-linejoin="miter" fill="none" stroke="#5500aa" d="M59.895 127.137 60 125.945 60.105 125.445 60.211 125.066 60.316 124.742 60.422 124.461 60.527 124.203 60.738 123.75 60.844 123.543 60.949 123.348 61.16 122.984 61.578 122.34 61.684 122.191 61.789 122.051 62 121.773 62.422 121.262 63.262 120.352 63.473 120.141 63.684 119.938 64.105 119.547 64.945 118.824 66.629 117.535 66.742 117.453 66.855 117.375 67.086 117.215 67.539 116.906 68.453 116.312 70.277 115.211 70.391 115.148 70.504 115.082 70.734 114.953 71.191 114.699 72.102 114.207 73.926 113.273 74.031 113.219 74.141 113.168 74.352 113.062 74.777 112.855 75.629 112.453 77.336 111.68 80.742 110.234 87.422 107.715 94.672 105.305 101.434 103.273 108.766 101.254 115.961 99.414 122.672 97.801 129.953 96.145 136.746 94.676 143.41 93.297 150.637 91.863 157.383 90.574 164.691 89.23 171.867 87.953 178.562 86.797 185.82 85.582 192.598 84.477 199.938 83.312 207.148 82.199 213.871 81.184 221.164 80.109 227.973 79.125 234.645 78.184 241.883 77.18 248.641 76.258 255.965 75.281 263.152 74.34 269.859 73.477 277.129 72.555 283.918 71.707 290.57 70.891 297.793 70.016 304.527 69.215 311.832 68.355 318.652 67.566 325.336 66.801 332.59 65.98 339.359 65.227 346.691 64.418 353.895 63.637 360.609 62.914 367.895 62.141 374.695 61.43 381.359 60.738 388.594 59.992 395.344 59.309 395.812 59.262 396.285 59.211 399.109 58.93 399.227 58.918 399.344 58.902 399.578 58.879 400.051 58.832 400.992 58.738 401.227 58.715 401.465 58.691 402.168 58.621 402.406 58.598 402.875 58.551"/>
</g>
<g clip-path="url(#clip_2)">
<path stroke-width="2.400858" stroke-linecap="square" stroke-miterlimit="3.25" stroke-linejoin="miter" fill="none" stroke="#800080" d="M62.207 230.039 62.211 229.992 62.422 227.008 62.527 225.609 62.633 224.262 62.84 221.723 63.262 217.141 63.367 216.086 63.473 215.062 63.684 213.102 64.105 209.488 64.207 208.641 64.312 207.812 64.523 206.219 64.945 203.234 65.051 202.527 65.156 201.836 65.367 200.488 65.785 197.945 66.629 193.367 66.742 192.793 66.855 192.227 67.086 191.117 67.539 189.008 68.453 185.141 68.566 184.688 68.68 184.238 68.91 183.359 69.363 181.668 70.277 178.512 70.391 178.137 70.504 177.766 70.734 177.039 71.191 175.625 72.102 172.961 73.926 168.18 74.031 167.922 74.141 167.664 74.352 167.156 74.777 166.16 75.629 164.25 77.336 160.723 77.547 160.309 77.762 159.898 78.188 159.09 79.039 157.527 80.742 154.602 80.848 154.43 80.949 154.262 81.16 153.922 81.578 153.254 82.41 151.961 84.082 149.504 84.188 149.355 84.289 149.211 84.5 148.918 84.918 148.34 85.754 147.215 87.422 145.066 87.648 144.785 87.875 144.508 88.328 143.957 89.234 142.883 91.047 140.824 94.672 137.051 94.777 136.945 94.883 136.844 95.094 136.637 95.516 136.227 96.359 135.422 98.051 133.867 101.434 130.957 108.766 125.383 115.961 120.668 122.672 116.789 129.953 113.027 136.746 109.852 143.41 107 150.637 104.156 157.383 101.695 164.691 99.215 171.867 96.945 178.562 94.953 185.82 92.918 192.598 91.117 199.938 89.27 207.148 87.551 213.871 86.02 221.164 84.43 227.973 83.012 234.645 81.68 241.883 80.285 248.641 79.035 255.965 77.73 263.152 76.496 269.859 75.383 277.129 74.215 283.918 73.16 290.57 72.156 297.793 71.098 304.527 70.141 311.832 69.133 318.652 68.215 325.336 67.34 332.59 66.414 339.359 65.574 346.691 64.688 353.895 63.836 360.609 63.062 367.895 62.238 374.695 61.492 381.359 60.773 388.594 60.008 395.344 59.312 395.812 59.266 396.285 59.215 397.227 59.121 399.109 58.93 399.578 58.883 400.051 58.832 400.992 58.738 401.227 58.715 401.465 58.691 402.168 58.621 402.406 58.598 402.875 58.551"/>
</g>
<g clip-path="url(#clip_3)">
<path stroke-width="2.400858" stroke-linecap="square" stroke-miterlimit="3.25" stroke-linejoin="miter" fill="none" stroke="#aa0055" d="M117.062 230.039 117.637 227.977 119.316 222.223 122.672 211.637 122.785 211.297 122.902 210.961 123.129 210.289 123.582 208.961 124.492 206.359 126.312 201.367 129.953 192.168 130.164 191.66 130.375 191.156 130.801 190.156 131.652 188.191 133.352 184.402 136.746 177.32 136.957 176.906 137.164 176.496 137.582 175.68 138.414 174.074 140.078 170.961 143.41 165.109 150.637 153.891 157.383 144.922 164.691 136.504 171.867 129.309 178.562 123.383 185.82 117.668 192.598 112.898 199.938 108.25 207.148 104.141 213.871 100.648 221.164 97.195 227.973 94.242 234.645 91.57 241.883 88.891 248.641 86.578 255.965 84.25 263.152 82.129 269.859 80.277 277.129 78.402 283.918 76.762 290.57 75.25 297.793 73.699 304.527 72.34 311.832 70.945 318.652 69.715 325.336 68.57 332.59 67.391 339.359 66.344 346.691 65.27 353.895 64.266 360.609 63.371 367.895 62.445 374.695 61.621 381.359 60.844 388.594 60.039 395.344 59.32 395.578 59.297 395.812 59.27 396.285 59.223 399.109 58.93 399.578 58.883 400.051 58.836 400.992 58.738 401.227 58.715 401.465 58.691 402.168 58.621 402.406 58.598 402.875 58.551"/>
</g>
<g clip-path="url(#clip_4)">
<path stroke-width="2.400858" stroke-linecap="square" stroke-miterlimit="3.25" stroke-linejoin="miter" fill="none" stroke="#d4002b" d="M220.156 230.039 221.164 225.402 221.27 224.938 221.375 224.477 221.59 223.562 222.016 221.746 222.867 218.188 224.566 211.34 227.973 198.66 228.074 198.293 228.18 197.926 228.387 197.195 228.805 195.746 229.641 192.902 231.309 187.418 234.645 177.215 234.871 176.559 235.098 175.906 235.551 174.613 236.453 172.078 238.266 167.195 241.883 158.145 241.992 157.895 242.098 157.645 242.309 157.148 242.73 156.16 243.574 154.219 245.262 150.473 248.641 143.469 248.754 143.242 248.871 143.016 249.098 142.566 249.555 141.676 250.473 139.926 252.301 136.555 255.965 130.266 256.074 130.082 256.414 129.531 256.863 128.809 257.762 127.387 259.559 124.637 263.152 119.496 269.859 111.031 277.129 103.258 283.918 97.086 290.57 91.883 297.793 87.02 304.527 83.105 311.832 79.43 318.652 76.445 325.336 73.875 332.59 71.434 339.359 69.43 346.691 67.516 353.895 65.859 360.609 64.484 367.895 63.16 374.695 62.059 381.359 61.086 388.594 60.141 395.344 59.348 395.461 59.332 395.578 59.32 395.812 59.293 396.285 59.242 399.109 58.938 399.344 58.914 399.578 58.887 400.051 58.84 400.992 58.742 401.227 58.719 401.465 58.691 402.168 58.621 402.406 58.598 402.875 58.551"/>
</g>
<path stroke-width=".144" stroke-linecap="square" stroke-miterlimit="3.25" stroke-linejoin="miter" fill="none" stroke="#000000" d="M402.875 230.039H59.895"/>
<path stroke-width=".144" stroke-linecap="square" stroke-miterlimit="3.25" stroke-linejoin="miter" fill="none" stroke="#000000" d="M59.895 230.039V58.551"/>
<path stroke-width=".144" stroke-linecap="square" stroke-miterlimit="3.25" stroke-linejoin="miter" fill="none" stroke="#000000" d="M59.895 58.551H402.875"/>
<path stroke-width=".144" stroke-linecap="square" stroke-miterlimit="3.25" stroke-linejoin="miter" fill="none" stroke="#000000" d="M402.875 58.551V230.039"/>
<path stroke-width=".144" stroke-linecap="butt" stroke-miterlimit="3.25" stroke-linejoin="miter" fill="none" stroke="#000000" d="M59.895 230.039H63.324"/>
<text xml:space="preserve" transform="matrix(1 0 0 1 0 0)" font-size="18.72" font-family="CairoFont-0"><tspan y="235.68" x="34.56968">-</tspan></text>
<text xml:space="preserve" transform="matrix(1 0 0 1 0 0)" font-size="17.28" font-family="CairoFont-1"><tspan y="235.68" x="47.625928">5</tspan></text>
<path stroke-width=".144" stroke-linecap="butt" stroke-miterlimit="3.25" stroke-linejoin="miter" fill="none" stroke="#000000" d="M59.895 195.742H63.324"/>
<text xml:space="preserve" transform="matrix(1 0 0 1 0 0)" font-size="18.72" font-family="CairoFont-0"><tspan y="201.38204" x="35.278429">-</tspan></text>
<text xml:space="preserve" transform="matrix(1 0 0 1 0 0)" font-size="17.28" font-family="CairoFont-1"><tspan y="201.38204" x="48.33468">4</tspan></text>
<path stroke-width=".144" stroke-linecap="butt" stroke-miterlimit="3.25" stroke-linejoin="miter" fill="none" stroke="#000000" d="M59.895 161.445H63.324"/>
<text xml:space="preserve" transform="matrix(1 0 0 1 0 0)" font-size="18.72" font-family="CairoFont-0"><tspan y="167.08406" x="35.019678">-</tspan></text>
<text xml:space="preserve" transform="matrix(1 0 0 1 0 0)" font-size="17.28" font-family="CairoFont-1"><tspan y="167.08406" x="48.075929">3</tspan></text>
<path stroke-width=".144" stroke-linecap="butt" stroke-miterlimit="3.25" stroke-linejoin="miter" fill="none" stroke="#000000" d="M59.895 127.145H63.324"/>
<text xml:space="preserve" transform="matrix(1 0 0 1 0 0)" font-size="18.72" font-family="CairoFont-0"><tspan y="132.78609" x="34.77593">-</tspan></text>
<text xml:space="preserve" transform="matrix(1 0 0 1 0 0)" font-size="17.28" font-family="CairoFont-1"><tspan y="132.78609" x="47.832178">2</tspan></text>
<path stroke-width=".144" stroke-linecap="butt" stroke-miterlimit="3.25" stroke-linejoin="miter" fill="none" stroke="#000000" d="M59.895 92.848H63.324"/>
<text xml:space="preserve" transform="matrix(1 0 0 1 0 0)" font-size="18.72" font-family="CairoFont-0"><tspan y="98.48812" x="35.52218">-</tspan></text>
<text xml:space="preserve" transform="matrix(1 0 0 1 0 0)" font-size="17.28" font-family="CairoFont-1"><tspan y="98.48812" x="48.578428">1</tspan></text>
<path stroke-width=".144" stroke-linecap="butt" stroke-miterlimit="3.25" stroke-linejoin="miter" fill="none" stroke="#000000" d="M59.895 58.551H63.324"/>
<text xml:space="preserve" transform="matrix(1 0 0 1 0 0)" font-size="17.28" font-family="CairoFont-1"><tspan y="64.19015" x="47.78343">0</tspan></text>
<path stroke-width=".144" stroke-linecap="butt" stroke-miterlimit="3.25" stroke-linejoin="miter" fill="none" stroke="#000000" d="M59.895 223.18H62.078"/>
<path stroke-width=".144" stroke-linecap="butt" stroke-miterlimit="3.25" stroke-linejoin="miter" fill="none" stroke="#000000" d="M59.895 216.32H62.078"/>
<path stroke-width=".144" stroke-linecap="butt" stroke-miterlimit="3.25" stroke-linejoin="miter" fill="none" stroke="#000000" d="M59.895 209.461H62.078"/>
<path stroke-width=".144" stroke-linecap="butt" stroke-miterlimit="3.25" stroke-linejoin="miter" fill="none" stroke="#000000" d="M59.895 202.602H62.078"/>
<path stroke-width=".144" stroke-linecap="butt" stroke-miterlimit="3.25" stroke-linejoin="miter" fill="none" stroke="#000000" d="M59.895 188.883H62.078"/>
<path stroke-width=".144" stroke-linecap="butt" stroke-miterlimit="3.25" stroke-linejoin="miter" fill="none" stroke="#000000" d="M59.895 182.023H62.078"/>
<path stroke-width=".144" stroke-linecap="butt" stroke-miterlimit="3.25" stroke-linejoin="miter" fill="none" stroke="#000000" d="M59.895 175.164H62.078"/>
<path stroke-width=".144" stroke-linecap="butt" stroke-miterlimit="3.25" stroke-linejoin="miter" fill="none" stroke="#000000" d="M59.895 168.305H62.078"/>
<path stroke-width=".144" stroke-linecap="butt" stroke-miterlimit="3.25" stroke-linejoin="miter" fill="none" stroke="#000000" d="M59.895 154.586H62.078"/>
<path stroke-width=".144" stroke-linecap="butt" stroke-miterlimit="3.25" stroke-linejoin="miter" fill="none" stroke="#000000" d="M59.895 147.727H62.078"/>
<path stroke-width=".144" stroke-linecap="butt" stroke-miterlimit="3.25" stroke-linejoin="miter" fill="none" stroke="#000000" d="M59.895 140.867H62.078"/>
<path stroke-width=".144" stroke-linecap="butt" stroke-miterlimit="3.25" stroke-linejoin="miter" fill="none" stroke="#000000" d="M59.895 134.004H62.078"/>
<path stroke-width=".144" stroke-linecap="butt" stroke-miterlimit="3.25" stroke-linejoin="miter" fill="none" stroke="#000000" d="M59.895 120.285H62.078"/>
<path stroke-width=".144" stroke-linecap="butt" stroke-miterlimit="3.25" stroke-linejoin="miter" fill="none" stroke="#000000" d="M59.895 113.426H62.078"/>
<path stroke-width=".144" stroke-linecap="butt" stroke-miterlimit="3.25" stroke-linejoin="miter" fill="none" stroke="#000000" d="M59.895 106.566H62.078"/>
<path stroke-width=".144" stroke-linecap="butt" stroke-miterlimit="3.25" stroke-linejoin="miter" fill="none" stroke="#000000" d="M59.895 99.707H62.078"/>
<path stroke-width=".144" stroke-linecap="butt" stroke-miterlimit="3.25" stroke-linejoin="miter" fill="none" stroke="#000000" d="M59.895 85.988H62.078"/>
<path stroke-width=".144" stroke-linecap="butt" stroke-miterlimit="3.25" stroke-linejoin="miter" fill="none" stroke="#000000" d="M59.895 79.129H62.078"/>
<path stroke-width=".144" stroke-linecap="butt" stroke-miterlimit="3.25" stroke-linejoin="miter" fill="none" stroke="#000000" d="M59.895 72.27H62.078"/>
<path stroke-width=".144" stroke-linecap="butt" stroke-miterlimit="3.25" stroke-linejoin="miter" fill="none" stroke="#000000" d="M59.895 65.41H62.078"/>
<path stroke-width=".144" stroke-linecap="butt" stroke-miterlimit="3.25" stroke-linejoin="miter" fill="none" stroke="#000000" d="M59.895 58.551V61.98"/>
<text xml:space="preserve" transform="matrix(1 0 0 1 0 0)" font-size="17.28" font-family="CairoFont-1"><tspan y="52.070154" x="54.919679">0</tspan></text>
<path stroke-width=".144" stroke-linecap="butt" stroke-miterlimit="3.25" stroke-linejoin="miter" fill="none" stroke="#000000" d="M128.492 58.551V61.98"/>
<text xml:space="preserve" transform="matrix(1 0 0 1 0 0)" font-size="17.28" font-family="CairoFont-1"><tspan y="52.070154" x="116.67187 125.83027 130.40947">0.2</tspan></text>
<path stroke-width=".144" stroke-linecap="butt" stroke-miterlimit="3.25" stroke-linejoin="miter" fill="none" stroke="#000000" d="M197.086 58.551V61.98"/>
<text xml:space="preserve" transform="matrix(1 0 0 1 0 0)" font-size="17.28" font-family="CairoFont-1"><tspan y="52.070154" x="185.51906 194.67746 199.25666">0.4</tspan></text>
<path stroke-width=".144" stroke-linecap="butt" stroke-miterlimit="3.25" stroke-linejoin="miter" fill="none" stroke="#000000" d="M265.684 58.551V61.98"/>
<text xml:space="preserve" transform="matrix(1 0 0 1 0 0)" font-size="17.28" font-family="CairoFont-1"><tspan y="52.070154" x="253.75125 262.90965 267.48884">0.6</tspan></text>
<path stroke-width=".144" stroke-linecap="butt" stroke-miterlimit="3.25" stroke-linejoin="miter" fill="none" stroke="#000000" d="M334.281 58.551V61.98"/>
<text xml:space="preserve" transform="matrix(1 0 0 1 0 0)" font-size="17.28" font-family="CairoFont-1"><tspan y="52.070154" x="322.48594 331.64433 336.2235">0.8</tspan></text>
<path stroke-width=".144" stroke-linecap="butt" stroke-miterlimit="3.25" stroke-linejoin="miter" fill="none" stroke="#000000" d="M402.875 58.551V61.98"/>
<g clip-path="url(#clip_5)">
<text xml:space="preserve" transform="matrix(1 0 0 1 0 0)" font-size="17.28" font-family="CairoFont-1"><tspan y="52.070154" x="391.03126 400.18965 404.76884">1.0</tspan></text>
</g>
<path stroke-width=".144" stroke-linecap="butt" stroke-miterlimit="3.25" stroke-linejoin="miter" fill="none" stroke="#000000" d="M77.043 58.551V60.734"/>
<path stroke-width=".144" stroke-linecap="butt" stroke-miterlimit="3.25" stroke-linejoin="miter" fill="none" stroke="#000000" d="M94.195 58.551V60.734"/>
<path stroke-width=".144" stroke-linecap="butt" stroke-miterlimit="3.25" stroke-linejoin="miter" fill="none" stroke="#000000" d="M111.344 58.551V60.734"/>
<path stroke-width=".144" stroke-linecap="butt" stroke-miterlimit="3.25" stroke-linejoin="miter" fill="none" stroke="#000000" d="M145.641 58.551V60.734"/>
<path stroke-width=".144" stroke-linecap="butt" stroke-miterlimit="3.25" stroke-linejoin="miter" fill="none" stroke="#000000" d="M162.789 58.551V60.734"/>
<path stroke-width=".144" stroke-linecap="butt" stroke-miterlimit="3.25" stroke-linejoin="miter" fill="none" stroke="#000000" d="M179.938 58.551V60.734"/>
<path stroke-width=".144" stroke-linecap="butt" stroke-miterlimit="3.25" stroke-linejoin="miter" fill="none" stroke="#000000" d="M214.238 58.551V60.734"/>
<path stroke-width=".144" stroke-linecap="butt" stroke-miterlimit="3.25" stroke-linejoin="miter" fill="none" stroke="#000000" d="M231.387 58.551V60.734"/>
<path stroke-width=".144" stroke-linecap="butt" stroke-miterlimit="3.25" stroke-linejoin="miter" fill="none" stroke="#000000" d="M248.535 58.551V60.734"/>
<path stroke-width=".144" stroke-linecap="butt" stroke-miterlimit="3.25" stroke-linejoin="miter" fill="none" stroke="#000000" d="M282.832 58.551V60.734"/>
<path stroke-width=".144" stroke-linecap="butt" stroke-miterlimit="3.25" stroke-linejoin="miter" fill="none" stroke="#000000" d="M299.98 58.551V60.734"/>
<path stroke-width=".144" stroke-linecap="butt" stroke-miterlimit="3.25" stroke-linejoin="miter" fill="none" stroke="#000000" d="M317.129 58.551V60.734"/>
<path stroke-width=".144" stroke-linecap="butt" stroke-miterlimit="3.25" stroke-linejoin="miter" fill="none" stroke="#000000" d="M351.43 58.551V60.734"/>
<path stroke-width=".144" stroke-linecap="butt" stroke-miterlimit="3.25" stroke-linejoin="miter" fill="none" stroke="#000000" d="M368.578 58.551V60.734"/>
<path stroke-width=".144" stroke-linecap="butt" stroke-miterlimit="3.25" stroke-linejoin="miter" fill="none" stroke="#000000" d="M385.727 58.551V60.734"/>
<path d="M16.801 138.953C16.695 138.953 16.609 139.035 16.609 139.164 16.609 139.359 16.719 139.379 17.039 139.465 18.52 139.852 19.656 140.238 19.656 141.098 19.656 141.742 18.949 141.742 18.668 141.742 18.176 141.742 17.961 141.676 17.062 141.461L15.301 141.031 11.801 140.152C11.27 140.004 11.223 140.004 11.16 140.004 10.836 140.004 10.625 140.258 10.625 140.582 10.625 141.203 11.16 141.352 11.695 141.484L17.895 143.008C17.895 143.008 19.656 143.863 19.656 145.43 19.656 146.547 18.688 146.762 17.895 146.762 16.672 146.762 14.957 146.16 13.52 145.602 12.836 145.344 12.555 145.238 12.125 145.238 11.203 145.238 10.41 145.902 10.41 146.934 10.41 148.906 13.52 149.699 13.691 149.699 13.777 149.699 13.883 149.613 13.883 149.465 13.883 149.27 13.797 149.25 13.496 149.164 11.652 148.648 10.836 147.812 10.836 146.996 10.836 146.781 10.859 146.438 11.547 146.438 12.102 146.438 12.727 146.676 13.539 146.996 16.094 147.941 16.91 148.051 17.555 148.051 19.742 148.051 20.086 146.395 20.086 145.516 20.086 144.145 19.141 143.391 18.629 142.961 19.828 142.684 20.086 141.656 20.086 141.141 20.086 140.453 19.633 139.938 18.906 139.598 18.133 139.23 16.867 138.953 16.801 138.953ZM16.801 138.953" fill-rule="evenodd"/>
<path d="M235.828 19.43C235.828 19.305 235.699 19.199 235.613 19.199 235.551 19.199 235.527 19.219 235.332 19.41 233.961 21.234 231.922 21.559 231.109 21.559 229.625 21.559 229.152 20.27 229.152 19.199 229.152 18.445 229.52 16.363 230.293 14.906 230.852 13.898 232.008 12.738 233.359 12.738 233.641 12.738 234.816 12.781 235.25 13.703 234.84 13.703 234.645 13.703 234.348 13.961 234.219 14.066 233.984 14.391 233.984 14.734 233.984 15.16 234.305 15.422 234.711 15.422 235.227 15.422 235.805 14.992 235.805 14.133 235.805 13.102 234.816 12.309 233.34 12.309 230.527 12.309 227.719 15.379 227.719 18.426 227.719 20.293 228.875 21.984 231.062 21.984 233.984 21.984 235.828 19.711 235.828 19.43ZM235.828 19.43" fill-rule="evenodd"/>
<g clip-path="url(#clip_6)">
<path stroke-width="1.611368" stroke-linecap="square" stroke-miterlimit="3.25" stroke-linejoin="miter" fill="none" stroke="#2b00d4" d="M423.148 58.512H435.938"/>
</g>
<path d="M451.996 54.219C451.996 54.219 451.98 54.082 451.824 54.082 451.824 54.082 451.703 54.082 451.672 54.148 451.637 54.188 451.035 55.352 450.523 56.52 450.262 57.105 449.922 57.875 449.355 59.387 449.32 58.543 449.285 57.223 448.633 55.676 448.289 54.82 447.703 53.91 446.453 53.91 444.34 53.91 443.191 56.605 443.191 57.051 443.191 57.203 443.312 57.203 443.363 57.203 443.52 57.203 443.52 57.172 443.602 56.949 443.965 55.883 445.062 55.043 446.246 55.043 448.633 55.043 448.977 57.703 448.977 59.402 448.977 60.484 448.855 60.844 448.754 61.188 448.426 62.25 447.859 64.379 447.859 64.859 447.859 65 447.91 65.152 448.051 65.152 448.305 65.152 448.461 64.586 448.648 63.898 449.062 62.387 449.164 61.633 449.25 60.945 449.301 60.535 450.281 57.703 451.637 55.008 451.758 54.734 451.996 54.27 451.996 54.219ZM451.996 54.219" fill-rule="evenodd"/>
<path d="M469.398 55.609C469.398 55.285 469.105 55.285 468.852 55.285H458.738C458.5 55.285 458.191 55.285 458.191 55.59 458.191 55.918 458.484 55.918 458.738 55.918H468.852C469.09 55.918 469.398 55.918 469.398 55.609ZM469.398 58.801C469.398 58.477 469.105 58.477 468.852 58.477H458.738C458.5 58.477 458.191 58.477 458.191 58.785 458.191 59.109 458.484 59.109 458.738 59.109H468.852C469.09 59.109 469.398 59.109 469.398 58.801ZM469.398 58.801" fill-rule="evenodd"/>
<path d="M482.953 55.988C482.953 54.562 482.867 53.172 482.25 51.867 481.543 50.441 480.309 50.066 479.469 50.066 478.473 50.066 477.254 50.562 476.621 51.988 476.137 53.07 475.969 54.133 475.969 55.988 475.969 57.652 476.086 58.906 476.703 60.121 477.375 61.426 478.559 61.84 479.449 61.84 480.945 61.84 481.805 60.945 482.301 59.953 482.918 58.664 482.953 56.98 482.953 55.988ZM481.648 55.781C481.648 56.93 481.648 58.234 481.457 59.281 481.133 61.172 480.055 61.496 479.449 61.496 478.902 61.496 477.785 61.188 477.461 59.316 477.273 58.285 477.273 56.98 477.273 55.781 477.273 54.375 477.273 53.102 477.547 52.09 477.836 50.941 478.711 50.406 479.449 50.406 480.102 50.406 481.098 50.805 481.426 52.281 481.648 53.258 481.648 54.613 481.648 55.781ZM481.648 55.781" fill-rule="evenodd"/>
<path d="M486.773 60.656C486.773 60.16 486.359 59.816 485.949 59.816 485.449 59.816 485.109 60.227 485.109 60.637 485.109 61.137 485.52 61.48 485.93 61.48 486.43 61.48 486.773 61.066 486.773 60.656ZM486.773 60.656" fill-rule="evenodd"/>
<path d="M495.918 58.594H495.539C495.488 58.887 495.352 59.832 495.18 60.105 495.059 60.262 494.082 60.262 493.566 60.262H490.391C490.855 59.867 491.902 58.77 492.348 58.355 494.957 55.953 495.918 55.062 495.918 53.359 495.918 51.387 494.355 50.066 492.367 50.066 490.375 50.066 489.207 51.766 489.207 53.242 489.207 54.117 489.965 54.117 490.012 54.117 490.375 54.117 490.82 53.859 490.82 53.309 490.82 52.828 490.492 52.504 490.012 52.504 489.859 52.504 489.824 52.504 489.773 52.52 490.102 51.352 491.027 50.562 492.141 50.562 493.602 50.562 494.496 51.781 494.496 53.359 494.496 54.82 493.652 56.09 492.676 57.188L489.207 61.066V61.48H495.473ZM495.918 58.594" fill-rule="evenodd"/>
<g clip-path="url(#clip_7)">
<path stroke-width="1.611368" stroke-linecap="square" stroke-miterlimit="3.25" stroke-linejoin="miter" fill="none" stroke="#5500aa" d="M423.148 90H435.938"/>
</g>
<path d="M451.996 85.707C451.996 85.707 451.98 85.57 451.824 85.57 451.824 85.57 451.703 85.57 451.672 85.637 451.637 85.672 451.035 86.84 450.523 88.008 450.262 88.59 449.922 89.363 449.355 90.871 449.32 90.031 449.285 88.711 448.633 87.164 448.289 86.309 447.703 85.398 446.453 85.398 444.34 85.398 443.191 88.094 443.191 88.539 443.191 88.691 443.312 88.691 443.363 88.691 443.52 88.691 443.52 88.66 443.602 88.438 443.965 87.371 445.062 86.531 446.246 86.531 448.633 86.531 448.977 89.191 448.977 90.891 448.977 91.973 448.855 92.332 448.754 92.676 448.426 93.738 447.859 95.867 447.859 96.348 447.859 96.484 447.91 96.641 448.051 96.641 448.305 96.641 448.461 96.074 448.648 95.387 449.062 93.875 449.164 93.121 449.25 92.434 449.301 92.023 450.281 89.191 451.637 86.496 451.758 86.223 451.996 85.758 451.996 85.707ZM451.996 85.707" fill-rule="evenodd"/>
<path d="M469.398 87.098C469.398 86.77 469.105 86.77 468.852 86.77H458.738C458.5 86.77 458.191 86.77 458.191 87.078 458.191 87.406 458.484 87.406 458.738 87.406H468.852C469.09 87.406 469.398 87.406 469.398 87.098ZM469.398 90.289C469.398 89.965 469.105 89.965 468.852 89.965H458.738C458.5 89.965 458.191 89.965 458.191 90.273 458.191 90.598 458.484 90.598 458.738 90.598H468.852C469.09 90.598 469.398 90.598 469.398 90.289ZM469.398 90.289" fill-rule="evenodd"/>
<path d="M482.953 87.477C482.953 86.051 482.867 84.66 482.25 83.355 481.543 81.93 480.309 81.555 479.469 81.555 478.473 81.555 477.254 82.051 476.621 83.477 476.137 84.559 475.969 85.621 475.969 87.477 475.969 89.141 476.086 90.395 476.703 91.609 477.375 92.914 478.559 93.328 479.449 93.328 480.945 93.328 481.805 92.434 482.301 91.441 482.918 90.152 482.953 88.469 482.953 87.477ZM481.648 87.27C481.648 88.418 481.648 89.723 481.457 90.77 481.133 92.66 480.055 92.984 479.449 92.984 478.902 92.984 477.785 92.676 477.461 90.805 477.273 89.773 477.273 88.469 477.273 87.27 477.273 85.863 477.273 84.59 477.547 83.578 477.836 82.43 478.711 81.895 479.449 81.895 480.102 81.895 481.098 82.293 481.426 83.77 481.648 84.746 481.648 86.102 481.648 87.27ZM481.648 87.27" fill-rule="evenodd"/>
<path d="M486.773 92.145C486.773 91.648 486.359 91.301 485.949 91.301 485.449 91.301 485.109 91.715 485.109 92.125 485.109 92.625 485.52 92.969 485.93 92.969 486.43 92.969 486.773 92.555 486.773 92.145ZM486.773 92.145" fill-rule="evenodd"/>
<path d="M495.918 89.52C495.918 87.477 494.543 85.773 492.742 85.773 491.766 85.773 491.008 86.203 490.562 86.688V83.133C491.301 83.371 491.902 83.391 492.09 83.391 494.031 83.391 495.266 81.965 495.266 81.727 495.266 81.656 495.23 81.57 495.129 81.57 495.129 81.57 495.059 81.57 494.906 81.641 493.941 82.051 493.121 82.102 492.676 82.102 491.539 82.102 490.734 81.758 490.41 81.621 490.289 81.57 490.238 81.57 490.238 81.57 490.102 81.57 490.102 81.672 490.102 81.949V87.047C490.102 87.355 490.102 87.457 490.305 87.457 490.391 87.457 490.41 87.441 490.578 87.234 491.062 86.531 491.867 86.117 492.727 86.117 493.637 86.117 494.082 86.961 494.219 87.254 494.512 87.922 494.527 88.762 494.527 89.414 494.527 90.066 494.527 91.047 494.047 91.816 493.668 92.434 493 92.863 492.246 92.863 491.113 92.863 489.996 92.094 489.688 90.84 489.773 90.871 489.875 90.891 489.965 90.891 490.254 90.891 490.719 90.719 490.719 90.137 490.719 89.656 490.391 89.383 489.965 89.383 489.652 89.383 489.207 89.535 489.207 90.203 489.207 91.664 490.375 93.328 492.277 93.328 494.219 93.328 495.918 91.695 495.918 89.52ZM495.918 89.52" fill-rule="evenodd"/>
<g clip-path="url(#clip_8)">
<path stroke-width="1.611368" stroke-linecap="square" stroke-miterlimit="3.25" stroke-linejoin="miter" fill="none" stroke="#800080" d="M423.148 121.488H435.938"/>
</g>
<path d="M451.996 117.195C451.996 117.195 451.977 117.059 451.82 117.059 451.82 117.059 451.703 117.059 451.668 117.125 451.633 117.16 451.031 118.328 450.52 119.496 450.262 120.078 449.918 120.852 449.352 122.359 449.316 121.52 449.281 120.199 448.629 118.652 448.289 117.797 447.703 116.887 446.449 116.887 444.34 116.887 443.191 119.582 443.191 120.027 443.191 120.18 443.309 120.18 443.359 120.18 443.516 120.18 443.516 120.148 443.602 119.926 443.961 118.859 445.062 118.02 446.246 118.02 448.629 118.02 448.973 120.68 448.973 122.379 448.973 123.461 448.855 123.82 448.75 124.164 448.426 125.227 447.859 127.355 447.859 127.836 447.859 127.973 447.91 128.129 448.047 128.129 448.305 128.129 448.457 127.562 448.648 126.875 449.059 125.363 449.164 124.609 449.25 123.922 449.301 123.512 450.277 120.68 451.633 117.984 451.754 117.711 451.996 117.246 451.996 117.195ZM451.996 117.195" fill-rule="evenodd"/>
<path d="M469.398 118.586C469.398 118.258 469.105 118.258 468.848 118.258H458.738C458.496 118.258 458.188 118.258 458.188 118.566 458.188 118.895 458.48 118.895 458.738 118.895H468.848C469.086 118.895 469.398 118.895 469.398 118.586ZM469.398 121.777C469.398 121.453 469.105 121.453 468.848 121.453H458.738C458.496 121.453 458.188 121.453 458.188 121.762 458.188 122.086 458.48 122.086 458.738 122.086H468.848C469.086 122.086 469.398 122.086 469.398 121.777ZM469.398 121.777" fill-rule="evenodd"/>
<path d="M482.297 124.457V123.957H481.766C480.254 123.957 480.203 123.75 480.203 123.133V113.453C480.203 113.059 480.203 113.043 479.859 113.043 479.445 113.504 478.59 114.141 476.82 114.141V114.637C477.219 114.637 478.074 114.637 479.02 114.191V123.133C479.02 123.75 478.969 123.957 477.457 123.957H476.926V124.457C477.387 124.422 479.055 124.422 479.621 124.422 480.188 124.422 481.832 124.422 482.297 124.457ZM482.297 124.457" fill-rule="evenodd"/>
<path d="M486.77 123.633C486.77 123.133 486.359 122.789 485.945 122.789 485.445 122.789 485.105 123.203 485.105 123.613 485.105 124.109 485.516 124.457 485.93 124.457 486.426 124.457 486.77 124.043 486.77 123.633ZM486.77 123.633" fill-rule="evenodd"/>
<g clip-path="url(#clip_9)">
<path stroke-width="1.611368" stroke-linecap="square" stroke-miterlimit="3.25" stroke-linejoin="miter" fill="none" stroke="#aa0055" d="M423.148 152.977H435.938"/>
</g>
<path d="M451.996 148.684C451.996 148.684 451.977 148.547 451.82 148.547 451.82 148.547 451.703 148.547 451.668 148.613 451.633 148.648 451.031 149.816 450.52 150.984 450.262 151.566 449.918 152.34 449.352 153.848 449.316 153.008 449.281 151.688 448.629 150.141 448.289 149.285 447.703 148.375 446.449 148.375 444.34 148.375 443.191 151.066 443.191 151.516 443.191 151.668 443.309 151.668 443.359 151.668 443.516 151.668 443.516 151.637 443.602 151.414 443.961 150.348 445.062 149.508 446.246 149.508 448.629 149.508 448.973 152.168 448.973 153.867 448.973 154.949 448.855 155.309 448.75 155.652 448.426 156.715 447.859 158.844 447.859 159.324 447.859 159.461 447.91 159.617 448.047 159.617 448.305 159.617 448.457 159.051 448.648 158.363 449.059 156.852 449.164 156.098 449.25 155.41 449.301 155 450.277 152.168 451.633 149.473 451.754 149.199 451.996 148.734 451.996 148.684ZM451.996 148.684" fill-rule="evenodd"/>
<path d="M469.398 150.074C469.398 149.746 469.105 149.746 468.848 149.746H458.738C458.496 149.746 458.188 149.746 458.188 150.055 458.188 150.383 458.48 150.383 458.738 150.383H468.848C469.086 150.383 469.398 150.383 469.398 150.074ZM469.398 153.266C469.398 152.941 469.105 152.941 468.848 152.941H458.738C458.496 152.941 458.188 152.941 458.188 153.25 458.188 153.574 458.48 153.574 458.738 153.574H468.848C469.086 153.574 469.398 153.574 469.398 153.266ZM469.398 153.266" fill-rule="evenodd"/>
<path d="M482.812 153.059H482.434C482.383 153.352 482.246 154.297 482.074 154.57 481.953 154.723 480.973 154.723 480.461 154.723H477.285C477.75 154.332 478.797 153.23 479.242 152.82 481.852 150.414 482.812 149.523 482.812 147.824 482.812 145.852 481.25 144.531 479.262 144.531 477.27 144.531 476.102 146.23 476.102 147.703 476.102 148.578 476.855 148.578 476.906 148.578 477.27 148.578 477.715 148.324 477.715 147.773 477.715 147.293 477.387 146.969 476.906 146.969 476.754 146.969 476.719 146.969 476.668 146.984 476.996 145.816 477.922 145.027 479.035 145.027 480.496 145.027 481.387 146.246 481.387 147.824 481.387 149.285 480.547 150.555 479.566 151.652L476.102 155.531V155.941H482.363ZM482.812 153.059" fill-rule="evenodd"/>
<path d="M486.77 155.121C486.77 154.621 486.359 154.277 485.945 154.277 485.445 154.277 485.105 154.691 485.105 155.102 485.105 155.598 485.516 155.941 485.93 155.941 486.426 155.941 486.77 155.531 486.77 155.121ZM486.77 155.121" fill-rule="evenodd"/>
<g clip-path="url(#clip_10)">
<path stroke-width="1.611368" stroke-linecap="square" stroke-miterlimit="3.25" stroke-linejoin="miter" fill="none" stroke="#d4002b" d="M423.148 184.461H435.938"/>
</g>
<path d="M451.996 180.172C451.996 180.172 451.977 180.035 451.82 180.035 451.82 180.035 451.703 180.035 451.668 180.102 451.633 180.137 451.031 181.305 450.52 182.469 450.262 183.055 449.918 183.828 449.352 185.336 449.316 184.496 449.281 183.176 448.629 181.629 448.289 180.773 447.703 179.863 446.449 179.863 444.34 179.863 443.191 182.555 443.191 183.004 443.191 183.156 443.309 183.156 443.359 183.156 443.516 183.156 443.516 183.125 443.602 182.898 443.961 181.836 445.062 180.996 446.246 180.996 448.629 180.996 448.973 183.656 448.973 185.355 448.973 186.438 448.855 186.797 448.75 187.141 448.426 188.203 447.859 190.332 447.859 190.812 447.859 190.949 447.91 191.105 448.047 191.105 448.305 191.105 448.457 190.539 448.648 189.852 449.059 188.34 449.164 187.586 449.25 186.898 449.301 186.488 450.277 183.656 451.633 180.961 451.754 180.688 451.996 180.223 451.996 180.172ZM451.996 180.172" fill-rule="evenodd"/>
<path d="M469.398 181.562C469.398 181.234 469.105 181.234 468.848 181.234H458.738C458.496 181.234 458.188 181.234 458.188 181.543 458.188 181.871 458.48 181.871 458.738 181.871H468.848C469.086 181.871 469.398 181.871 469.398 181.562ZM469.398 184.754C469.398 184.43 469.105 184.43 468.848 184.43H458.738C458.496 184.43 458.188 184.43 458.188 184.734 458.188 185.062 458.48 185.062 458.738 185.062H468.848C469.086 185.062 469.398 185.062 469.398 184.754ZM469.398 184.754" fill-rule="evenodd"/>
<path d="M482.812 183.984C482.812 181.941 481.438 180.238 479.637 180.238 478.66 180.238 477.902 180.668 477.457 181.148V177.598C478.195 177.836 478.797 177.855 478.984 177.855 480.926 177.855 482.16 176.43 482.16 176.188 482.16 176.121 482.125 176.035 482.023 176.035 482.023 176.035 481.953 176.035 481.801 176.105 480.836 176.516 480.016 176.566 479.566 176.566 478.434 176.566 477.629 176.223 477.305 176.086 477.18 176.035 477.133 176.035 477.133 176.035 476.996 176.035 476.996 176.137 476.996 176.414V181.512C476.996 181.816 476.996 181.922 477.199 181.922 477.285 181.922 477.305 181.902 477.473 181.699 477.957 180.996 478.762 180.582 479.621 180.582 480.527 180.582 480.973 181.426 481.113 181.719 481.402 182.387 481.422 183.227 481.422 183.879 481.422 184.531 481.422 185.512 480.941 186.281 480.562 186.898 479.895 187.328 479.137 187.328 478.008 187.328 476.891 186.555 476.582 185.305 476.668 185.336 476.77 185.355 476.855 185.355 477.148 185.355 477.609 185.184 477.609 184.598 477.609 184.121 477.285 183.844 476.855 183.844 476.547 183.844 476.102 184 476.102 184.668 476.102 186.125 477.27 187.793 479.172 187.793 481.113 187.793 482.812 186.16 482.812 183.984ZM482.812 183.984" fill-rule="evenodd"/>
<path d="M486.77 186.609C486.77 186.109 486.359 185.766 485.945 185.766 485.445 185.766 485.105 186.18 485.105 186.59 485.105 187.086 485.516 187.43 485.93 187.43 486.426 187.43 486.77 187.02 486.77 186.609ZM486.77 186.609" fill-rule="evenodd"/>
</g>
</svg>
