<?xml version="1.0" encoding="UTF-8"?>
<svg xmlns="http://www.w3.org/2000/svg" xmlns:xlink="http://www.w3.org/1999/xlink" width="270pt" height="270pt" viewBox="0 0 270 270" version="1.1">
<g id="surface1">
<path style="fill:none;stroke-width:1;stroke-linecap:square;stroke-linejoin:miter;stroke:rgb(84.999084%,84.999084%,84.999084%);stroke-opacity:1;stroke-miterlimit:3.25;" d="M 217.199219 139.785156 C 217.199219 135.488281 215.492188 131.367188 212.457031 128.328125 C 209.417969 125.289062 205.296875 123.585938 201 123.585938 C 196.703125 123.585938 192.582031 125.289062 189.542969 128.328125 C 186.507812 131.367188 184.800781 135.488281 184.800781 139.785156 C 184.800781 144.082031 186.507812 148.199219 189.542969 151.238281 C 192.582031 154.277344 196.703125 155.984375 201 155.984375 C 205.296875 155.984375 209.417969 154.277344 212.457031 151.238281 C 215.492188 148.199219 217.199219 144.082031 217.199219 139.785156 Z M 217.199219 139.785156 " transform="matrix(1,0,0,1,-66,-5)"/>
<path style="fill:none;stroke-width:1;stroke-linecap:square;stroke-linejoin:miter;stroke:rgb(84.999084%,84.999084%,84.999084%);stroke-opacity:1;stroke-miterlimit:3.25;" d="M 233.398438 139.785156 C 233.398438 131.191406 229.988281 122.949219 223.910156 116.875 C 217.835938 110.796875 209.59375 107.382812 201 107.382812 C 192.40625 107.382812 184.164062 110.796875 178.089844 116.875 C 172.011719 122.949219 168.601562 131.191406 168.601562 139.785156 C 168.601562 148.378906 172.011719 156.617188 178.089844 162.695312 C 184.164062 168.769531 192.40625 172.183594 201 172.183594 C 209.59375 172.183594 217.835938 168.769531 223.910156 162.695312 C 229.988281 156.617188 233.398438 148.378906 233.398438 139.785156 Z M 233.398438 139.785156 " transform="matrix(1,0,0,1,-66,-5)"/>
<path style="fill:none;stroke-width:1;stroke-linecap:square;stroke-linejoin:miter;stroke:rgb(84.999084%,84.999084%,84.999084%);stroke-opacity:1;stroke-miterlimit:3.25;" d="M 249.601562 139.785156 C 249.601562 126.894531 244.480469 114.53125 235.367188 105.417969 C 226.25 96.304688 213.890625 91.183594 201 91.183594 C 188.109375 91.183594 175.75 96.304688 166.632812 105.417969 C 157.519531 114.53125 152.398438 126.894531 152.398438 139.785156 C 152.398438 152.671875 157.519531 165.035156 166.632812 174.148438 C 175.75 183.261719 188.109375 188.382812 201 188.382812 C 213.890625 188.382812 226.25 183.261719 235.367188 174.148438 C 244.480469 165.035156 249.601562 152.671875 249.601562 139.785156 Z M 249.601562 139.785156 " transform="matrix(1,0,0,1,-66,-5)"/>
<path style="fill:none;stroke-width:1;stroke-linecap:square;stroke-linejoin:miter;stroke:rgb(84.999084%,84.999084%,84.999084%);stroke-opacity:1;stroke-miterlimit:3.25;" d="M 265.800781 139.785156 C 265.800781 122.597656 258.972656 106.117188 246.820312 93.964844 C 234.667969 81.8125 218.1875 74.984375 201 74.984375 C 183.8125 74.984375 167.332031 81.8125 155.179688 93.964844 C 143.027344 106.117188 136.199219 122.597656 136.199219 139.785156 C 136.199219 156.96875 143.027344 173.453125 155.179688 185.605469 C 167.332031 197.757812 183.8125 204.585938 201 204.585938 C 218.1875 204.585938 234.667969 197.757812 246.820312 185.605469 C 258.972656 173.453125 265.800781 156.96875 265.800781 139.785156 Z M 265.800781 139.785156 " transform="matrix(1,0,0,1,-66,-5)"/>
<path style="fill:none;stroke-width:1;stroke-linecap:square;stroke-linejoin:miter;stroke:rgb(84.999084%,84.999084%,84.999084%);stroke-opacity:1;stroke-miterlimit:3.25;" d="M 298.199219 139.785156 C 298.199219 114.003906 287.960938 89.28125 269.730469 71.054688 C 251.503906 52.824219 226.777344 42.585938 201 42.585938 C 175.222656 42.585938 150.496094 52.824219 132.269531 71.054688 C 114.039062 89.28125 103.800781 114.003906 103.800781 139.785156 C 103.800781 165.5625 114.039062 190.285156 132.269531 208.515625 C 150.496094 226.742188 175.222656 236.984375 201 236.984375 C 226.777344 236.984375 251.503906 226.742188 269.730469 208.515625 C 287.960938 190.285156 298.199219 165.5625 298.199219 139.785156 Z M 298.199219 139.785156 " transform="matrix(1,0,0,1,-66,-5)"/>
<path style="fill:none;stroke-width:1;stroke-linecap:square;stroke-linejoin:miter;stroke:rgb(84.999084%,84.999084%,84.999084%);stroke-opacity:1;stroke-miterlimit:3.25;" d="M 330.601562 139.785156 C 330.601562 105.410156 316.945312 72.449219 292.640625 48.144531 C 268.335938 23.839844 235.371094 10.183594 201 10.183594 C 166.628906 10.183594 133.664062 23.839844 109.359375 48.144531 C 85.054688 72.449219 71.398438 105.410156 71.398438 139.785156 C 71.398438 174.15625 85.054688 207.121094 109.359375 231.425781 C 133.664062 255.730469 166.628906 269.382812 201 269.382812 C 235.371094 269.382812 268.335938 255.730469 292.640625 231.425781 C 316.945312 207.121094 330.601562 174.15625 330.601562 139.785156 Z M 330.601562 139.785156 " transform="matrix(1,0,0,1,-66,-5)"/>
<path style="fill:none;stroke-width:1;stroke-linecap:square;stroke-linejoin:miter;stroke:rgb(84.999084%,84.999084%,84.999084%);stroke-opacity:1;stroke-miterlimit:3.25;" d="M 171.515625 49.484375 C 171.515625 47.765625 170.832031 46.117188 169.617188 44.902344 C 168.402344 43.683594 166.753906 43.003906 165.035156 43.003906 C 163.316406 43.003906 161.667969 43.683594 160.453125 44.902344 C 159.238281 46.117188 158.554688 47.765625 158.554688 49.484375 C 158.554688 51.203125 159.238281 52.851562 160.453125 54.066406 C 161.667969 55.28125 163.316406 55.960938 165.035156 55.960938 C 166.753906 55.960938 168.402344 55.28125 169.617188 54.066406 C 170.832031 52.851562 171.515625 51.203125 171.515625 49.484375 Z M 171.515625 49.484375 " transform="matrix(1,0,0,1,-66,-5)"/>
<path style="fill:none;stroke-width:1;stroke-linecap:square;stroke-linejoin:miter;stroke:rgb(84.999084%,84.999084%,84.999084%);stroke-opacity:1;stroke-miterlimit:3.25;" d="M 177.996094 49.484375 C 177.996094 46.046875 176.628906 42.75 174.199219 40.320312 C 171.769531 37.886719 168.472656 36.523438 165.035156 36.523438 C 161.597656 36.523438 158.300781 37.886719 155.871094 40.320312 C 153.441406 42.75 152.074219 46.046875 152.074219 49.484375 C 152.074219 52.921875 153.441406 56.214844 155.871094 58.648438 C 158.300781 61.078125 161.597656 62.441406 165.035156 62.441406 C 168.472656 62.441406 171.769531 61.078125 174.199219 58.648438 C 176.628906 56.214844 177.996094 52.921875 177.996094 49.484375 Z M 177.996094 49.484375 " transform="matrix(1,0,0,1,-66,-5)"/>
<path style="fill:none;stroke-width:1;stroke-linecap:square;stroke-linejoin:miter;stroke:rgb(84.999084%,84.999084%,84.999084%);stroke-opacity:1;stroke-miterlimit:3.25;" d="M 184.472656 49.484375 C 184.472656 44.328125 182.425781 39.382812 178.78125 35.738281 C 175.132812 32.089844 170.191406 30.042969 165.035156 30.042969 C 159.878906 30.042969 154.933594 32.089844 151.289062 35.738281 C 147.640625 39.382812 145.59375 44.328125 145.59375 49.484375 C 145.59375 54.636719 147.640625 59.582031 151.289062 63.230469 C 154.933594 66.875 159.878906 68.921875 165.035156 68.921875 C 170.191406 68.921875 175.132812 66.875 178.78125 63.230469 C 182.425781 59.582031 184.472656 54.636719 184.472656 49.484375 Z M 184.472656 49.484375 " transform="matrix(1,0,0,1,-66,-5)"/>
<path style="fill:none;stroke-width:1;stroke-linecap:square;stroke-linejoin:miter;stroke:rgb(84.999084%,84.999084%,84.999084%);stroke-opacity:1;stroke-miterlimit:3.25;" d="M 190.953125 49.484375 C 190.953125 42.609375 188.222656 36.015625 183.363281 31.15625 C 178.5 26.292969 171.910156 23.5625 165.035156 23.5625 C 158.160156 23.5625 151.566406 26.292969 146.707031 31.15625 C 141.84375 36.015625 139.113281 42.609375 139.113281 49.484375 C 139.113281 56.355469 141.84375 62.949219 146.707031 67.8125 C 151.566406 72.671875 158.160156 75.402344 165.035156 75.402344 C 171.910156 75.402344 178.5 72.671875 183.363281 67.8125 C 188.222656 62.949219 190.953125 56.355469 190.953125 49.484375 Z M 190.953125 49.484375 " transform="matrix(1,0,0,1,-66,-5)"/>
<path style="fill:none;stroke-width:1;stroke-linecap:square;stroke-linejoin:miter;stroke:rgb(84.999084%,84.999084%,84.999084%);stroke-opacity:1;stroke-miterlimit:3.25;" d="M 189.507812 95.308594 C 189.507812 93.160156 188.652344 91.101562 187.132812 89.582031 C 185.613281 88.0625 183.554688 87.207031 181.40625 87.207031 C 179.257812 87.207031 177.199219 88.0625 175.679688 89.582031 C 174.160156 91.101562 173.304688 93.160156 173.304688 95.308594 C 173.304688 97.457031 174.160156 99.515625 175.679688 101.035156 C 177.199219 102.554688 179.257812 103.410156 181.40625 103.410156 C 183.554688 103.410156 185.613281 102.554688 187.132812 101.035156 C 188.652344 99.515625 189.507812 97.457031 189.507812 95.308594 Z M 189.507812 95.308594 " transform="matrix(1,0,0,1,-66,-5)"/>
<path style=" stroke:none;fill-rule:evenodd;fill:rgb(0%,0%,0%);fill-opacity:1;" d="M 141.75 134.785156 C 141.75 132.992188 141.039062 131.277344 139.773438 130.011719 C 138.507812 128.746094 136.789062 128.035156 135 128.035156 C 133.210938 128.035156 131.492188 128.746094 130.226562 130.011719 C 128.960938 131.277344 128.25 132.992188 128.25 134.785156 C 128.25 136.574219 128.960938 138.292969 130.226562 139.558594 C 131.492188 140.824219 133.210938 141.535156 135 141.535156 C 136.789062 141.535156 138.507812 140.824219 139.773438 139.558594 C 141.039062 138.292969 141.75 136.574219 141.75 134.785156 Z M 141.75 134.785156 "/>
<path style=" stroke:none;fill-rule:evenodd;fill:rgb(0%,0%,0%);fill-opacity:1;" d="M 140.90625 150.804688 C 140.90625 149.875 140.539062 148.984375 139.882812 148.328125 C 139.226562 147.671875 138.335938 147.304688 137.40625 147.304688 C 136.480469 147.304688 135.589844 147.671875 134.933594 148.328125 C 134.277344 148.984375 133.90625 149.875 133.90625 150.804688 C 133.90625 151.734375 134.277344 152.621094 134.933594 153.277344 C 135.589844 153.933594 136.480469 154.304688 137.40625 154.304688 C 138.335938 154.304688 139.226562 153.933594 139.882812 153.277344 C 140.539062 152.621094 140.90625 151.734375 140.90625 150.804688 Z M 140.90625 150.804688 "/>
<path style=" stroke:none;fill-rule:evenodd;fill:rgb(0%,0%,0%);fill-opacity:1;" d="M 153.648438 163.425781 C 153.648438 162.496094 153.28125 161.605469 152.625 160.949219 C 151.96875 160.292969 151.078125 159.925781 150.148438 159.925781 C 149.222656 159.925781 148.332031 160.292969 147.675781 160.949219 C 147.019531 161.605469 146.648438 162.496094 146.648438 163.425781 C 146.648438 164.351562 147.019531 165.242188 147.675781 165.898438 C 148.332031 166.554688 149.222656 166.925781 150.148438 166.925781 C 151.078125 166.925781 151.96875 166.554688 152.625 165.898438 C 153.28125 165.242188 153.648438 164.351562 153.648438 163.425781 Z M 153.648438 163.425781 "/>
<path style=" stroke:none;fill-rule:evenodd;fill:rgb(0%,0%,0%);fill-opacity:1;" d="M 118.90625 90.308594 C 118.90625 89.378906 118.539062 88.492188 117.882812 87.832031 C 117.226562 87.175781 116.335938 86.808594 115.40625 86.808594 C 114.476562 86.808594 113.585938 87.175781 112.929688 87.832031 C 112.273438 88.492188 111.90625 89.378906 111.90625 90.308594 C 111.90625 91.238281 112.273438 92.128906 112.929688 92.785156 C 113.585938 93.441406 114.476562 93.808594 115.40625 93.808594 C 116.335938 93.808594 117.226562 93.441406 117.882812 92.785156 C 118.539062 92.128906 118.90625 91.238281 118.90625 90.308594 Z M 118.90625 90.308594 "/>
<path style=" stroke:none;fill-rule:evenodd;fill:rgb(0%,0%,0%);fill-opacity:1;" d="M 113.574219 97.304688 C 113.574219 96.707031 113.335938 96.136719 112.914062 95.714844 C 112.492188 95.292969 111.917969 95.054688 111.324219 95.054688 C 110.726562 95.054688 110.152344 95.292969 109.730469 95.714844 C 109.308594 96.136719 109.074219 96.707031 109.074219 97.304688 C 109.074219 97.902344 109.308594 98.472656 109.730469 98.894531 C 110.152344 99.316406 110.726562 99.554688 111.324219 99.554688 C 111.917969 99.554688 112.492188 99.316406 112.914062 98.894531 C 113.335938 98.472656 113.574219 97.902344 113.574219 97.304688 Z M 113.574219 97.304688 "/>
<path style=" stroke:none;fill-rule:evenodd;fill:rgb(0%,0%,0%);fill-opacity:1;" d="M 162.691406 194.898438 C 162.691406 193.96875 162.324219 193.078125 161.667969 192.421875 C 161.011719 191.765625 160.121094 191.398438 159.191406 191.398438 C 158.265625 191.398438 157.375 191.765625 156.71875 192.421875 C 156.0625 193.078125 155.691406 193.96875 155.691406 194.898438 C 155.691406 195.828125 156.0625 196.714844 156.71875 197.375 C 157.375 198.03125 158.265625 198.398438 159.191406 198.398438 C 160.121094 198.398438 161.011719 198.03125 161.667969 197.375 C 162.324219 196.714844 162.691406 195.828125 162.691406 194.898438 Z M 162.691406 194.898438 "/>
<path style=" stroke:none;fill-rule:evenodd;fill:rgb(0%,0%,0%);fill-opacity:1;" d="M 102.535156 44.484375 C 102.535156 43.554688 102.164062 42.664062 101.507812 42.007812 C 100.851562 41.351562 99.960938 40.984375 99.035156 40.984375 C 98.105469 40.984375 97.214844 41.351562 96.558594 42.007812 C 95.902344 42.664062 95.535156 43.554688 95.535156 44.484375 C 95.535156 45.410156 95.902344 46.300781 96.558594 46.957031 C 97.214844 47.613281 98.105469 47.984375 99.035156 47.984375 C 99.960938 47.984375 100.851562 47.613281 101.507812 46.957031 C 102.164062 46.300781 102.535156 45.410156 102.535156 44.484375 Z M 102.535156 44.484375 "/>
<path style=" stroke:none;fill-rule:evenodd;fill:rgb(0%,0%,0%);fill-opacity:1;" d="M 100.507812 38.050781 C 100.507812 37.453125 100.273438 36.878906 99.851562 36.457031 C 99.429688 36.035156 98.855469 35.800781 98.257812 35.800781 C 97.664062 35.800781 97.089844 36.035156 96.667969 36.457031 C 96.246094 36.878906 96.007812 37.453125 96.007812 38.050781 C 96.007812 38.644531 96.246094 39.21875 96.667969 39.640625 C 97.089844 40.0625 97.664062 40.300781 98.257812 40.300781 C 98.855469 40.300781 99.429688 40.0625 99.851562 39.640625 C 100.273438 39.21875 100.507812 38.644531 100.507812 38.050781 Z M 100.507812 38.050781 "/>
<path style=" stroke:none;fill-rule:evenodd;fill:rgb(0%,0%,0%);fill-opacity:1;" d="M 89.242188 39.691406 C 89.242188 39.09375 89.003906 38.523438 88.582031 38.101562 C 88.160156 37.679688 87.589844 37.441406 86.992188 37.441406 C 86.394531 37.441406 85.824219 37.679688 85.402344 38.101562 C 84.980469 38.523438 84.742188 39.09375 84.742188 39.691406 C 84.742188 40.289062 84.980469 40.863281 85.402344 41.285156 C 85.824219 41.707031 86.394531 41.941406 86.992188 41.941406 C 87.589844 41.941406 88.160156 41.707031 88.582031 41.285156 C 89.003906 40.863281 89.242188 40.289062 89.242188 39.691406 Z M 89.242188 39.691406 "/>
<path style=" stroke:none;fill-rule:evenodd;fill:rgb(0%,0%,0%);fill-opacity:1;" d="M 103.230469 63.824219 C 103.230469 63.226562 102.992188 62.65625 102.570312 62.234375 C 102.148438 61.8125 101.578125 61.574219 100.980469 61.574219 C 100.382812 61.574219 99.8125 61.8125 99.386719 62.234375 C 98.964844 62.65625 98.730469 63.226562 98.730469 63.824219 C 98.730469 64.421875 98.964844 64.996094 99.386719 65.417969 C 99.8125 65.839844 100.382812 66.074219 100.980469 66.074219 C 101.578125 66.074219 102.148438 65.839844 102.570312 65.417969 C 102.992188 64.996094 103.230469 64.421875 103.230469 63.824219 Z M 103.230469 63.824219 "/>
<path style=" stroke:none;fill-rule:evenodd;fill:rgb(0%,0%,0%);fill-opacity:1;" d="M 126.945312 40.824219 C 126.945312 40.230469 126.707031 39.65625 126.285156 39.234375 C 125.863281 38.8125 125.292969 38.574219 124.695312 38.574219 C 124.097656 38.574219 123.527344 38.8125 123.105469 39.234375 C 122.683594 39.65625 122.445312 40.230469 122.445312 40.824219 C 122.445312 41.421875 122.683594 41.996094 123.105469 42.417969 C 123.527344 42.839844 124.097656 43.074219 124.695312 43.074219 C 125.292969 43.074219 125.863281 42.839844 126.285156 42.417969 C 126.707031 41.996094 126.945312 41.421875 126.945312 40.824219 Z M 126.945312 40.824219 "/>
<path style=" stroke:none;fill-rule:evenodd;fill:rgb(0%,0%,0%);fill-opacity:1;" d="M 267.992188 129.464844 C 267.992188 128.535156 267.621094 127.644531 266.964844 126.988281 C 266.308594 126.332031 265.417969 125.964844 264.492188 125.964844 C 263.5625 125.964844 262.671875 126.332031 262.015625 126.988281 C 261.359375 127.644531 260.992188 128.535156 260.992188 129.464844 C 260.992188 130.394531 261.359375 131.285156 262.015625 131.941406 C 262.671875 132.597656 263.5625 132.964844 264.492188 132.964844 C 265.417969 132.964844 266.308594 132.597656 266.964844 131.941406 C 267.621094 131.285156 267.992188 130.394531 267.992188 129.464844 Z M 267.992188 129.464844 "/>
</g>
</svg>
